ChaparralPro-Regular.ufo
<glyph name="exclam" format="1">
  <advance width="273"/>
  <unicode hex="0021"/>
  <outline>
    <contour>
      <point x="183" y="659" type="line" smooth="yes"/>
      <point x="171" y="659"/>
      <point x="108" y="648"/>
      <point x="87" y="641" type="curve"/>
      <point x="92" y="573"/>
      <point x="98" y="459"/>
      <point x="100" y="390" type="curve" smooth="yes"/>
      <point x="103" y="329"/>
      <point x="109" y="223"/>
      <point x="111" y="163" type="curve"/>
      <point x="124" y="164"/>
      <point x="149" y="166"/>
      <point x="163" y="170" type="curve"/>
      <point x="169" y="309"/>
      <point x="179" y="521"/>
      <point x="184" y="656" type="curve" smooth="yes"/>
      <point x="184" y="658"/>
      <point x="184" y="659"/>
      <point x="184" y="659" type="curve"/>
    </contour>
    <contour>
      <point x="138" y="94" type="line" smooth="yes"/>
      <point x="105" y="94"/>
      <point x="84" y="66"/>
      <point x="84" y="41" type="curve" smooth="yes"/>
      <point x="84" y="12"/>
      <point x="107" y="-9"/>
      <point x="137" y="-9" type="curve" smooth="yes"/>
      <point x="168" y="-9"/>
      <point x="190" y="15"/>
      <point x="190" y="40" type="curve" smooth="yes"/>
      <point x="190" y="65"/>
      <point x="174" y="94"/>
      <point x="139" y="94" type="curve" smooth="yes"/>
    </contour>
  </outline>
</glyph>
<glyph name="quotedbl" format="1">
  <advance width="321"/>
  <unicode hex="0022"/>
  <outline>
    <contour>
      <point x="131" y="698" type="curve"/>
      <point x="118" y="698"/>
      <point x="76" y="692"/>
      <point x="55" y="684" type="curve"/>
      <point x="60" y="638"/>
      <point x="67" y="550"/>
      <point x="73" y="467" type="curve"/>
      <point x="84" y="467"/>
      <point x="108" y="470"/>
      <point x="121" y="474" type="curve"/>
      <point x="122" y="530"/>
      <point x="128" y="649"/>
    </contour>
    <contour>
      <point x="270" y="698" type="curve"/>
      <point x="257" y="698"/>
      <point x="215" y="692"/>
      <point x="194" y="685" type="curve"/>
      <point x="199" y="638"/>
      <point x="206" y="550"/>
      <point x="212" y="467" type="curve"/>
      <point x="223" y="467"/>
      <point x="247" y="470"/>
      <point x="260" y="474" type="curve"/>
      <point x="261" y="530"/>
      <point x="267" y="649"/>
    </contour>
  </outline>
</glyph>
<glyph name="numbersign" format="1">
  <advance width="524"/>
  <unicode hex="0023"/>
  <outline>
    <contour>
      <point x="230" y="466" type="line"/>
      <point x="241" y="528"/>
      <point x="253" y="597"/>
      <point x="262" y="648" type="curve"/>
      <point x="246" y="648"/>
      <point x="226" y="648"/>
      <point x="208" y="646" type="curve"/>
      <point x="199" y="593"/>
      <point x="188" y="529"/>
      <point x="178" y="466" type="curve"/>
      <point x="140" y="466"/>
      <point x="101" y="466"/>
      <point x="62" y="465" type="curve"/>
      <point x="61" y="451"/>
      <point x="60" y="434"/>
      <point x="60" y="419" type="curve"/>
      <point x="90" y="419"/>
      <point x="130" y="419"/>
      <point x="169" y="419" type="curve"/>
      <point x="162" y="373"/>
      <point x="155" y="327"/>
      <point x="147" y="281" type="curve"/>
      <point x="112" y="281"/>
      <point x="76" y="281"/>
      <point x="39" y="281" type="curve"/>
      <point x="38" y="267"/>
      <point x="37" y="248"/>
      <point x="37" y="232" type="curve"/>
      <point x="67" y="232"/>
      <point x="106" y="233"/>
      <point x="138" y="233" type="curve"/>
      <point x="128" y="168"/>
      <point x="117" y="103"/>
      <point x="105" y="35" type="curve"/>
      <point x="123" y="34"/>
      <point x="140" y="34"/>
      <point x="155" y="35" type="curve"/>
      <point x="164" y="90"/>
      <point x="177" y="163"/>
      <point x="189" y="233" type="curve"/>
      <point x="226" y="233"/>
      <point x="263" y="233"/>
      <point x="300" y="233" type="curve"/>
      <point x="289" y="169"/>
      <point x="278" y="102"/>
      <point x="266" y="35" type="curve"/>
      <point x="283" y="34"/>
      <point x="300" y="35"/>
      <point x="316" y="36" type="curve"/>
      <point x="326" y="91"/>
      <point x="339" y="165"/>
      <point x="351" y="234" type="curve"/>
      <point x="391" y="234"/>
      <point x="432" y="234"/>
      <point x="465" y="234" type="curve"/>
      <point x="467" y="250"/>
      <point x="468" y="265"/>
      <point x="467" y="281" type="curve"/>
      <point x="434" y="281"/>
      <point x="397" y="281"/>
      <point x="359" y="281" type="curve"/>
      <point x="367" y="327"/>
      <point x="374" y="373"/>
      <point x="382" y="419" type="curve"/>
      <point x="420" y="419"/>
      <point x="458" y="419"/>
      <point x="489" y="419" type="curve"/>
      <point x="491" y="434"/>
      <point x="492" y="452"/>
      <point x="492" y="468" type="curve"/>
      <point x="462" y="468"/>
      <point x="427" y="467"/>
      <point x="392" y="467" type="curve"/>
      <point x="403" y="529"/>
      <point x="414" y="595"/>
      <point x="423" y="646" type="curve"/>
      <point x="406" y="647"/>
      <point x="386" y="647"/>
      <point x="369" y="646" type="curve"/>
      <point x="360" y="592"/>
      <point x="350" y="529"/>
      <point x="339" y="466" type="curve"/>
    </contour>
    <contour>
      <point x="330" y="419" type="line"/>
      <point x="323" y="374"/>
      <point x="316" y="327"/>
      <point x="308" y="280" type="curve"/>
      <point x="273" y="280"/>
      <point x="233" y="281"/>
      <point x="198" y="281" type="curve"/>
      <point x="205" y="327"/>
      <point x="213" y="374"/>
      <point x="221" y="419" type="curve"/>
    </contour>
  </outline>
</glyph>
<glyph name="dollar" format="1">
  <advance width="524"/>
  <unicode hex="0024"/>
  <outline>
    <contour>
      <point x="74" y="449" type="line" smooth="yes"/>
      <point x="74" y="361"/>
      <point x="146" y="328"/>
      <point x="234" y="298" type="curve"/>
      <point x="233" y="223"/>
      <point x="232" y="145"/>
      <point x="230" y="76" type="curve"/>
      <point x="175" y="78"/>
      <point x="123" y="102"/>
      <point x="86" y="124" type="curve"/>
      <point x="70" y="113"/>
      <point x="55" y="87"/>
      <point x="49" y="68" type="curve"/>
      <point x="95" y="42"/>
      <point x="174" y="28"/>
      <point x="230" y="30" type="curve"/>
      <point x="230" y="-6"/>
      <point x="229" y="-39"/>
      <point x="229" y="-73" type="curve"/>
      <point x="244" y="-72"/>
      <point x="260" y="-71"/>
      <point x="276" y="-69" type="curve"/>
      <point x="277" y="-35"/>
      <point x="277" y="-2"/>
      <point x="278" y="32" type="curve"/>
      <point x="335" y="37"/>
      <point x="374" y="56"/>
      <point x="403" y="80" type="curve" smooth="yes"/>
      <point x="437" y="109"/>
      <point x="457" y="152"/>
      <point x="457" y="202" type="curve" smooth="yes"/>
      <point x="457" y="287"/>
      <point x="392" y="324"/>
      <point x="296" y="354" type="curve"/>
      <point x="298" y="422"/>
      <point x="299" y="493"/>
      <point x="300" y="557" type="curve"/>
      <point x="337" y="554"/>
      <point x="380" y="535"/>
      <point x="409" y="518" type="curve"/>
      <point x="424" y="527"/>
      <point x="441" y="562"/>
      <point x="441" y="575" type="curve"/>
      <point x="415" y="590"/>
      <point x="370" y="605"/>
      <point x="302" y="604" type="curve"/>
      <point x="303" y="643"/>
      <point x="304" y="678"/>
      <point x="305" y="711" type="curve"/>
      <point x="287" y="710"/>
      <point x="269" y="708"/>
      <point x="254" y="704" type="curve"/>
      <point x="254" y="672"/>
      <point x="253" y="637"/>
      <point x="253" y="602" type="curve"/>
      <point x="209" y="599"/>
      <point x="168" y="584"/>
      <point x="141" y="566" type="curve" smooth="yes"/>
      <point x="103" y="540"/>
      <point x="74" y="496"/>
      <point x="74" y="450" type="curve" smooth="yes"/>
    </contour>
    <contour>
      <point x="143" y="460" type="line" smooth="yes"/>
      <point x="143" y="492"/>
      <point x="157" y="516"/>
      <point x="177" y="531" type="curve"/>
      <point x="197" y="548"/>
      <point x="225" y="555"/>
      <point x="251" y="557" type="curve"/>
      <point x="250" y="497"/>
      <point x="249" y="431"/>
      <point x="248" y="366" type="curve"/>
      <point x="178" y="388"/>
      <point x="143" y="407"/>
      <point x="143" y="459" type="curve" smooth="yes"/>
    </contour>
    <contour>
      <point x="390" y="183" type="line" smooth="yes"/>
      <point x="390" y="152"/>
      <point x="379" y="126"/>
      <point x="356" y="107" type="curve" smooth="yes"/>
      <point x="339" y="93"/>
      <point x="312" y="82"/>
      <point x="278" y="78" type="curve"/>
      <point x="280" y="144"/>
      <point x="281" y="217"/>
      <point x="282" y="287" type="curve"/>
      <point x="351" y="264"/>
      <point x="390" y="244"/>
      <point x="390" y="184" type="curve" smooth="yes"/>
    </contour>
  </outline>
</glyph>
<glyph name="percent" format="1">
  <advance width="760"/>
  <unicode hex="0025"/>
  <outline>
    <contour>
      <point x="511" y="616" type="line"/>
      <point x="463" y="526"/>
      <point x="411" y="427"/>
      <point x="364" y="341" type="curve" smooth="yes"/>
      <point x="303" y="228"/>
      <point x="241" y="114"/>
      <point x="174" y="-5" type="curve"/>
      <point x="188" y="-14"/>
      <point x="203" y="-20"/>
      <point x="217" y="-26" type="curve"/>
      <point x="281" y="90"/>
      <point x="350" y="214"/>
      <point x="405" y="316" type="curve" smooth="yes"/>
      <point x="458" y="413"/>
      <point x="525" y="536"/>
      <point x="581" y="634" type="curve"/>
      <point x="575" y="644"/>
      <point x="568" y="654"/>
      <point x="559" y="664" type="curve"/>
      <point x="507" y="659"/>
      <point x="281" y="652"/>
      <point x="201" y="653" type="curve" smooth="yes"/>
      <point x="164" y="652"/>
      <point x="122" y="640"/>
      <point x="94" y="614" type="curve" smooth="yes"/>
      <point x="61" y="584"/>
      <point x="41" y="540"/>
      <point x="41" y="485" type="curve" smooth="yes"/>
      <point x="41" y="418"/>
      <point x="68" y="373"/>
      <point x="100" y="348" type="curve" smooth="yes"/>
      <point x="124" y="328"/>
      <point x="155" y="319"/>
      <point x="187" y="319" type="curve" smooth="yes"/>
      <point x="227" y="319"/>
      <point x="264" y="334"/>
      <point x="288" y="359" type="curve" smooth="yes"/>
      <point x="319" y="390"/>
      <point x="339" y="434"/>
      <point x="339" y="495" type="curve" smooth="yes"/>
      <point x="339" y="551"/>
      <point x="315" y="597"/>
      <point x="289" y="615" type="curve"/>
      <point x="361" y="616"/>
      <point x="441" y="618"/>
      <point x="508" y="619" type="curve"/>
    </contour>
    <contour>
      <point x="193" y="612" type="line" smooth="yes"/>
      <point x="215" y="612"/>
      <point x="234" y="606"/>
      <point x="245" y="591" type="curve"/>
      <point x="263" y="569"/>
      <point x="275" y="534"/>
      <point x="275" y="488" type="curve" smooth="yes"/>
      <point x="275" y="429"/>
      <point x="259" y="394"/>
      <point x="240" y="376" type="curve" smooth="yes"/>
      <point x="228" y="365"/>
      <point x="211" y="359"/>
      <point x="191" y="359" type="curve" smooth="yes"/>
      <point x="170" y="359"/>
      <point x="152" y="367"/>
      <point x="137" y="381" type="curve" smooth="yes"/>
      <point x="116" y="402"/>
      <point x="105" y="435"/>
      <point x="105" y="487" type="curve" smooth="yes"/>
      <point x="105" y="533"/>
      <point x="116" y="567"/>
      <point x="137" y="590" type="curve" smooth="yes"/>
      <point x="152" y="607"/>
      <point x="171" y="612"/>
      <point x="192" y="612" type="curve" smooth="yes"/>
    </contour>
    <contour>
      <point x="577" y="323" type="line" smooth="yes"/>
      <point x="536" y="323"/>
      <point x="504" y="309"/>
      <point x="478" y="286" type="curve" smooth="yes"/>
      <point x="443" y="254"/>
      <point x="422" y="204"/>
      <point x="422" y="151" type="curve" smooth="yes"/>
      <point x="422" y="92"/>
      <point x="446" y="43"/>
      <point x="480" y="18" type="curve"/>
      <point x="504" y="-2"/>
      <point x="536" y="-10"/>
      <point x="569" y="-10" type="curve" smooth="yes"/>
      <point x="606" y="-10"/>
      <point x="642" y="2"/>
      <point x="670" y="30" type="curve" smooth="yes"/>
      <point x="701" y="61"/>
      <point x="719" y="110"/>
      <point x="719" y="161" type="curve" smooth="yes"/>
      <point x="719" y="218"/>
      <point x="699" y="263"/>
      <point x="670" y="290" type="curve" smooth="yes"/>
      <point x="650" y="310"/>
      <point x="619" y="323"/>
      <point x="578" y="323" type="curve" smooth="yes"/>
    </contour>
    <contour>
      <point x="573" y="283" type="line" smooth="yes"/>
      <point x="596" y="283"/>
      <point x="614" y="275"/>
      <point x="626" y="260" type="curve" smooth="yes"/>
      <point x="643" y="239"/>
      <point x="655" y="205"/>
      <point x="655" y="158" type="curve" smooth="yes"/>
      <point x="655" y="100"/>
      <point x="642" y="68"/>
      <point x="624" y="49" type="curve"/>
      <point x="609" y="35"/>
      <point x="590" y="30"/>
      <point x="572" y="30" type="curve" smooth="yes"/>
      <point x="550" y="30"/>
      <point x="532" y="37"/>
      <point x="517" y="51" type="curve" smooth="yes"/>
      <point x="497" y="70"/>
      <point x="486" y="105"/>
      <point x="486" y="154" type="curve" smooth="yes"/>
      <point x="486" y="197"/>
      <point x="497" y="237"/>
      <point x="518" y="260" type="curve" smooth="yes"/>
      <point x="533" y="277"/>
      <point x="550" y="283"/>
      <point x="572" y="283" type="curve" smooth="yes"/>
    </contour>
  </outline>
</glyph>
<glyph name="ampersand" format="1">
  <advance width="712"/>
  <unicode hex="0026"/>
  <outline>
    <contour>
      <point x="301" y="360" type="line"/>
      <point x="388" y="400"/>
      <point x="430" y="454"/>
      <point x="430" y="523" type="curve" smooth="yes"/>
      <point x="430" y="564"/>
      <point x="409" y="599"/>
      <point x="381" y="622" type="curve" smooth="yes"/>
      <point x="352" y="645"/>
      <point x="316" y="655"/>
      <point x="270" y="655" type="curve" smooth="yes"/>
      <point x="221" y="655"/>
      <point x="177" y="639"/>
      <point x="147" y="615" type="curve" smooth="yes"/>
      <point x="118" y="591"/>
      <point x="92" y="550"/>
      <point x="92" y="503" type="curve" smooth="yes"/>
      <point x="92" y="439"/>
      <point x="136" y="393"/>
      <point x="176" y="364" type="curve"/>
      <point x="176" y="360" type="line"/>
      <point x="85" y="312"/>
      <point x="33" y="243"/>
      <point x="33" y="164" type="curve" smooth="yes"/>
      <point x="33" y="105"/>
      <point x="61" y="59"/>
      <point x="109" y="27" type="curve" smooth="yes"/>
      <point x="142" y="5"/>
      <point x="191" y="-10"/>
      <point x="251" y="-10" type="curve" smooth="yes"/>
      <point x="370" y="-10"/>
      <point x="443" y="48"/>
      <point x="480" y="83" type="curve"/>
      <point x="505" y="53"/>
      <point x="529" y="20"/>
      <point x="551" y="-5" type="curve"/>
      <point x="591" y="-4"/>
      <point x="645" y="-2"/>
      <point x="692" y="0" type="curve"/>
      <point x="693" y="15"/>
      <point x="693" y="30"/>
      <point x="693" y="44" type="curve"/>
      <point x="617" y="46" type="line" smooth="yes"/>
      <point x="610" y="46"/>
      <point x="601" y="47"/>
      <point x="592" y="58" type="curve" smooth="yes"/>
      <point x="574" y="79"/>
      <point x="548" y="111"/>
      <point x="529" y="133" type="curve"/>
      <point x="571" y="183"/>
      <point x="606" y="253"/>
      <point x="629" y="342" type="curve"/>
      <point x="688" y="344" type="line"/>
      <point x="689" y="359"/>
      <point x="689" y="376"/>
      <point x="688" y="390" type="curve"/>
      <point x="659" y="390"/>
      <point x="629" y="389"/>
      <point x="600" y="389" type="curve" smooth="yes"/>
      <point x="566" y="389"/>
      <point x="525" y="389"/>
      <point x="496" y="389" type="curve"/>
      <point x="495" y="376"/>
      <point x="495" y="360"/>
      <point x="495" y="345" type="curve"/>
      <point x="553" y="342" type="line"/>
      <point x="558" y="342"/>
      <point x="558" y="341"/>
      <point x="557" y="334" type="curve"/>
      <point x="553" y="283"/>
      <point x="524" y="208"/>
      <point x="494" y="171" type="curve"/>
      <point x="448" y="226"/>
      <point x="372" y="306"/>
      <point x="300" y="355" type="curve"/>
    </contour>
    <contour>
      <point x="165" y="510" type="line" smooth="yes"/>
      <point x="165" y="539"/>
      <point x="174" y="564"/>
      <point x="194" y="584" type="curve" smooth="yes"/>
      <point x="212" y="601"/>
      <point x="235" y="610"/>
      <point x="264" y="610" type="curve" smooth="yes"/>
      <point x="289" y="610"/>
      <point x="314" y="603"/>
      <point x="333" y="584" type="curve" smooth="yes"/>
      <point x="351" y="565"/>
      <point x="360" y="541"/>
      <point x="360" y="513" type="curve" smooth="yes"/>
      <point x="360" y="453"/>
      <point x="319" y="416"/>
      <point x="256" y="386" type="curve"/>
      <point x="201" y="422"/>
      <point x="165" y="454"/>
      <point x="165" y="509" type="curve" smooth="yes"/>
    </contour>
    <contour>
      <point x="271" y="41" type="line" smooth="yes"/>
      <point x="225" y="41"/>
      <point x="188" y="52"/>
      <point x="160" y="75" type="curve" smooth="yes"/>
      <point x="130" y="100"/>
      <point x="113" y="136"/>
      <point x="113" y="177" type="curve" smooth="yes"/>
      <point x="113" y="256"/>
      <point x="173" y="308"/>
      <point x="221" y="331" type="curve"/>
      <point x="295" y="282"/>
      <point x="379" y="202"/>
      <point x="448" y="120" type="curve"/>
      <point x="408" y="79"/>
      <point x="346" y="41"/>
      <point x="272" y="41" type="curve" smooth="yes"/>
    </contour>
  </outline>
</glyph>
<glyph name="quotesingle" format="1">
  <advance width="181"/>
  <unicode hex="0027"/>
  <outline>
    <contour>
      <point x="131" y="698" type="curve"/>
      <point x="117" y="698"/>
      <point x="76" y="692"/>
      <point x="54" y="684" type="curve"/>
      <point x="59" y="638"/>
      <point x="66" y="550"/>
      <point x="72" y="467" type="curve"/>
      <point x="83" y="467"/>
      <point x="107" y="470"/>
      <point x="120" y="474" type="curve"/>
      <point x="121" y="530"/>
      <point x="128" y="648"/>
    </contour>
  </outline>
</glyph>
<glyph name="parenleft" format="1">
  <advance width="328"/>
  <unicode hex="0028"/>
  <outline>
    <contour>
      <point x="70" y="279" type="line" smooth="yes"/>
      <point x="70" y="48"/>
      <point x="193" y="-71"/>
      <point x="287" y="-147" type="curve"/>
      <point x="298" y="-137"/>
      <point x="309" y="-125"/>
      <point x="317" y="-115" type="curve"/>
      <point x="243" y="-48"/>
      <point x="142" y="69"/>
      <point x="142" y="283" type="curve" smooth="yes"/>
      <point x="142" y="475"/>
      <point x="237" y="616"/>
      <point x="319" y="677" type="curve"/>
      <point x="312" y="689"/>
      <point x="304" y="701"/>
      <point x="295" y="712" type="curve"/>
      <point x="185" y="644"/>
      <point x="70" y="483"/>
      <point x="70" y="280" type="curve" smooth="yes"/>
    </contour>
  </outline>
</glyph>
<glyph name="parenright" format="1">
  <advance width="328"/>
  <unicode hex="0029"/>
  <outline>
    <contour>
      <point x="257" y="287" type="line" smooth="yes"/>
      <point x="257" y="487"/>
      <point x="145" y="644"/>
      <point x="35" y="710" type="curve"/>
      <point x="27" y="700"/>
      <point x="19" y="689"/>
      <point x="11" y="678" type="curve"/>
      <point x="93" y="613"/>
      <point x="185" y="477"/>
      <point x="185" y="283" type="curve" smooth="yes"/>
      <point x="185" y="71"/>
      <point x="86" y="-47"/>
      <point x="8" y="-113" type="curve"/>
      <point x="17" y="-124"/>
      <point x="26" y="-136"/>
      <point x="36" y="-146" type="curve"/>
      <point x="136" y="-69"/>
      <point x="257" y="59"/>
      <point x="257" y="286" type="curve" smooth="yes"/>
    </contour>
  </outline>
</glyph>
<glyph name="asterisk" format="1">
  <advance width="357"/>
  <unicode hex="002A"/>
  <outline>
    <contour>
      <point x="197" y="510" type="curve"/>
      <point x="231" y="486"/>
      <point x="266" y="461"/>
      <point x="300" y="436" type="curve"/>
      <point x="309" y="447"/>
      <point x="319" y="462"/>
      <point x="326" y="474" type="curve"/>
      <point x="289" y="497"/>
      <point x="251" y="519"/>
      <point x="213" y="541" type="curve"/>
      <point x="251" y="564"/>
      <point x="288" y="586"/>
      <point x="325" y="608" type="curve"/>
      <point x="319" y="621"/>
      <point x="310" y="635"/>
      <point x="302" y="647" type="curve"/>
      <point x="267" y="623"/>
      <point x="232" y="598"/>
      <point x="197" y="573" type="curve"/>
      <point x="198" y="615"/>
      <point x="200" y="657"/>
      <point x="201" y="699" type="curve"/>
      <point x="195" y="699"/>
      <point x="187" y="700"/>
      <point x="179" y="700" type="curve" smooth="yes"/>
      <point x="171" y="700"/>
      <point x="163" y="699"/>
      <point x="155" y="699" type="curve"/>
      <point x="157" y="657"/>
      <point x="159" y="615"/>
      <point x="161" y="573" type="curve"/>
      <point x="126" y="598"/>
      <point x="91" y="622"/>
      <point x="55" y="646" type="curve"/>
      <point x="48" y="635"/>
      <point x="39" y="621"/>
      <point x="32" y="607" type="curve"/>
      <point x="69" y="585"/>
      <point x="107" y="563"/>
      <point x="145" y="541" type="curve"/>
      <point x="108" y="520"/>
      <point x="70" y="497"/>
      <point x="32" y="475" type="curve"/>
      <point x="39" y="462"/>
      <point x="48" y="448"/>
      <point x="57" y="436" type="curve"/>
      <point x="92" y="461"/>
      <point x="126" y="485"/>
      <point x="160" y="510" type="curve"/>
      <point x="159" y="467"/>
      <point x="157" y="425"/>
      <point x="155" y="382" type="curve"/>
      <point x="170" y="381"/>
      <point x="187" y="381"/>
      <point x="201" y="382" type="curve"/>
      <point x="200" y="425"/>
      <point x="198" y="468"/>
    </contour>
  </outline>
</glyph>
<glyph name="plus" format="1">
  <advance width="524"/>
  <unicode hex="002B"/>
  <outline>
    <contour>
      <point x="460" y="208" type="line"/>
      <point x="462" y="225"/>
      <point x="463" y="247"/>
      <point x="462" y="264" type="curve"/>
      <point x="408" y="263"/>
      <point x="349" y="263"/>
      <point x="290" y="263" type="curve"/>
      <point x="290" y="331"/>
      <point x="291" y="397"/>
      <point x="291" y="451" type="curve"/>
      <point x="274" y="451"/>
      <point x="253" y="450"/>
      <point x="234" y="448" type="curve"/>
      <point x="234" y="388"/>
      <point x="234" y="325"/>
      <point x="234" y="262" type="curve"/>
      <point x="175" y="261"/>
      <point x="117" y="261"/>
      <point x="65" y="261" type="curve"/>
      <point x="64" y="244"/>
      <point x="64" y="225"/>
      <point x="64" y="208" type="curve"/>
      <point x="116" y="208"/>
      <point x="175" y="208"/>
      <point x="234" y="208" type="curve"/>
      <point x="234" y="140"/>
      <point x="234" y="73"/>
      <point x="234" y="9" type="curve"/>
      <point x="251" y="9"/>
      <point x="272" y="10"/>
      <point x="289" y="12" type="curve"/>
      <point x="289" y="68"/>
      <point x="289" y="138"/>
      <point x="290" y="208" type="curve"/>
    </contour>
  </outline>
</glyph>
<glyph name="comma" format="1">
  <advance width="245"/>
  <unicode hex="002C"/>
  <outline>
    <contour>
      <point x="110" y="100" type="line" smooth="yes"/>
      <point x="80" y="100"/>
      <point x="54" y="68"/>
      <point x="60" y="26" type="curve"/>
      <point x="81" y="20"/>
      <point x="110" y="9"/>
      <point x="110" y="-21" type="curve" smooth="yes"/>
      <point x="110" y="-51"/>
      <point x="91" y="-84"/>
      <point x="42" y="-114" type="curve"/>
      <point x="51" y="-126"/>
      <point x="61" y="-138"/>
      <point x="71" y="-149" type="curve"/>
      <point x="131" y="-115"/>
      <point x="183" y="-58"/>
      <point x="183" y="16" type="curve" smooth="yes"/>
      <point x="183" y="60"/>
      <point x="148" y="100"/>
      <point x="111" y="100" type="curve" smooth="yes"/>
    </contour>
  </outline>
</glyph>
<glyph name="hyphen" format="1">
  <advance width="315"/>
  <unicode hex="002D"/>
  <outline>
    <contour>
      <point x="132" y="213" type="line" smooth="yes"/>
      <point x="178" y="213"/>
      <point x="231" y="213"/>
      <point x="281" y="213" type="curve"/>
      <point x="282" y="230"/>
      <point x="283" y="249"/>
      <point x="283" y="268" type="curve"/>
      <point x="234" y="267"/>
      <point x="187" y="267"/>
      <point x="135" y="266" type="curve" smooth="yes"/>
      <point x="102" y="266"/>
      <point x="68" y="266"/>
      <point x="33" y="265" type="curve"/>
      <point x="32" y="249"/>
      <point x="32" y="230"/>
      <point x="32" y="213" type="curve"/>
      <point x="64" y="213"/>
      <point x="103" y="213"/>
      <point x="131" y="213" type="curve" smooth="yes"/>
    </contour>
  </outline>
</glyph>
<glyph name="period" format="1">
  <advance width="245"/>
  <unicode hex="002E"/>
  <outline>
    <contour>
      <point x="124" y="102" type="line" smooth="yes"/>
      <point x="86" y="102"/>
      <point x="68" y="71"/>
      <point x="68" y="45" type="curve" smooth="yes"/>
      <point x="68" y="14"/>
      <point x="91" y="-9"/>
      <point x="125" y="-9" type="curve" smooth="yes"/>
      <point x="158" y="-9"/>
      <point x="178" y="18"/>
      <point x="178" y="46" type="curve" smooth="yes"/>
      <point x="178" y="69"/>
      <point x="165" y="102"/>
      <point x="125" y="102" type="curve" smooth="yes"/>
    </contour>
  </outline>
</glyph>
<glyph name="slash" format="1">
  <advance width="392"/>
  <unicode hex="002F"/>
  <outline>
    <contour>
      <point x="60" y="-56" type="curve"/>
      <point x="110" y="56"/>
      <point x="182" y="220"/>
      <point x="232" y="336" type="curve" smooth="yes"/>
      <point x="276" y="437"/>
      <point x="341" y="585"/>
      <point x="383" y="680" type="curve"/>
      <point x="365" y="687"/>
      <point x="346" y="693"/>
      <point x="328" y="696" type="curve"/>
      <point x="284" y="594"/>
      <point x="229" y="463"/>
      <point x="183" y="356" type="curve" smooth="yes"/>
      <point x="128" y="227"/>
      <point x="71" y="96"/>
      <point x="11" y="-41" type="curve"/>
      <point x="28" y="-47"/>
      <point x="44" y="-52"/>
    </contour>
  </outline>
</glyph>
<glyph name="zero" format="1">
  <advance width="524"/>
  <unicode hex="0030"/>
  <outline>
    <contour>
      <point x="479" y="332" type="line" smooth="yes"/>
      <point x="479" y="465"/>
      <point x="444" y="557"/>
      <point x="404" y="601" type="curve" smooth="yes"/>
      <point x="369" y="638"/>
      <point x="328" y="655"/>
      <point x="274" y="655" type="curve" smooth="yes"/>
      <point x="221" y="655"/>
      <point x="175" y="636"/>
      <point x="139" y="601" type="curve" smooth="yes"/>
      <point x="83" y="545"/>
      <point x="46" y="448"/>
      <point x="46" y="302" type="curve" smooth="yes"/>
      <point x="46" y="171"/>
      <point x="78" y="89"/>
      <point x="128" y="39" type="curve" smooth="yes"/>
      <point x="160" y="7"/>
      <point x="200" y="-10"/>
      <point x="255" y="-10" type="curve" smooth="yes"/>
      <point x="309" y="-10"/>
      <point x="355" y="7"/>
      <point x="390" y="42" type="curve" smooth="yes"/>
      <point x="445" y="100"/>
      <point x="479" y="193"/>
      <point x="479" y="331" type="curve" smooth="yes"/>
    </contour>
    <contour>
      <point x="266" y="609" type="line" smooth="yes"/>
      <point x="303" y="609"/>
      <point x="329" y="596"/>
      <point x="352" y="563" type="curve" smooth="yes"/>
      <point x="376" y="529"/>
      <point x="398" y="445"/>
      <point x="398" y="315" type="curve" smooth="yes"/>
      <point x="398" y="200"/>
      <point x="379" y="118"/>
      <point x="341" y="73" type="curve" smooth="yes"/>
      <point x="321" y="49"/>
      <point x="294" y="35"/>
      <point x="263" y="35" type="curve" smooth="yes"/>
      <point x="224" y="35"/>
      <point x="196" y="51"/>
      <point x="173" y="83" type="curve" smooth="yes"/>
      <point x="146" y="122"/>
      <point x="127" y="206"/>
      <point x="127" y="307" type="curve" smooth="yes"/>
      <point x="127" y="435"/>
      <point x="152" y="529"/>
      <point x="185" y="569" type="curve" smooth="yes"/>
      <point x="205" y="594"/>
      <point x="229" y="609"/>
      <point x="265" y="609" type="curve" smooth="yes"/>
    </contour>
  </outline>
</glyph>
<glyph name="one" format="1">
  <advance width="524"/>
  <unicode hex="0031"/>
  <outline>
    <contour>
      <point x="312" y="48" type="line"/>
      <point x="313" y="247"/>
      <point x="315" y="458"/>
      <point x="315" y="653" type="curve" smooth="yes"/>
      <point x="315" y="656"/>
      <point x="314" y="657"/>
      <point x="312" y="657" type="curve" smooth="yes"/>
      <point x="306" y="657"/>
      <point x="172" y="595"/>
      <point x="54" y="552" type="curve"/>
      <point x="56" y="538"/>
      <point x="61" y="523"/>
      <point x="64" y="509" type="curve"/>
      <point x="132" y="528"/>
      <point x="184" y="542"/>
      <point x="237" y="557" type="curve"/>
      <point x="237" y="395"/>
      <point x="237" y="220"/>
      <point x="236" y="53" type="curve"/>
      <point x="236" y="51"/>
      <point x="235" y="48"/>
      <point x="232" y="48" type="curve" smooth="yes"/>
      <point x="69" y="45" type="line"/>
      <point x="68" y="31"/>
      <point x="68" y="15"/>
      <point x="68" y="0" type="curve"/>
      <point x="140" y="0"/>
      <point x="207" y="1"/>
      <point x="272" y="1" type="curve" smooth="yes"/>
      <point x="332" y="1"/>
      <point x="402" y="0"/>
      <point x="467" y="0" type="curve"/>
      <point x="468" y="15"/>
      <point x="468" y="31"/>
      <point x="468" y="45" type="curve"/>
    </contour>
  </outline>
</glyph>
<glyph name="two" format="1">
  <advance width="524"/>
  <unicode hex="0032"/>
  <outline>
    <contour>
      <point x="456" y="473" type="line" smooth="yes"/>
      <point x="456" y="533"/>
      <point x="431" y="583"/>
      <point x="394" y="613" type="curve" smooth="yes"/>
      <point x="360" y="640"/>
      <point x="313" y="655"/>
      <point x="247" y="655" type="curve" smooth="yes"/>
      <point x="176" y="655"/>
      <point x="109" y="634"/>
      <point x="73" y="614" type="curve"/>
      <point x="69" y="568"/>
      <point x="65" y="518"/>
      <point x="61" y="471" type="curve"/>
      <point x="78" y="469"/>
      <point x="97" y="467"/>
      <point x="114" y="466" type="curve"/>
      <point x="135" y="563" type="line" smooth="yes"/>
      <point x="136" y="569"/>
      <point x="137" y="571"/>
      <point x="140" y="574" type="curve"/>
      <point x="161" y="592"/>
      <point x="198" y="605"/>
      <point x="239" y="605" type="curve" smooth="yes"/>
      <point x="276" y="605"/>
      <point x="316" y="592"/>
      <point x="337" y="569" type="curve" smooth="yes"/>
      <point x="362" y="543"/>
      <point x="373" y="508"/>
      <point x="373" y="463" type="curve" smooth="yes"/>
      <point x="373" y="355"/>
      <point x="283" y="258"/>
      <point x="218" y="195" type="curve" smooth="yes"/>
      <point x="165" y="143"/>
      <point x="117" y="102"/>
      <point x="43" y="41" type="curve"/>
      <point x="47" y="28"/>
      <point x="52" y="13"/>
      <point x="57" y="0" type="curve"/>
      <point x="88" y="0"/>
      <point x="142" y="0"/>
      <point x="200" y="0" type="curve" smooth="yes"/>
      <point x="276" y="0"/>
      <point x="428" y="-1"/>
      <point x="467" y="-1" type="curve"/>
      <point x="469" y="17"/>
      <point x="471" y="40"/>
      <point x="471" y="59" type="curve"/>
      <point x="468" y="60" type="line"/>
      <point x="380" y="58"/>
      <point x="212" y="57"/>
      <point x="156" y="57" type="curve"/>
      <point x="155" y="61" type="line"/>
      <point x="190" y="90"/>
      <point x="229" y="124"/>
      <point x="273" y="167" type="curve" smooth="yes"/>
      <point x="332" y="222"/>
      <point x="456" y="342"/>
      <point x="456" y="472" type="curve" smooth="yes"/>
    </contour>
  </outline>
</glyph>
<glyph name="three" format="1">
  <advance width="524"/>
  <unicode hex="0033"/>
  <outline>
    <contour>
      <point x="135" y="570" type="line" smooth="yes"/>
      <point x="136" y="575"/>
      <point x="139" y="579"/>
      <point x="141" y="581" type="curve"/>
      <point x="165" y="597"/>
      <point x="199" y="606"/>
      <point x="235" y="606" type="curve" smooth="yes"/>
      <point x="274" y="606"/>
      <point x="311" y="599"/>
      <point x="336" y="575" type="curve" smooth="yes"/>
      <point x="359" y="554"/>
      <point x="367" y="526"/>
      <point x="367" y="497" type="curve" smooth="yes"/>
      <point x="367" y="418"/>
      <point x="295" y="357"/>
      <point x="146" y="360" type="curve"/>
      <point x="145" y="344"/>
      <point x="146" y="325"/>
      <point x="147" y="309" type="curve"/>
      <point x="169" y="309"/>
      <point x="206" y="309"/>
      <point x="217" y="309" type="curve" smooth="yes"/>
      <point x="309" y="309"/>
      <point x="383" y="261"/>
      <point x="383" y="180" type="curve" smooth="yes"/>
      <point x="383" y="134"/>
      <point x="364" y="100"/>
      <point x="336" y="77" type="curve" smooth="yes"/>
      <point x="310" y="55"/>
      <point x="263" y="40"/>
      <point x="212" y="40" type="curve" smooth="yes"/>
      <point x="183" y="40"/>
      <point x="153" y="43"/>
      <point x="129" y="54" type="curve"/>
      <point x="127" y="56"/>
      <point x="123" y="59"/>
      <point x="121" y="65" type="curve"/>
      <point x="96" y="156" type="line"/>
      <point x="79" y="154"/>
      <point x="60" y="149"/>
      <point x="43" y="145" type="curve"/>
      <point x="49" y="100"/>
      <point x="56" y="52"/>
      <point x="64" y="5" type="curve"/>
      <point x="100" y="-5"/>
      <point x="153" y="-10"/>
      <point x="195" y="-10" type="curve" smooth="yes"/>
      <point x="276" y="-10"/>
      <point x="346" y="8"/>
      <point x="387" y="39" type="curve" smooth="yes"/>
      <point x="431" y="73"/>
      <point x="466" y="119"/>
      <point x="466" y="187" type="curve" smooth="yes"/>
      <point x="466" y="260"/>
      <point x="414" y="328"/>
      <point x="312" y="343" type="curve"/>
      <point x="312" y="349" type="line"/>
      <point x="385" y="370"/>
      <point x="448" y="426"/>
      <point x="448" y="510" type="curve" smooth="yes"/>
      <point x="448" y="550"/>
      <point x="424" y="593"/>
      <point x="393" y="616" type="curve" smooth="yes"/>
      <point x="352" y="647"/>
      <point x="304" y="655"/>
      <point x="248" y="655" type="curve" smooth="yes"/>
      <point x="174" y="655"/>
      <point x="112" y="637"/>
      <point x="74" y="618" type="curve"/>
      <point x="70" y="573"/>
      <point x="67" y="526"/>
      <point x="64" y="481" type="curve"/>
      <point x="81" y="478"/>
      <point x="101" y="477"/>
      <point x="117" y="475" type="curve"/>
    </contour>
  </outline>
</glyph>
<glyph name="four" format="1">
  <advance width="524"/>
  <unicode hex="0034"/>
  <outline>
    <contour>
      <point x="388" y="46" type="line"/>
      <point x="388" y="88"/>
      <point x="388" y="131"/>
      <point x="389" y="173" type="curve"/>
      <point x="410" y="173"/>
      <point x="481" y="173"/>
      <point x="496" y="173" type="curve"/>
      <point x="498" y="190"/>
      <point x="498" y="210"/>
      <point x="498" y="226" type="curve"/>
      <point x="473" y="225"/>
      <point x="432" y="225"/>
      <point x="389" y="225" type="curve"/>
      <point x="390" y="365"/>
      <point x="391" y="511"/>
      <point x="392" y="647" type="curve"/>
      <point x="371" y="649"/>
      <point x="348" y="649"/>
      <point x="326" y="649" type="curve"/>
      <point x="285" y="597"/>
      <point x="228" y="519"/>
      <point x="161" y="427" type="curve" smooth="yes"/>
      <point x="108" y="354"/>
      <point x="59" y="286"/>
      <point x="20" y="229" type="curve"/>
      <point x="27" y="209"/>
      <point x="36" y="189"/>
      <point x="45" y="171" type="curve"/>
      <point x="64" y="171"/>
      <point x="287" y="171"/>
      <point x="318" y="172" type="curve"/>
      <point x="318" y="132"/>
      <point x="318" y="91"/>
      <point x="318" y="50" type="curve" smooth="yes"/>
      <point x="318" y="49"/>
      <point x="316" y="46"/>
      <point x="313" y="46" type="curve" smooth="yes"/>
      <point x="210" y="43" type="line"/>
      <point x="209" y="29"/>
      <point x="209" y="15"/>
      <point x="209" y="0" type="curve"/>
      <point x="251" y="0"/>
      <point x="300" y="1"/>
      <point x="348" y="1" type="curve" smooth="yes"/>
      <point x="388" y="1"/>
      <point x="433" y="0"/>
      <point x="465" y="0" type="curve"/>
      <point x="466" y="15"/>
      <point x="467" y="30"/>
      <point x="466" y="43" type="curve"/>
    </contour>
    <contour>
      <point x="319" y="555" type="line"/>
      <point x="317" y="225" type="line"/>
      <point x="300" y="225"/>
      <point x="144" y="225"/>
      <point x="95" y="226" type="curve" smooth="yes"/>
      <point x="92" y="226"/>
      <point x="90" y="228"/>
      <point x="93" y="233" type="curve" smooth="yes"/>
      <point x="125" y="281"/>
      <point x="160" y="335"/>
      <point x="197" y="388" type="curve" smooth="yes"/>
      <point x="247" y="459"/>
      <point x="276" y="501"/>
      <point x="314" y="555" type="curve"/>
    </contour>
  </outline>
</glyph>
<glyph name="five" format="1">
  <advance width="524"/>
  <unicode hex="0035"/>
  <outline>
    <contour>
      <point x="462" y="221" type="line" smooth="yes"/>
      <point x="462" y="318"/>
      <point x="391" y="416"/>
      <point x="228" y="416" type="curve" smooth="yes"/>
      <point x="192" y="416"/>
      <point x="168" y="414"/>
      <point x="145" y="411" type="curve"/>
      <point x="153" y="467"/>
      <point x="163" y="526"/>
      <point x="172" y="585" type="curve"/>
      <point x="264" y="585"/>
      <point x="356" y="584"/>
      <point x="446" y="584" type="curve"/>
      <point x="449" y="603"/>
      <point x="451" y="626"/>
      <point x="451" y="646" type="curve"/>
      <point x="396" y="645"/>
      <point x="329" y="645"/>
      <point x="280" y="645" type="curve" smooth="yes"/>
      <point x="241" y="645"/>
      <point x="151" y="645"/>
      <point x="116" y="645" type="curve"/>
      <point x="104" y="552"/>
      <point x="89" y="437"/>
      <point x="80" y="355" type="curve"/>
      <point x="87" y="347" type="line"/>
      <point x="104" y="350"/>
      <point x="150" y="356"/>
      <point x="189" y="356" type="curve" smooth="yes"/>
      <point x="317" y="356"/>
      <point x="384" y="297"/>
      <point x="384" y="197" type="curve" smooth="yes"/>
      <point x="384" y="149"/>
      <point x="365" y="107"/>
      <point x="334" y="81" type="curve" smooth="yes"/>
      <point x="304" y="56"/>
      <point x="255" y="39"/>
      <point x="200" y="39" type="curve" smooth="yes"/>
      <point x="176" y="39"/>
      <point x="152" y="42"/>
      <point x="132" y="51" type="curve"/>
      <point x="129" y="53"/>
      <point x="125" y="56"/>
      <point x="123" y="62" type="curve"/>
      <point x="99" y="152" type="line"/>
      <point x="82" y="149"/>
      <point x="63" y="146"/>
      <point x="46" y="141" type="curve"/>
      <point x="52" y="96"/>
      <point x="60" y="48"/>
      <point x="68" y="3" type="curve"/>
      <point x="102" y="-6"/>
      <point x="145" y="-10"/>
      <point x="186" y="-10" type="curve" smooth="yes"/>
      <point x="270" y="-10"/>
      <point x="333" y="10"/>
      <point x="380" y="45" type="curve" smooth="yes"/>
      <point x="425" y="79"/>
      <point x="462" y="140"/>
      <point x="462" y="220" type="curve" smooth="yes"/>
    </contour>
  </outline>
</glyph>
<glyph name="six" format="1">
  <advance width="524"/>
  <unicode hex="0036"/>
  <outline>
    <contour>
      <point x="127" y="326" type="line"/>
      <point x="133" y="398"/>
      <point x="150" y="474"/>
      <point x="188" y="534" type="curve" smooth="yes"/>
      <point x="213" y="573"/>
      <point x="258" y="606"/>
      <point x="313" y="606" type="curve" smooth="yes"/>
      <point x="339" y="606"/>
      <point x="354" y="601"/>
      <point x="367" y="595" type="curve"/>
      <point x="370" y="593"/>
      <point x="371" y="589"/>
      <point x="372" y="584" type="curve" smooth="yes"/>
      <point x="391" y="501" type="line"/>
      <point x="410" y="504"/>
      <point x="428" y="507"/>
      <point x="444" y="511" type="curve"/>
      <point x="440" y="554"/>
      <point x="435" y="598"/>
      <point x="429" y="640" type="curve"/>
      <point x="401" y="652"/>
      <point x="371" y="655"/>
      <point x="335" y="655" type="curve" smooth="yes"/>
      <point x="258" y="655"/>
      <point x="189" y="628"/>
      <point x="137" y="564" type="curve" smooth="yes"/>
      <point x="97" y="514"/>
      <point x="50" y="425"/>
      <point x="50" y="271" type="curve" smooth="yes"/>
      <point x="50" y="148"/>
      <point x="86" y="84"/>
      <point x="128" y="42" type="curve" smooth="yes"/>
      <point x="160" y="10"/>
      <point x="211" y="-10"/>
      <point x="264" y="-10" type="curve" smooth="yes"/>
      <point x="307" y="-10"/>
      <point x="356" y="-1"/>
      <point x="396" y="31" type="curve" smooth="yes"/>
      <point x="451" y="75"/>
      <point x="478" y="138"/>
      <point x="478" y="206" type="curve" smooth="yes"/>
      <point x="478" y="266"/>
      <point x="450" y="321"/>
      <point x="417" y="352" type="curve" smooth="yes"/>
      <point x="394" y="375"/>
      <point x="354" y="396"/>
      <point x="296" y="396" type="curve" smooth="yes"/>
      <point x="240" y="396"/>
      <point x="180" y="370"/>
      <point x="132" y="326" type="curve"/>
    </contour>
    <contour>
      <point x="274" y="35" type="line" smooth="yes"/>
      <point x="225" y="35"/>
      <point x="193" y="61"/>
      <point x="178" y="82" type="curve"/>
      <point x="154" y="112"/>
      <point x="130" y="165"/>
      <point x="132" y="257" type="curve"/>
      <point x="166" y="314"/>
      <point x="231" y="341"/>
      <point x="275" y="341" type="curve" smooth="yes"/>
      <point x="309" y="341"/>
      <point x="341" y="329"/>
      <point x="362" y="305" type="curve" smooth="yes"/>
      <point x="378" y="288"/>
      <point x="400" y="249"/>
      <point x="400" y="190" type="curve" smooth="yes"/>
      <point x="400" y="151"/>
      <point x="390" y="104"/>
      <point x="360" y="71" type="curve" smooth="yes"/>
      <point x="338" y="48"/>
      <point x="305" y="35"/>
      <point x="275" y="35" type="curve" smooth="yes"/>
    </contour>
  </outline>
</glyph>
<glyph name="seven" format="1">
  <advance width="524"/>
  <unicode hex="0037"/>
  <outline>
    <contour>
      <point x="420" y="578" type="line"/>
      <point x="311" y="369"/>
      <point x="243" y="235"/>
      <point x="203" y="126" type="curve" smooth="yes"/>
      <point x="187" y="83"/>
      <point x="183" y="45"/>
      <point x="183" y="-2" type="curve"/>
      <point x="202" y="-2"/>
      <point x="241" y="-1"/>
      <point x="262" y="1" type="curve"/>
      <point x="263" y="35"/>
      <point x="267" y="86"/>
      <point x="278" y="120" type="curve" smooth="yes"/>
      <point x="313" y="233"/>
      <point x="396" y="417"/>
      <point x="498" y="588" type="curve"/>
      <point x="493" y="606"/>
      <point x="486" y="628"/>
      <point x="478" y="644" type="curve"/>
      <point x="160" y="644" type="line" smooth="yes"/>
      <point x="125" y="644"/>
      <point x="87" y="645"/>
      <point x="73" y="645" type="curve"/>
      <point x="65" y="594"/>
      <point x="57" y="542"/>
      <point x="49" y="491" type="curve"/>
      <point x="66" y="487"/>
      <point x="85" y="485"/>
      <point x="102" y="482" type="curve"/>
      <point x="123" y="561" type="line"/>
      <point x="127" y="572"/>
      <point x="134" y="582"/>
      <point x="151" y="583" type="curve" smooth="yes"/>
      <point x="180" y="585"/>
      <point x="261" y="584"/>
      <point x="417" y="583" type="curve"/>
    </contour>
  </outline>
</glyph>
<glyph name="eight" format="1">
  <advance width="524"/>
  <unicode hex="0038"/>
  <outline>
    <contour>
      <point x="346" y="348" type="line"/>
      <point x="404" y="378"/>
      <point x="460" y="431"/>
      <point x="460" y="510" type="curve" smooth="yes"/>
      <point x="460" y="552"/>
      <point x="438" y="590"/>
      <point x="412" y="613" type="curve" smooth="yes"/>
      <point x="381" y="640"/>
      <point x="335" y="655"/>
      <point x="280" y="655" type="curve" smooth="yes"/>
      <point x="225" y="655"/>
      <point x="173" y="639"/>
      <point x="136" y="611" type="curve" smooth="yes"/>
      <point x="104" y="587"/>
      <point x="73" y="542"/>
      <point x="73" y="491" type="curve" smooth="yes"/>
      <point x="73" y="418"/>
      <point x="119" y="373"/>
      <point x="178" y="345" type="curve"/>
      <point x="178" y="340" type="line"/>
      <point x="92" y="299"/>
      <point x="38" y="236"/>
      <point x="38" y="159" type="curve" smooth="yes"/>
      <point x="38" y="97"/>
      <point x="67" y="55"/>
      <point x="104" y="29" type="curve" smooth="yes"/>
      <point x="138" y="6"/>
      <point x="188" y="-10"/>
      <point x="252" y="-10" type="curve" smooth="yes"/>
      <point x="313" y="-10"/>
      <point x="366" y="3"/>
      <point x="407" y="31" type="curve" smooth="yes"/>
      <point x="455" y="64"/>
      <point x="486" y="113"/>
      <point x="486" y="177" type="curve" smooth="yes"/>
      <point x="486" y="249"/>
      <point x="439" y="310"/>
      <point x="346" y="344" type="curve"/>
    </contour>
    <contour>
      <point x="147" y="500" type="line" smooth="yes"/>
      <point x="147" y="531"/>
      <point x="161" y="560"/>
      <point x="182" y="579" type="curve" smooth="yes"/>
      <point x="208" y="601"/>
      <point x="237" y="609"/>
      <point x="274" y="609" type="curve" smooth="yes"/>
      <point x="309" y="609"/>
      <point x="338" y="598"/>
      <point x="360" y="576" type="curve" smooth="yes"/>
      <point x="378" y="557"/>
      <point x="387" y="529"/>
      <point x="387" y="500" type="curve" smooth="yes"/>
      <point x="387" y="439"/>
      <point x="355" y="399"/>
      <point x="290" y="367" type="curve"/>
      <point x="183" y="403"/>
      <point x="147" y="433"/>
      <point x="147" y="499" type="curve" smooth="yes"/>
    </contour>
    <contour>
      <point x="409" y="163" type="line" smooth="yes"/>
      <point x="409" y="118"/>
      <point x="389" y="85"/>
      <point x="361" y="64" type="curve" smooth="yes"/>
      <point x="335" y="46"/>
      <point x="303" y="36"/>
      <point x="258" y="36" type="curve" smooth="yes"/>
      <point x="218" y="36"/>
      <point x="181" y="49"/>
      <point x="156" y="71" type="curve" smooth="yes"/>
      <point x="129" y="94"/>
      <point x="116" y="126"/>
      <point x="116" y="164" type="curve" smooth="yes"/>
      <point x="116" y="237"/>
      <point x="167" y="291"/>
      <point x="231" y="319" type="curve"/>
      <point x="358" y="279"/>
      <point x="409" y="245"/>
      <point x="409" y="164" type="curve" smooth="yes"/>
    </contour>
  </outline>
</glyph>
<glyph name="nine" format="1">
  <advance width="524"/>
  <unicode hex="0039"/>
  <outline>
    <contour>
      <point x="397" y="316" type="line"/>
      <point x="395" y="251"/>
      <point x="381" y="165"/>
      <point x="340" y="103" type="curve" smooth="yes"/>
      <point x="317" y="69"/>
      <point x="271" y="36"/>
      <point x="214" y="36" type="curve" smooth="yes"/>
      <point x="197" y="36"/>
      <point x="169" y="39"/>
      <point x="157" y="46" type="curve"/>
      <point x="154" y="48"/>
      <point x="150" y="52"/>
      <point x="148" y="57" type="curve"/>
      <point x="124" y="137" type="line"/>
      <point x="107" y="135"/>
      <point x="89" y="131"/>
      <point x="72" y="126" type="curve"/>
      <point x="79" y="84"/>
      <point x="87" y="42"/>
      <point x="95" y="0" type="curve"/>
      <point x="127" y="-7"/>
      <point x="164" y="-10"/>
      <point x="193" y="-10" type="curve" smooth="yes"/>
      <point x="280" y="-10"/>
      <point x="343" y="18"/>
      <point x="391" y="76" type="curve" smooth="yes"/>
      <point x="436" y="130"/>
      <point x="475" y="226"/>
      <point x="475" y="364" type="curve" smooth="yes"/>
      <point x="475" y="485"/>
      <point x="441" y="557"/>
      <point x="401" y="600" type="curve" smooth="yes"/>
      <point x="369" y="635"/>
      <point x="322" y="655"/>
      <point x="264" y="655" type="curve" smooth="yes"/>
      <point x="214" y="655"/>
      <point x="165" y="640"/>
      <point x="128" y="609" type="curve" smooth="yes"/>
      <point x="77" y="568"/>
      <point x="48" y="509"/>
      <point x="48" y="439" type="curve" smooth="yes"/>
      <point x="48" y="381"/>
      <point x="74" y="332"/>
      <point x="107" y="301" type="curve" smooth="yes"/>
      <point x="133" y="277"/>
      <point x="179" y="254"/>
      <point x="234" y="254" type="curve" smooth="yes"/>
      <point x="297" y="254"/>
      <point x="344" y="276"/>
      <point x="392" y="316" type="curve"/>
    </contour>
    <contour>
      <point x="256" y="610" type="line" smooth="yes"/>
      <point x="303" y="610"/>
      <point x="332" y="586"/>
      <point x="350" y="562" type="curve" smooth="yes"/>
      <point x="372" y="531"/>
      <point x="395" y="459"/>
      <point x="393" y="378" type="curve"/>
      <point x="359" y="333"/>
      <point x="305" y="305"/>
      <point x="253" y="305" type="curve" smooth="yes"/>
      <point x="220" y="305"/>
      <point x="184" y="317"/>
      <point x="161" y="342" type="curve" smooth="yes"/>
      <point x="140" y="367"/>
      <point x="127" y="400"/>
      <point x="127" y="451" type="curve" smooth="yes"/>
      <point x="127" y="496"/>
      <point x="141" y="547"/>
      <point x="170" y="575" type="curve" smooth="yes"/>
      <point x="193" y="598"/>
      <point x="223" y="610"/>
      <point x="255" y="610" type="curve" smooth="yes"/>
    </contour>
  </outline>
</glyph>
<glyph name="colon" format="1">
  <advance width="245"/>
  <unicode hex="003A"/>
  <outline>
    <contour>
      <point x="125" y="418" type="line" smooth="yes"/>
      <point x="87" y="418"/>
      <point x="68" y="387"/>
      <point x="68" y="361" type="curve" smooth="yes"/>
      <point x="68" y="330"/>
      <point x="91" y="307"/>
      <point x="125" y="307" type="curve" smooth="yes"/>
      <point x="158" y="307"/>
      <point x="179" y="334"/>
      <point x="179" y="362" type="curve" smooth="yes"/>
      <point x="179" y="385"/>
      <point x="164" y="418"/>
      <point x="126" y="418" type="curve" smooth="yes"/>
    </contour>
    <contour>
      <point x="125" y="102" type="line" smooth="yes"/>
      <point x="86" y="102"/>
      <point x="68" y="71"/>
      <point x="68" y="45" type="curve" smooth="yes"/>
      <point x="68" y="14"/>
      <point x="91" y="-9"/>
      <point x="124" y="-9" type="curve" smooth="yes"/>
      <point x="158" y="-9"/>
      <point x="178" y="18"/>
      <point x="178" y="47" type="curve" smooth="yes"/>
      <point x="178" y="69"/>
      <point x="164" y="102"/>
      <point x="126" y="102" type="curve" smooth="yes"/>
    </contour>
  </outline>
</glyph>
<glyph name="semicolon" format="1">
  <advance width="245"/>
  <unicode hex="003B"/>
  <outline>
    <contour>
      <point x="125" y="418" type="line" smooth="yes"/>
      <point x="87" y="418"/>
      <point x="68" y="387"/>
      <point x="68" y="361" type="curve" smooth="yes"/>
      <point x="68" y="330"/>
      <point x="91" y="307"/>
      <point x="124" y="307" type="curve" smooth="yes"/>
      <point x="158" y="307"/>
      <point x="178" y="333"/>
      <point x="178" y="362" type="curve" smooth="yes"/>
      <point x="178" y="385"/>
      <point x="164" y="418"/>
      <point x="126" y="418" type="curve" smooth="yes"/>
    </contour>
    <contour>
      <point x="111" y="99" type="line" smooth="yes"/>
      <point x="79" y="99"/>
      <point x="54" y="67"/>
      <point x="60" y="25" type="curve"/>
      <point x="81" y="19"/>
      <point x="110" y="7"/>
      <point x="110" y="-23" type="curve" smooth="yes"/>
      <point x="110" y="-53"/>
      <point x="91" y="-85"/>
      <point x="42" y="-116" type="curve"/>
      <point x="51" y="-127"/>
      <point x="61" y="-139"/>
      <point x="71" y="-150" type="curve"/>
      <point x="131" y="-116"/>
      <point x="183" y="-59"/>
      <point x="183" y="15" type="curve" smooth="yes"/>
      <point x="183" y="59"/>
      <point x="147" y="99"/>
      <point x="112" y="99" type="curve" smooth="yes"/>
    </contour>
  </outline>
</glyph>
<glyph name="less" format="1">
  <advance width="524"/>
  <unicode hex="003C"/>
  <outline>
    <contour>
      <point x="173" y="238" type="curve"/>
      <point x="250" y="299"/>
      <point x="323" y="355"/>
      <point x="406" y="419" type="curve"/>
      <point x="398" y="434"/>
      <point x="387" y="449"/>
      <point x="376" y="461" type="curve"/>
      <point x="288" y="396"/>
      <point x="193" y="326"/>
      <point x="103" y="260" type="curve"/>
      <point x="103" y="246"/>
      <point x="103" y="228"/>
      <point x="104" y="213" type="curve"/>
      <point x="195" y="143"/>
      <point x="281" y="75"/>
      <point x="375" y="3" type="curve"/>
      <point x="386" y="15"/>
      <point x="397" y="30"/>
      <point x="406" y="44" type="curve"/>
      <point x="326" y="110"/>
      <point x="245" y="176"/>
    </contour>
  </outline>
</glyph>
<glyph name="equal" format="1">
  <advance width="524"/>
  <unicode hex="003D"/>
  <outline>
    <contour>
      <point x="63" y="283" type="curve"/>
      <point x="185" y="283"/>
      <point x="344" y="283"/>
      <point x="461" y="283" type="curve"/>
      <point x="463" y="300"/>
      <point x="464" y="322"/>
      <point x="463" y="339" type="curve"/>
      <point x="337" y="338"/>
      <point x="187" y="336"/>
      <point x="65" y="336" type="curve"/>
      <point x="64" y="319"/>
      <point x="63" y="301"/>
    </contour>
    <contour>
      <point x="62" y="132" type="curve"/>
      <point x="188" y="133"/>
      <point x="339" y="135"/>
      <point x="461" y="135" type="curve"/>
      <point x="462" y="153"/>
      <point x="463" y="172"/>
      <point x="463" y="188" type="curve"/>
      <point x="340" y="188"/>
      <point x="181" y="188"/>
      <point x="65" y="188" type="curve"/>
      <point x="63" y="172"/>
      <point x="62" y="150"/>
    </contour>
  </outline>
</glyph>
<glyph name="greater" format="1">
  <advance width="524"/>
  <unicode hex="003E"/>
  <outline>
    <contour>
      <point x="332" y="235" type="curve"/>
      <point x="258" y="175"/>
      <point x="179" y="112"/>
      <point x="97" y="48" type="curve"/>
      <point x="107" y="34"/>
      <point x="118" y="19"/>
      <point x="128" y="7" type="curve"/>
      <point x="222" y="77"/>
      <point x="311" y="145"/>
      <point x="401" y="213" type="curve"/>
      <point x="401" y="228"/>
      <point x="401" y="246"/>
      <point x="401" y="260" type="curve"/>
      <point x="311" y="328"/>
      <point x="218" y="398"/>
      <point x="128" y="465" type="curve"/>
      <point x="118" y="454"/>
      <point x="107" y="439"/>
      <point x="98" y="424" type="curve"/>
      <point x="181" y="358"/>
      <point x="255" y="298"/>
    </contour>
  </outline>
</glyph>
<glyph name="question" format="1">
  <advance width="426"/>
  <unicode hex="003F"/>
  <outline>
    <contour>
      <point x="385" y="505" type="line" smooth="yes"/>
      <point x="385" y="579"/>
      <point x="331" y="660"/>
      <point x="205" y="660" type="curve" smooth="yes"/>
      <point x="144" y="660"/>
      <point x="84" y="645"/>
      <point x="50" y="628" type="curve"/>
      <point x="46" y="585"/>
      <point x="42" y="538"/>
      <point x="38" y="496" type="curve"/>
      <point x="56" y="493"/>
      <point x="75" y="491"/>
      <point x="94" y="489" type="curve"/>
      <point x="112" y="575" type="line"/>
      <point x="114" y="581"/>
      <point x="115" y="584"/>
      <point x="118" y="587" type="curve"/>
      <point x="137" y="601"/>
      <point x="164" y="608"/>
      <point x="191" y="608" type="curve" smooth="yes"/>
      <point x="258" y="608"/>
      <point x="298" y="564"/>
      <point x="298" y="499" type="curve" smooth="yes"/>
      <point x="298" y="413"/>
      <point x="240" y="363"/>
      <point x="126" y="283" type="curve"/>
      <point x="126" y="247"/>
      <point x="155" y="180"/>
      <point x="172" y="158" type="curve"/>
      <point x="192" y="162"/>
      <point x="210" y="168"/>
      <point x="223" y="175" type="curve"/>
      <point x="213" y="204"/>
      <point x="203" y="235"/>
      <point x="203" y="255" type="curve" smooth="yes"/>
      <point x="203" y="268"/>
      <point x="211" y="276"/>
      <point x="230" y="290" type="curve" smooth="yes"/>
      <point x="329" y="358"/>
      <point x="385" y="422"/>
      <point x="385" y="504" type="curve" smooth="yes"/>
    </contour>
    <contour>
      <point x="196" y="93" type="line" smooth="yes"/>
      <point x="162" y="93"/>
      <point x="142" y="65"/>
      <point x="142" y="40" type="curve" smooth="yes"/>
      <point x="142" y="12"/>
      <point x="166" y="-9"/>
      <point x="197" y="-9" type="curve" smooth="yes"/>
      <point x="226" y="-9"/>
      <point x="249" y="15"/>
      <point x="249" y="40" type="curve" smooth="yes"/>
      <point x="249" y="64"/>
      <point x="230" y="93"/>
      <point x="197" y="93" type="curve" smooth="yes"/>
    </contour>
  </outline>
</glyph>
<glyph name="at" format="1">
  <advance width="623"/>
  <unicode hex="0040"/>
  <outline>
    <contour>
      <point x="394" y="343" type="line"/>
      <point x="376" y="360"/>
      <point x="347" y="371"/>
      <point x="320" y="371" type="curve" smooth="yes"/>
      <point x="251" y="371"/>
      <point x="201" y="297"/>
      <point x="183" y="242" type="curve" smooth="yes"/>
      <point x="174" y="213"/>
      <point x="168" y="182"/>
      <point x="168" y="157" type="curve" smooth="yes"/>
      <point x="168" y="148"/>
      <point x="168" y="142"/>
      <point x="170" y="137" type="curve"/>
      <point x="180" y="117"/>
      <point x="216" y="99"/>
      <point x="231" y="99" type="curve" smooth="yes"/>
      <point x="267" y="99"/>
      <point x="318" y="136"/>
      <point x="351" y="168" type="curve"/>
      <point x="357" y="166" type="line"/>
      <point x="351" y="146"/>
      <point x="347" y="128"/>
      <point x="346" y="116" type="curve"/>
      <point x="353" y="106"/>
      <point x="371" y="98"/>
      <point x="378" y="98" type="curve" smooth="yes"/>
      <point x="445" y="98"/>
      <point x="481" y="114"/>
      <point x="514" y="141" type="curve" smooth="yes"/>
      <point x="546" y="169"/>
      <point x="578" y="220"/>
      <point x="578" y="295" type="curve" smooth="yes"/>
      <point x="578" y="418"/>
      <point x="482" y="506"/>
      <point x="348" y="506" type="curve" smooth="yes"/>
      <point x="186" y="506"/>
      <point x="45" y="382"/>
      <point x="45" y="192" type="curve" smooth="yes"/>
      <point x="45" y="35"/>
      <point x="159" y="-41"/>
      <point x="274" y="-41" type="curve" smooth="yes"/>
      <point x="346" y="-41"/>
      <point x="393" y="-25"/>
      <point x="430" y="-2" type="curve"/>
      <point x="427" y="8"/>
      <point x="421" y="20"/>
      <point x="413" y="30" type="curve"/>
      <point x="382" y="9"/>
      <point x="339" y="-5"/>
      <point x="290" y="-5" type="curve" smooth="yes"/>
      <point x="196" y="-5"/>
      <point x="95" y="51"/>
      <point x="95" y="195" type="curve" smooth="yes"/>
      <point x="95" y="361"/>
      <point x="208" y="471"/>
      <point x="335" y="471" type="curve" smooth="yes"/>
      <point x="470" y="471"/>
      <point x="530" y="380"/>
      <point x="530" y="284" type="curve" smooth="yes"/>
      <point x="530" y="227"/>
      <point x="507" y="189"/>
      <point x="484" y="167" type="curve" smooth="yes"/>
      <point x="469" y="152"/>
      <point x="440" y="137"/>
      <point x="414" y="137" type="curve" smooth="yes"/>
      <point x="410" y="137"/>
      <point x="405" y="140"/>
      <point x="406" y="144" type="curve" smooth="yes"/>
      <point x="421" y="207"/>
      <point x="445" y="306"/>
      <point x="460" y="362" type="curve"/>
      <point x="444" y="366"/>
      <point x="430" y="370"/>
      <point x="415" y="372" type="curve"/>
      <point x="398" y="343" type="line"/>
    </contour>
    <contour>
      <point x="232" y="169" type="line" smooth="yes"/>
      <point x="232" y="196"/>
      <point x="238" y="225"/>
      <point x="248" y="253" type="curve" smooth="yes"/>
      <point x="263" y="295"/>
      <point x="290" y="331"/>
      <point x="324" y="331" type="curve" smooth="yes"/>
      <point x="348" y="331"/>
      <point x="372" y="321"/>
      <point x="385" y="303" type="curve"/>
      <point x="380" y="283"/>
      <point x="371" y="248"/>
      <point x="367" y="236" type="curve"/>
      <point x="353" y="204"/>
      <point x="283" y="146"/>
      <point x="254" y="146" type="curve" smooth="yes"/>
      <point x="242" y="146"/>
      <point x="232" y="152"/>
      <point x="232" y="168" type="curve" smooth="yes"/>
    </contour>
  </outline>
</glyph>
<glyph name="B" format="1">
  <advance width="574"/>
  <unicode hex="0042"/>
  <outline>
    <contour>
      <point x="48" y="46" type="line"/>
      <point x="47" y="31"/>
      <point x="47" y="15"/>
      <point x="47" y="0" type="curve"/>
      <point x="85" y="0"/>
      <point x="132" y="0"/>
      <point x="164" y="0" type="curve" smooth="yes"/>
      <point x="183" y="0"/>
      <point x="261" y="-1"/>
      <point x="286" y="-1" type="curve" smooth="yes"/>
      <point x="437" y="-1"/>
      <point x="535" y="76"/>
      <point x="535" y="188" type="curve" smooth="yes"/>
      <point x="535" y="268"/>
      <point x="465" y="335"/>
      <point x="375" y="346" type="curve"/>
      <point x="375" y="352" type="line"/>
      <point x="441" y="375"/>
      <point x="494" y="429"/>
      <point x="494" y="503" type="curve" smooth="yes"/>
      <point x="494" y="555"/>
      <point x="461" y="603"/>
      <point x="416" y="625" type="curve" smooth="yes"/>
      <point x="368" y="646"/>
      <point x="310" y="651"/>
      <point x="224" y="651" type="curve" smooth="yes"/>
      <point x="174" y="651"/>
      <point x="93" y="650"/>
      <point x="49" y="650" type="curve"/>
      <point x="49" y="635"/>
      <point x="48" y="620"/>
      <point x="48" y="604" type="curve"/>
      <point x="123" y="602" type="line"/>
      <point x="123" y="53" type="line" smooth="yes"/>
      <point x="123" y="49"/>
      <point x="121" y="48"/>
      <point x="118" y="48" type="curve" smooth="yes"/>
    </contour>
    <contour>
      <point x="202" y="603" type="line"/>
      <point x="210" y="605"/>
      <point x="228" y="606"/>
      <point x="260" y="606" type="curve" smooth="yes"/>
      <point x="366" y="606"/>
      <point x="416" y="555"/>
      <point x="416" y="486" type="curve" smooth="yes"/>
      <point x="416" y="409"/>
      <point x="338" y="360"/>
      <point x="249" y="360" type="curve" smooth="yes"/>
      <point x="224" y="360"/>
      <point x="207" y="361"/>
      <point x="201" y="362" type="curve"/>
    </contour>
    <contour>
      <point x="201" y="313" type="line"/>
      <point x="208" y="315"/>
      <point x="227" y="315"/>
      <point x="261" y="315" type="curve" smooth="yes"/>
      <point x="405" y="315"/>
      <point x="452" y="241"/>
      <point x="452" y="180" type="curve" smooth="yes"/>
      <point x="452" y="82"/>
      <point x="365" y="45"/>
      <point x="285" y="45" type="curve" smooth="yes"/>
      <point x="219" y="45"/>
      <point x="199" y="52"/>
      <point x="200" y="82" type="curve" smooth="yes"/>
    </contour>
  </outline>
</glyph>
<glyph name="D" format="1">
  <advance width="691"/>
  <unicode hex="0044"/>
  <outline>
    <contour>
      <point x="49" y="45" type="line"/>
      <point x="49" y="31"/>
      <point x="48" y="14"/>
      <point x="48" y="-1" type="curve"/>
      <point x="86" y="-1"/>
      <point x="130" y="0"/>
      <point x="164" y="0" type="curve" smooth="yes"/>
      <point x="188" y="0"/>
      <point x="243" y="-1"/>
      <point x="283" y="-1" type="curve" smooth="yes"/>
      <point x="382" y="-1"/>
      <point x="457" y="21"/>
      <point x="516" y="64" type="curve" smooth="yes"/>
      <point x="598" y="125"/>
      <point x="641" y="230"/>
      <point x="641" y="345" type="curve" smooth="yes"/>
      <point x="641" y="455"/>
      <point x="585" y="550"/>
      <point x="502" y="599" type="curve" smooth="yes"/>
      <point x="441" y="635"/>
      <point x="376" y="651"/>
      <point x="254" y="651" type="curve" smooth="yes"/>
      <point x="177" y="651"/>
      <point x="104" y="650"/>
      <point x="50" y="649" type="curve"/>
      <point x="49" y="635"/>
      <point x="49" y="619"/>
      <point x="49" y="603" type="curve"/>
      <point x="123" y="601" type="line"/>
      <point x="123" y="52" type="line" smooth="yes"/>
      <point x="123" y="50"/>
      <point x="121" y="48"/>
      <point x="119" y="48" type="curve" smooth="yes"/>
    </contour>
    <contour>
      <point x="203" y="602" type="line"/>
      <point x="213" y="605"/>
      <point x="236" y="606"/>
      <point x="264" y="606" type="curve" smooth="yes"/>
      <point x="356" y="606"/>
      <point x="422" y="583"/>
      <point x="467" y="544" type="curve" smooth="yes"/>
      <point x="530" y="488"/>
      <point x="557" y="427"/>
      <point x="557" y="315" type="curve" smooth="yes"/>
      <point x="557" y="232"/>
      <point x="525" y="152"/>
      <point x="478" y="109" type="curve" smooth="yes"/>
      <point x="434" y="69"/>
      <point x="367" y="45"/>
      <point x="278" y="45" type="curve" smooth="yes"/>
      <point x="210" y="45"/>
      <point x="201" y="54"/>
      <point x="201" y="81" type="curve" smooth="yes"/>
    </contour>
  </outline>
</glyph>
<glyph name="E" format="1">
  <advance width="555"/>
  <unicode hex="0045"/>
  <outline>
    <contour>
      <point x="51" y="46" type="line"/>
      <point x="50" y="31"/>
      <point x="50" y="15"/>
      <point x="50" y="0" type="curve"/>
      <point x="86" y="0"/>
      <point x="126" y="0"/>
      <point x="168" y="0" type="curve" smooth="yes"/>
      <point x="303" y="0"/>
      <point x="433" y="0"/>
      <point x="479" y="-1" type="curve"/>
      <point x="491" y="51"/>
      <point x="503" y="104"/>
      <point x="514" y="156" type="curve"/>
      <point x="499" y="159"/>
      <point x="480" y="163"/>
      <point x="462" y="166" type="curve"/>
      <point x="430" y="75" type="line"/>
      <point x="427" y="64"/>
      <point x="422" y="58"/>
      <point x="412" y="55" type="curve"/>
      <point x="395" y="51"/>
      <point x="338" y="48"/>
      <point x="257" y="48" type="curve" smooth="yes"/>
      <point x="203" y="48"/>
      <point x="201" y="51"/>
      <point x="201" y="68" type="curve" smooth="yes"/>
      <point x="202" y="308" type="line"/>
      <point x="261" y="308"/>
      <point x="312" y="308"/>
      <point x="357" y="307" type="curve" smooth="yes"/>
      <point x="374" y="307"/>
      <point x="380" y="302"/>
      <point x="381" y="288" type="curve" smooth="yes"/>
      <point x="385" y="236" type="line"/>
      <point x="402" y="235"/>
      <point x="420" y="236"/>
      <point x="436" y="237" type="curve"/>
      <point x="436" y="266"/>
      <point x="436" y="299"/>
      <point x="436" y="329" type="curve" smooth="yes"/>
      <point x="437" y="361"/>
      <point x="437" y="394"/>
      <point x="438" y="424" type="curve"/>
      <point x="423" y="425"/>
      <point x="404" y="425"/>
      <point x="387" y="425" type="curve"/>
      <point x="382" y="377" type="line" smooth="yes"/>
      <point x="381" y="364"/>
      <point x="377" y="358"/>
      <point x="359" y="357" type="curve" smooth="yes"/>
      <point x="305" y="356"/>
      <point x="258" y="356"/>
      <point x="202" y="355" type="curve"/>
      <point x="203" y="601" type="line"/>
      <point x="208" y="601"/>
      <point x="223" y="601"/>
      <point x="232" y="601" type="curve" smooth="yes"/>
      <point x="298" y="601"/>
      <point x="366" y="599"/>
      <point x="391" y="596" type="curve"/>
      <point x="407" y="595"/>
      <point x="412" y="589"/>
      <point x="414" y="579" type="curve" smooth="yes"/>
      <point x="430" y="492" type="line"/>
      <point x="449" y="494"/>
      <point x="467" y="496"/>
      <point x="483" y="499" type="curve"/>
      <point x="481" y="549"/>
      <point x="478" y="600"/>
      <point x="474" y="650" type="curve"/>
      <point x="452" y="650"/>
      <point x="429" y="650"/>
      <point x="388" y="650" type="curve" smooth="yes"/>
      <point x="363" y="650"/>
      <point x="195" y="649"/>
      <point x="166" y="649" type="curve" smooth="yes"/>
      <point x="127" y="649"/>
      <point x="86" y="650"/>
      <point x="51" y="650" type="curve"/>
      <point x="50" y="635"/>
      <point x="50" y="618"/>
      <point x="50" y="603" type="curve"/>
      <point x="123" y="601" type="line"/>
      <point x="123" y="53" type="line" smooth="yes"/>
      <point x="123" y="50"/>
      <point x="122" y="49"/>
      <point x="120" y="49" type="curve" smooth="yes"/>
    </contour>
  </outline>
</glyph>
<glyph name="F" format="1">
  <advance width="531"/>
  <unicode hex="0046"/>
  <outline>
    <contour>
      <point x="123" y="600" type="line"/>
      <point x="123" y="53" type="line" smooth="yes"/>
      <point x="123" y="51"/>
      <point x="121" y="50"/>
      <point x="119" y="49" type="curve"/>
      <point x="51" y="46" type="line"/>
      <point x="51" y="31"/>
      <point x="50" y="15"/>
      <point x="50" y="0" type="curve"/>
      <point x="86" y="0"/>
      <point x="127" y="1"/>
      <point x="168" y="1" type="curve" smooth="yes"/>
      <point x="217" y="1"/>
      <point x="275" y="0"/>
      <point x="317" y="0" type="curve"/>
      <point x="318" y="15"/>
      <point x="318" y="32"/>
      <point x="318" y="47" type="curve"/>
      <point x="201" y="50" type="line"/>
      <point x="202" y="294" type="line"/>
      <point x="260" y="293"/>
      <point x="313" y="292"/>
      <point x="357" y="291" type="curve" smooth="yes"/>
      <point x="376" y="291"/>
      <point x="382" y="286"/>
      <point x="383" y="273" type="curve" smooth="yes"/>
      <point x="387" y="219" type="line"/>
      <point x="404" y="219"/>
      <point x="422" y="219"/>
      <point x="438" y="220" type="curve"/>
      <point x="438" y="248"/>
      <point x="438" y="281"/>
      <point x="439" y="311" type="curve" smooth="yes"/>
      <point x="439" y="344"/>
      <point x="440" y="379"/>
      <point x="441" y="412" type="curve"/>
      <point x="425" y="412"/>
      <point x="407" y="413"/>
      <point x="390" y="412" type="curve"/>
      <point x="384" y="362" type="line" smooth="yes"/>
      <point x="382" y="349"/>
      <point x="378" y="343"/>
      <point x="359" y="343" type="curve" smooth="yes"/>
      <point x="310" y="342"/>
      <point x="257" y="341"/>
      <point x="202" y="341" type="curve"/>
      <point x="203" y="601" type="line"/>
      <point x="208" y="601"/>
      <point x="215" y="602"/>
      <point x="224" y="602" type="curve" smooth="yes"/>
      <point x="297" y="602"/>
      <point x="365" y="600"/>
      <point x="392" y="597" type="curve" smooth="yes"/>
      <point x="408" y="596"/>
      <point x="412" y="589"/>
      <point x="414" y="580" type="curve" smooth="yes"/>
      <point x="433" y="485" type="line"/>
      <point x="450" y="487"/>
      <point x="470" y="489"/>
      <point x="486" y="491" type="curve"/>
      <point x="483" y="544"/>
      <point x="479" y="598"/>
      <point x="475" y="651" type="curve"/>
      <point x="451" y="651"/>
      <point x="428" y="650"/>
      <point x="387" y="650" type="curve" smooth="yes"/>
      <point x="363" y="650"/>
      <point x="194" y="649"/>
      <point x="165" y="649" type="curve" smooth="yes"/>
      <point x="126" y="649"/>
      <point x="85" y="650"/>
      <point x="51" y="650" type="curve"/>
      <point x="50" y="635"/>
      <point x="50" y="618"/>
      <point x="50" y="603" type="curve"/>
    </contour>
  </outline>
</glyph>
<glyph name="G" format="1">
  <advance width="665"/>
  <unicode hex="0047"/>
  <outline>
    <contour>
      <point x="514" y="461" type="line"/>
      <point x="533" y="463"/>
      <point x="552" y="465"/>
      <point x="570" y="467" type="curve"/>
      <point x="569" y="522"/>
      <point x="566" y="579"/>
      <point x="563" y="632" type="curve"/>
      <point x="529" y="649"/>
      <point x="476" y="660"/>
      <point x="412" y="660" type="curve" smooth="yes"/>
      <point x="352" y="660"/>
      <point x="263" y="645"/>
      <point x="195" y="596" type="curve" smooth="yes"/>
      <point x="109" y="535"/>
      <point x="50" y="434"/>
      <point x="50" y="309" type="curve" smooth="yes"/>
      <point x="50" y="195"/>
      <point x="92" y="116"/>
      <point x="160" y="58" type="curve" smooth="yes"/>
      <point x="214" y="14"/>
      <point x="292" y="-10"/>
      <point x="387" y="-10" type="curve" smooth="yes"/>
      <point x="468" y="-10"/>
      <point x="531" y="3"/>
      <point x="565" y="23" type="curve"/>
      <point x="567" y="228" type="line" smooth="yes"/>
      <point x="567" y="231"/>
      <point x="569" y="232"/>
      <point x="571" y="232" type="curve" smooth="yes"/>
      <point x="622" y="234" type="line"/>
      <point x="623" y="249"/>
      <point x="624" y="267"/>
      <point x="623" y="282" type="curve"/>
      <point x="593" y="282"/>
      <point x="560" y="282"/>
      <point x="526" y="282" type="curve" smooth="yes"/>
      <point x="476" y="282"/>
      <point x="424" y="282"/>
      <point x="382" y="282" type="curve"/>
      <point x="381" y="267"/>
      <point x="381" y="250"/>
      <point x="381" y="234" type="curve"/>
      <point x="488" y="232" type="line"/>
      <point x="488" y="61" type="line" smooth="yes"/>
      <point x="488" y="52"/>
      <point x="447" y="38"/>
      <point x="396" y="38" type="curve" smooth="yes"/>
      <point x="340" y="38"/>
      <point x="267" y="51"/>
      <point x="208" y="112" type="curve" smooth="yes"/>
      <point x="158" y="163"/>
      <point x="138" y="233"/>
      <point x="138" y="321" type="curve" smooth="yes"/>
      <point x="138" y="413"/>
      <point x="170" y="490"/>
      <point x="225" y="544" type="curve" smooth="yes"/>
      <point x="273" y="590"/>
      <point x="336" y="607"/>
      <point x="389" y="607" type="curve" smooth="yes"/>
      <point x="430" y="607"/>
      <point x="466" y="600"/>
      <point x="492" y="580" type="curve" smooth="yes"/>
      <point x="498" y="575"/>
      <point x="499" y="568"/>
      <point x="500" y="561" type="curve" smooth="yes"/>
    </contour>
  </outline>
</glyph>
<glyph name="H" format="1">
  <advance width="731"/>
  <unicode hex="0048"/>
  <outline>
    <contour>
      <point x="54" y="47" type="line"/>
      <point x="53" y="31"/>
      <point x="53" y="15"/>
      <point x="53" y="0" type="curve"/>
      <point x="87" y="0"/>
      <point x="128" y="1"/>
      <point x="165" y="1" type="curve" smooth="yes"/>
      <point x="206" y="1"/>
      <point x="253" y="0"/>
      <point x="289" y="0" type="curve"/>
      <point x="290" y="15"/>
      <point x="290" y="33"/>
      <point x="290" y="47" type="curve"/>
      <point x="201" y="50" type="line"/>
      <point x="202" y="312" type="line"/>
      <point x="525" y="314" type="line" smooth="yes"/>
      <point x="528" y="314"/>
      <point x="529" y="312"/>
      <point x="529" y="310" type="curve" smooth="yes"/>
      <point x="529" y="54" type="line" smooth="yes"/>
      <point x="529" y="52"/>
      <point x="528" y="50"/>
      <point x="525" y="50" type="curve" smooth="yes"/>
      <point x="446" y="47" type="line"/>
      <point x="445" y="32"/>
      <point x="445" y="15"/>
      <point x="445" y="0" type="curve"/>
      <point x="481" y="0"/>
      <point x="526" y="1"/>
      <point x="566" y="1" type="curve" smooth="yes"/>
      <point x="604" y="1"/>
      <point x="647" y="1"/>
      <point x="680" y="1" type="curve"/>
      <point x="681" y="16"/>
      <point x="681" y="33"/>
      <point x="681" y="47" type="curve"/>
      <point x="607" y="50" type="line"/>
      <point x="610" y="597" type="line" smooth="yes"/>
      <point x="610" y="599"/>
      <point x="610" y="601"/>
      <point x="612" y="601" type="curve" smooth="yes"/>
      <point x="676" y="604" type="line"/>
      <point x="677" y="618"/>
      <point x="678" y="635"/>
      <point x="677" y="650" type="curve"/>
      <point x="646" y="650"/>
      <point x="607" y="649"/>
      <point x="570" y="649" type="curve" smooth="yes"/>
      <point x="527" y="649"/>
      <point x="482" y="649"/>
      <point x="445" y="649" type="curve"/>
      <point x="444" y="635"/>
      <point x="444" y="618"/>
      <point x="444" y="603" type="curve"/>
      <point x="529" y="601" type="line"/>
      <point x="529" y="363" type="line"/>
      <point x="207" y="363" type="line" smooth="yes"/>
      <point x="203" y="363"/>
      <point x="203" y="365"/>
      <point x="203" y="367" type="curve" smooth="yes"/>
      <point x="203" y="597" type="line" smooth="yes"/>
      <point x="203" y="599"/>
      <point x="204" y="601"/>
      <point x="206" y="601" type="curve" smooth="yes"/>
      <point x="288" y="603" type="line"/>
      <point x="289" y="619"/>
      <point x="289" y="635"/>
      <point x="289" y="650" type="curve"/>
      <point x="252" y="650"/>
      <point x="207" y="649"/>
      <point x="167" y="649" type="curve" smooth="yes"/>
      <point x="130" y="649"/>
      <point x="87" y="650"/>
      <point x="53" y="650" type="curve"/>
      <point x="52" y="635"/>
      <point x="52" y="619"/>
      <point x="52" y="604" type="curve"/>
      <point x="123" y="601" type="line"/>
      <point x="123" y="54" type="line" smooth="yes"/>
      <point x="123" y="52"/>
      <point x="122" y="50"/>
      <point x="119" y="50" type="curve" smooth="yes"/>
    </contour>
  </outline>
</glyph>
<glyph name="J" format="1">
  <advance width="493"/>
  <unicode hex="004A"/>
  <outline>
    <contour>
      <point x="462" y="605" type="line"/>
      <point x="463" y="620"/>
      <point x="463" y="636"/>
      <point x="463" y="650" type="curve"/>
      <point x="431" y="650"/>
      <point x="390" y="649"/>
      <point x="353" y="649" type="curve" smooth="yes"/>
      <point x="300" y="649"/>
      <point x="233" y="650"/>
      <point x="183" y="650" type="curve"/>
      <point x="182" y="636"/>
      <point x="182" y="620"/>
      <point x="182" y="605" type="curve"/>
      <point x="307" y="602" type="line"/>
      <point x="308" y="485"/>
      <point x="309" y="362"/>
      <point x="309" y="248" type="curve" smooth="yes"/>
      <point x="309" y="176"/>
      <point x="308" y="129"/>
      <point x="282" y="87" type="curve" smooth="yes"/>
      <point x="262" y="55"/>
      <point x="221" y="32"/>
      <point x="170" y="32" type="curve" smooth="yes"/>
      <point x="154" y="32"/>
      <point x="124" y="34"/>
      <point x="105" y="44" type="curve"/>
      <point x="100" y="47"/>
      <point x="98" y="50"/>
      <point x="97" y="56" type="curve" smooth="yes"/>
      <point x="77" y="155" type="line"/>
      <point x="60" y="153"/>
      <point x="41" y="150"/>
      <point x="25" y="146" type="curve"/>
      <point x="30" y="97"/>
      <point x="35" y="44"/>
      <point x="41" y="-8" type="curve"/>
      <point x="80" y="-17"/>
      <point x="121" y="-20"/>
      <point x="153" y="-20" type="curve" smooth="yes"/>
      <point x="248" y="-20"/>
      <point x="306" y="16"/>
      <point x="338" y="59" type="curve" smooth="yes"/>
      <point x="376" y="110"/>
      <point x="388" y="160"/>
      <point x="388" y="251" type="curve" smooth="yes"/>
      <point x="389" y="367"/>
      <point x="388" y="484"/>
      <point x="388" y="599" type="curve" smooth="yes"/>
      <point x="388" y="601"/>
      <point x="389" y="602"/>
      <point x="391" y="602" type="curve" smooth="yes"/>
    </contour>
  </outline>
</glyph>
<glyph name="K" format="1">
  <advance width="631"/>
  <unicode hex="004B"/>
  <outline>
    <contour>
      <point x="123" y="600" type="line"/>
      <point x="123" y="53" type="line" smooth="yes"/>
      <point x="123" y="51"/>
      <point x="122" y="50"/>
      <point x="119" y="49" type="curve"/>
      <point x="52" y="46" type="line"/>
      <point x="52" y="31"/>
      <point x="52" y="15"/>
      <point x="52" y="0" type="curve"/>
      <point x="85" y="0"/>
      <point x="128" y="1"/>
      <point x="165" y="1" type="curve" smooth="yes"/>
      <point x="204" y="1"/>
      <point x="249" y="0"/>
      <point x="281" y="0" type="curve"/>
      <point x="282" y="15"/>
      <point x="283" y="32"/>
      <point x="282" y="47" type="curve"/>
      <point x="201" y="50" type="line"/>
      <point x="202" y="307" type="line"/>
      <point x="216" y="309"/>
      <point x="243" y="309"/>
      <point x="263" y="309" type="curve" smooth="yes"/>
      <point x="295" y="309"/>
      <point x="348" y="232"/>
      <point x="388" y="167" type="curve" smooth="yes"/>
      <point x="432" y="96"/>
      <point x="477" y="22"/>
      <point x="496" y="-1" type="curve"/>
      <point x="515" y="-1"/>
      <point x="541" y="-1"/>
      <point x="563" y="0" type="curve" smooth="yes"/>
      <point x="588" y="1"/>
      <point x="619" y="1"/>
      <point x="643" y="2" type="curve"/>
      <point x="644" y="17"/>
      <point x="645" y="34"/>
      <point x="645" y="48" type="curve"/>
      <point x="573" y="51" type="line" smooth="yes"/>
      <point x="561" y="52"/>
      <point x="551" y="58"/>
      <point x="540" y="74" type="curve" smooth="yes"/>
      <point x="505" y="125"/>
      <point x="479" y="166"/>
      <point x="451" y="211" type="curve" smooth="yes"/>
      <point x="416" y="267"/>
      <point x="377" y="317"/>
      <point x="335" y="348" type="curve"/>
      <point x="335" y="353" type="line"/>
      <point x="399" y="423"/>
      <point x="474" y="506"/>
      <point x="555" y="600" type="curve"/>
      <point x="608" y="603" type="line"/>
      <point x="609" y="618"/>
      <point x="609" y="635"/>
      <point x="609" y="650" type="curve"/>
      <point x="586" y="650"/>
      <point x="557" y="649"/>
      <point x="530" y="649" type="curve" smooth="yes"/>
      <point x="482" y="649"/>
      <point x="439" y="649"/>
      <point x="400" y="649" type="curve"/>
      <point x="399" y="634"/>
      <point x="399" y="618"/>
      <point x="399" y="602" type="curve"/>
      <point x="466" y="599" type="line" smooth="yes"/>
      <point x="468" y="599"/>
      <point x="470" y="597"/>
      <point x="468" y="595" type="curve"/>
      <point x="413" y="523"/>
      <point x="309" y="398"/>
      <point x="271" y="362" type="curve"/>
      <point x="247" y="356"/>
      <point x="219" y="355"/>
      <point x="202" y="355" type="curve"/>
      <point x="204" y="594" type="line" smooth="yes"/>
      <point x="204" y="598"/>
      <point x="204" y="600"/>
      <point x="207" y="600" type="curve" smooth="yes"/>
      <point x="277" y="603" type="line"/>
      <point x="278" y="618"/>
      <point x="278" y="635"/>
      <point x="278" y="650" type="curve"/>
      <point x="245" y="650"/>
      <point x="205" y="649"/>
      <point x="169" y="649" type="curve" smooth="yes"/>
      <point x="130" y="649"/>
      <point x="87" y="650"/>
      <point x="53" y="650" type="curve"/>
      <point x="52" y="635"/>
      <point x="52" y="618"/>
      <point x="52" y="603" type="curve"/>
    </contour>
  </outline>
</glyph>
<glyph name="L" format="1">
  <advance width="523"/>
  <unicode hex="004C"/>
  <outline>
    <contour>
      <point x="123" y="600" type="line"/>
      <point x="123" y="53" type="line" smooth="yes"/>
      <point x="123" y="51"/>
      <point x="122" y="49"/>
      <point x="119" y="49" type="curve" smooth="yes"/>
      <point x="51" y="46" type="line"/>
      <point x="50" y="31"/>
      <point x="49" y="15"/>
      <point x="49" y="-1" type="curve"/>
      <point x="85" y="-1"/>
      <point x="125" y="0"/>
      <point x="167" y="0" type="curve" smooth="yes"/>
      <point x="302" y="0"/>
      <point x="423" y="-1"/>
      <point x="471" y="-1" type="curve"/>
      <point x="484" y="52"/>
      <point x="500" y="118"/>
      <point x="510" y="167" type="curve"/>
      <point x="494" y="171"/>
      <point x="476" y="176"/>
      <point x="457" y="179" type="curve"/>
      <point x="421" y="74" type="line" smooth="yes"/>
      <point x="417" y="62"/>
      <point x="412" y="56"/>
      <point x="403" y="53" type="curve"/>
      <point x="387" y="50"/>
      <point x="355" y="47"/>
      <point x="244" y="47" type="curve" smooth="yes"/>
      <point x="202" y="47"/>
      <point x="201" y="50"/>
      <point x="201" y="68" type="curve" smooth="yes"/>
      <point x="204" y="596" type="line" smooth="yes"/>
      <point x="204" y="599"/>
      <point x="204" y="600"/>
      <point x="206" y="600" type="curve" smooth="yes"/>
      <point x="293" y="602" type="line"/>
      <point x="294" y="617"/>
      <point x="295" y="634"/>
      <point x="295" y="649" type="curve"/>
      <point x="254" y="649"/>
      <point x="210" y="649"/>
      <point x="168" y="649" type="curve" smooth="yes"/>
      <point x="128" y="649"/>
      <point x="86" y="649"/>
      <point x="51" y="649" type="curve"/>
      <point x="50" y="634"/>
      <point x="49" y="618"/>
      <point x="50" y="603" type="curve"/>
    </contour>
  </outline>
</glyph>
<glyph name="M" format="1">
  <advance width="869"/>
  <unicode hex="004D"/>
  <outline>
    <contour>
      <point x="122" y="600" type="line"/>
      <point x="121" y="435"/>
      <point x="119" y="220"/>
      <point x="118" y="54" type="curve"/>
      <point x="118" y="51"/>
      <point x="117" y="50"/>
      <point x="114" y="50" type="curve" smooth="yes"/>
      <point x="48" y="47" type="line"/>
      <point x="48" y="32"/>
      <point x="47" y="15"/>
      <point x="47" y="0" type="curve"/>
      <point x="76" y="0"/>
      <point x="108" y="1"/>
      <point x="141" y="1" type="curve" smooth="yes"/>
      <point x="182" y="1"/>
      <point x="228" y="0"/>
      <point x="265" y="0" type="curve"/>
      <point x="265" y="15"/>
      <point x="266" y="32"/>
      <point x="266" y="47" type="curve"/>
      <point x="177" y="50" type="line"/>
      <point x="178" y="212"/>
      <point x="181" y="398"/>
      <point x="183" y="561" type="curve"/>
      <point x="189" y="561" type="line"/>
      <point x="267" y="353"/>
      <point x="343" y="172"/>
      <point x="406" y="30" type="curve"/>
      <point x="427" y="30"/>
      <point x="442" y="30"/>
      <point x="451" y="31" type="curve"/>
      <point x="511" y="160"/>
      <point x="581" y="323"/>
      <point x="669" y="556" type="curve"/>
      <point x="675" y="556" type="line"/>
      <point x="676" y="397"/>
      <point x="678" y="205"/>
      <point x="678" y="54" type="curve" smooth="yes"/>
      <point x="678" y="51"/>
      <point x="677" y="50"/>
      <point x="674" y="49" type="curve"/>
      <point x="597" y="46" type="line"/>
      <point x="597" y="32"/>
      <point x="596" y="15"/>
      <point x="596" y="0" type="curve"/>
      <point x="629" y="0"/>
      <point x="672" y="1"/>
      <point x="711" y="1" type="curve" smooth="yes"/>
      <point x="747" y="1"/>
      <point x="788" y="0"/>
      <point x="819" y="0" type="curve"/>
      <point x="820" y="15"/>
      <point x="820" y="32"/>
      <point x="820" y="47" type="curve"/>
      <point x="750" y="50" type="line"/>
      <point x="749" y="225"/>
      <point x="748" y="430"/>
      <point x="748" y="595" type="curve" smooth="yes"/>
      <point x="748" y="598"/>
      <point x="749" y="600"/>
      <point x="751" y="600" type="curve" smooth="yes"/>
      <point x="816" y="603" type="line"/>
      <point x="817" y="618"/>
      <point x="817" y="635"/>
      <point x="817" y="650" type="curve"/>
      <point x="767" y="650"/>
      <point x="705" y="650"/>
      <point x="651" y="650" type="curve"/>
      <point x="588" y="496"/>
      <point x="512" y="301"/>
      <point x="443" y="128" type="curve"/>
      <point x="437" y="128" type="line"/>
      <point x="361" y="313"/>
      <point x="290" y="501"/>
      <point x="229" y="650" type="curve"/>
      <point x="172" y="650"/>
      <point x="105" y="649"/>
      <point x="53" y="649" type="curve"/>
      <point x="52" y="635"/>
      <point x="52" y="617"/>
      <point x="52" y="602" type="curve"/>
    </contour>
  </outline>
</glyph>
<glyph name="N" format="1">
  <advance width="716"/>
  <unicode hex="004E"/>
  <outline>
    <contour>
      <point x="48" y="46" type="line"/>
      <point x="47" y="32"/>
      <point x="47" y="15"/>
      <point x="47" y="0" type="curve"/>
      <point x="75" y="0"/>
      <point x="109" y="1"/>
      <point x="142" y="1" type="curve" smooth="yes"/>
      <point x="187" y="1"/>
      <point x="235" y="1"/>
      <point x="274" y="1" type="curve"/>
      <point x="274" y="15"/>
      <point x="275" y="32"/>
      <point x="275" y="47" type="curve"/>
      <point x="175" y="49" type="line"/>
      <point x="176" y="210"/>
      <point x="176" y="370"/>
      <point x="176" y="531" type="curve"/>
      <point x="182" y="531" type="line"/>
      <point x="312" y="335"/>
      <point x="450" y="135"/>
      <point x="554" y="-7" type="curve"/>
      <point x="572" y="-7"/>
      <point x="594" y="-2"/>
      <point x="607" y="4" type="curve"/>
      <point x="610" y="596" type="line" smooth="yes"/>
      <point x="610" y="600"/>
      <point x="611" y="601"/>
      <point x="613" y="601" type="curve" smooth="yes"/>
      <point x="674" y="604" type="line"/>
      <point x="674" y="618"/>
      <point x="675" y="635"/>
      <point x="674" y="650" type="curve"/>
      <point x="646" y="650"/>
      <point x="612" y="649"/>
      <point x="578" y="649" type="curve" smooth="yes"/>
      <point x="536" y="649"/>
      <point x="492" y="649"/>
      <point x="454" y="649" type="curve"/>
      <point x="454" y="634"/>
      <point x="453" y="617"/>
      <point x="453" y="602" type="curve"/>
      <point x="547" y="601" type="line"/>
      <point x="549" y="438"/>
      <point x="550" y="274"/>
      <point x="551" y="111" type="curve"/>
      <point x="546" y="110" type="line"/>
      <point x="436" y="278"/>
      <point x="302" y="480"/>
      <point x="188" y="649" type="curve"/>
      <point x="143" y="649"/>
      <point x="88" y="650"/>
      <point x="44" y="650" type="curve"/>
      <point x="43" y="635"/>
      <point x="42" y="618"/>
      <point x="43" y="603" type="curve"/>
      <point x="116" y="601" type="line"/>
      <point x="116" y="53" type="line" smooth="yes"/>
      <point x="116" y="50"/>
      <point x="115" y="49"/>
      <point x="112" y="49" type="curve" smooth="yes"/>
    </contour>
  </outline>
</glyph>
<glyph name="P" format="1">
  <advance width="547"/>
  <unicode hex="0050"/>
  <outline>
    <contour>
      <point x="123" y="601" type="line"/>
      <point x="123" y="53" type="line" smooth="yes"/>
      <point x="123" y="51"/>
      <point x="121" y="50"/>
      <point x="119" y="49" type="curve"/>
      <point x="55" y="46" type="line"/>
      <point x="54" y="32"/>
      <point x="54" y="15"/>
      <point x="54" y="0" type="curve"/>
      <point x="88" y="0"/>
      <point x="127" y="1"/>
      <point x="162" y="1" type="curve" smooth="yes"/>
      <point x="211" y="1"/>
      <point x="268" y="1"/>
      <point x="311" y="1" type="curve"/>
      <point x="312" y="16"/>
      <point x="312" y="32"/>
      <point x="312" y="47" type="curve"/>
      <point x="200" y="50" type="line"/>
      <point x="201" y="253" type="line"/>
      <point x="209" y="253"/>
      <point x="226" y="252"/>
      <point x="243" y="252" type="curve" smooth="yes"/>
      <point x="304" y="252"/>
      <point x="348" y="261"/>
      <point x="386" y="277" type="curve" smooth="yes"/>
      <point x="453" y="306"/>
      <point x="510" y="378"/>
      <point x="510" y="467" type="curve" smooth="yes"/>
      <point x="510" y="538"/>
      <point x="464" y="610"/>
      <point x="381" y="634" type="curve" smooth="yes"/>
      <point x="330" y="649"/>
      <point x="292" y="651"/>
      <point x="219" y="651" type="curve" smooth="yes"/>
      <point x="161" y="651"/>
      <point x="101" y="650"/>
      <point x="55" y="649" type="curve"/>
      <point x="54" y="634"/>
      <point x="54" y="618"/>
      <point x="54" y="603" type="curve"/>
    </contour>
    <contour>
      <point x="203" y="601" type="line"/>
      <point x="210" y="604"/>
      <point x="225" y="605"/>
      <point x="254" y="605" type="curve" smooth="yes"/>
      <point x="360" y="605"/>
      <point x="429" y="553"/>
      <point x="429" y="454" type="curve" smooth="yes"/>
      <point x="429" y="404"/>
      <point x="410" y="356"/>
      <point x="361" y="327" type="curve"/>
      <point x="334" y="309"/>
      <point x="294" y="301"/>
      <point x="254" y="301" type="curve" smooth="yes"/>
      <point x="229" y="301"/>
      <point x="207" y="303"/>
      <point x="201" y="310" type="curve"/>
    </contour>
  </outline>
</glyph>
<glyph name="Q" format="1">
  <advance width="718"/>
  <unicode hex="0051"/>
  <outline>
    <contour>
      <point x="49" y="316" type="line" smooth="yes"/>
      <point x="49" y="226"/>
      <point x="76" y="136"/>
      <point x="137" y="74" type="curve" smooth="yes"/>
      <point x="188" y="23"/>
      <point x="258" y="-10"/>
      <point x="352" y="-10" type="curve" smooth="yes"/>
      <point x="359" y="-10"/>
      <point x="368" y="-10"/>
      <point x="375" y="-9" type="curve"/>
      <point x="451" y="-71"/>
      <point x="505" y="-108"/>
      <point x="560" y="-137" type="curve" smooth="yes"/>
      <point x="600" y="-158"/>
      <point x="620" y="-158"/>
      <point x="635" y="-158" type="curve" smooth="yes"/>
      <point x="663" y="-158"/>
      <point x="726" y="-144"/>
      <point x="769" y="-129" type="curve"/>
      <point x="768" y="-114"/>
      <point x="766" y="-96"/>
      <point x="763" y="-81" type="curve"/>
      <point x="740" y="-88"/>
      <point x="699" y="-95"/>
      <point x="676" y="-95" type="curve" smooth="yes"/>
      <point x="659" y="-95"/>
      <point x="635" y="-95"/>
      <point x="603" y="-81" type="curve" smooth="yes"/>
      <point x="552" y="-59"/>
      <point x="511" y="-37"/>
      <point x="454" y="-1" type="curve"/>
      <point x="454" y="4" type="line"/>
      <point x="493" y="16"/>
      <point x="530" y="38"/>
      <point x="564" y="71" type="curve" smooth="yes"/>
      <point x="625" y="128"/>
      <point x="669" y="224"/>
      <point x="669" y="342" type="curve" smooth="yes"/>
      <point x="669" y="456"/>
      <point x="622" y="563"/>
      <point x="534" y="619" type="curve" smooth="yes"/>
      <point x="486" y="648"/>
      <point x="438" y="660"/>
      <point x="379" y="660" type="curve" smooth="yes"/>
      <point x="315" y="660"/>
      <point x="250" y="645"/>
      <point x="195" y="608" type="curve" smooth="yes"/>
      <point x="111" y="552"/>
      <point x="49" y="448"/>
      <point x="49" y="317" type="curve" smooth="yes"/>
    </contour>
    <contour>
      <point x="135" y="324" type="line" smooth="yes"/>
      <point x="135" y="433"/>
      <point x="177" y="514"/>
      <point x="220" y="555" type="curve" smooth="yes"/>
      <point x="256" y="588"/>
      <point x="307" y="610"/>
      <point x="367" y="610" type="curve" smooth="yes"/>
      <point x="425" y="610"/>
      <point x="466" y="593"/>
      <point x="507" y="553" type="curve" smooth="yes"/>
      <point x="561" y="499"/>
      <point x="583" y="415"/>
      <point x="583" y="318" type="curve" smooth="yes"/>
      <point x="583" y="211"/>
      <point x="547" y="145"/>
      <point x="510" y="103" type="curve" smooth="yes"/>
      <point x="473" y="62"/>
      <point x="425" y="40"/>
      <point x="362" y="40" type="curve" smooth="yes"/>
      <point x="301" y="40"/>
      <point x="251" y="60"/>
      <point x="211" y="100" type="curve" smooth="yes"/>
      <point x="156" y="155"/>
      <point x="135" y="229"/>
      <point x="135" y="323" type="curve" smooth="yes"/>
    </contour>
  </outline>
</glyph>
<glyph name="T" format="1">
  <advance width="567"/>
  <unicode hex="0054"/>
  <outline>
    <contour>
      <point x="161" y="47" type="line"/>
      <point x="160" y="32"/>
      <point x="160" y="15"/>
      <point x="160" y="0" type="curve"/>
      <point x="202" y="0"/>
      <point x="248" y="1"/>
      <point x="289" y="1" type="curve" smooth="yes"/>
      <point x="330" y="1"/>
      <point x="379" y="0"/>
      <point x="415" y="0" type="curve"/>
      <point x="415" y="15"/>
      <point x="416" y="32"/>
      <point x="416" y="47" type="curve"/>
      <point x="324" y="50" type="line"/>
      <point x="326" y="600" type="line"/>
      <point x="413" y="600"/>
      <point x="431" y="599"/>
      <point x="457" y="597" type="curve" smooth="yes"/>
      <point x="476" y="595"/>
      <point x="480" y="589"/>
      <point x="482" y="578" type="curve" smooth="yes"/>
      <point x="497" y="481" type="line"/>
      <point x="517" y="483"/>
      <point x="537" y="485"/>
      <point x="553" y="487" type="curve"/>
      <point x="551" y="541"/>
      <point x="549" y="597"/>
      <point x="545" y="651" type="curve"/>
      <point x="524" y="650"/>
      <point x="500" y="650"/>
      <point x="459" y="650" type="curve" smooth="yes"/>
      <point x="435" y="649"/>
      <point x="321" y="649"/>
      <point x="291" y="649" type="curve" smooth="yes"/>
      <point x="258" y="649"/>
      <point x="143" y="649"/>
      <point x="121" y="649" type="curve" smooth="yes"/>
      <point x="80" y="649"/>
      <point x="48" y="650"/>
      <point x="29" y="650" type="curve"/>
      <point x="25" y="596"/>
      <point x="23" y="540"/>
      <point x="19" y="486" type="curve"/>
      <point x="37" y="484"/>
      <point x="57" y="482"/>
      <point x="75" y="481" type="curve"/>
      <point x="91" y="578" type="line" smooth="yes"/>
      <point x="93" y="589"/>
      <point x="97" y="595"/>
      <point x="116" y="597" type="curve" smooth="yes"/>
      <point x="138" y="599"/>
      <point x="160" y="600"/>
      <point x="246" y="600" type="curve"/>
      <point x="246" y="54" type="line" smooth="yes"/>
      <point x="246" y="52"/>
      <point x="245" y="50"/>
      <point x="242" y="50" type="curve" smooth="yes"/>
    </contour>
  </outline>
</glyph>
<glyph name="U" format="1">
  <advance width="669"/>
  <unicode hex="0055"/>
  <outline>
    <contour>
      <point x="185" y="601" type="line"/>
      <point x="273" y="603" type="line"/>
      <point x="274" y="619"/>
      <point x="274" y="635"/>
      <point x="274" y="650" type="curve"/>
      <point x="234" y="650"/>
      <point x="191" y="649"/>
      <point x="146" y="649" type="curve" smooth="yes"/>
      <point x="110" y="649"/>
      <point x="70" y="649"/>
      <point x="38" y="649" type="curve"/>
      <point x="37" y="635"/>
      <point x="37" y="619"/>
      <point x="37" y="603" type="curve"/>
      <point x="98" y="601" type="line" smooth="yes"/>
      <point x="102" y="601"/>
      <point x="103" y="599"/>
      <point x="103" y="595" type="curve" smooth="yes"/>
      <point x="103" y="263" type="line" smooth="yes"/>
      <point x="103" y="174"/>
      <point x="112" y="103"/>
      <point x="169" y="48" type="curve" smooth="yes"/>
      <point x="211" y="7"/>
      <point x="270" y="-10"/>
      <point x="340" y="-10" type="curve" smooth="yes"/>
      <point x="422" y="-10"/>
      <point x="475" y="22"/>
      <point x="504" y="52" type="curve" smooth="yes"/>
      <point x="540" y="90"/>
      <point x="573" y="156"/>
      <point x="574" y="265" type="curve" smooth="yes"/>
      <point x="576" y="600" type="line"/>
      <point x="640" y="603" type="line"/>
      <point x="641" y="619"/>
      <point x="641" y="635"/>
      <point x="641" y="650" type="curve"/>
      <point x="610" y="650"/>
      <point x="573" y="649"/>
      <point x="537" y="649" type="curve" smooth="yes"/>
      <point x="496" y="649"/>
      <point x="454" y="649"/>
      <point x="421" y="649" type="curve"/>
      <point x="420" y="634"/>
      <point x="420" y="618"/>
      <point x="420" y="603" type="curve"/>
      <point x="503" y="600" type="line" smooth="yes"/>
      <point x="506" y="600"/>
      <point x="507" y="599"/>
      <point x="507" y="596" type="curve" smooth="yes"/>
      <point x="508" y="495"/>
      <point x="508" y="362"/>
      <point x="508" y="266" type="curve" smooth="yes"/>
      <point x="508" y="174"/>
      <point x="483" y="115"/>
      <point x="459" y="90" type="curve" smooth="yes"/>
      <point x="437" y="67"/>
      <point x="408" y="44"/>
      <point x="343" y="44" type="curve" smooth="yes"/>
      <point x="276" y="44"/>
      <point x="242" y="73"/>
      <point x="224" y="97" type="curve" smooth="yes"/>
      <point x="197" y="132"/>
      <point x="182" y="173"/>
      <point x="183" y="271" type="curve" smooth="yes"/>
    </contour>
  </outline>
</glyph>
<glyph name="V" format="1">
  <advance width="624"/>
  <unicode hex="0056"/>
  <outline>
    <contour>
      <point x="630" y="603" type="line"/>
      <point x="631" y="619"/>
      <point x="631" y="635"/>
      <point x="631" y="650" type="curve"/>
      <point x="603" y="650"/>
      <point x="569" y="649"/>
      <point x="538" y="649" type="curve" smooth="yes"/>
      <point x="490" y="649"/>
      <point x="446" y="649"/>
      <point x="408" y="649" type="curve"/>
      <point x="407" y="635"/>
      <point x="407" y="618"/>
      <point x="407" y="603" type="curve"/>
      <point x="495" y="600" type="line" smooth="yes"/>
      <point x="497" y="600"/>
      <point x="498" y="597"/>
      <point x="498" y="595" type="curve"/>
      <point x="483" y="543"/>
      <point x="440" y="419"/>
      <point x="416" y="351" type="curve" smooth="yes"/>
      <point x="388" y="273"/>
      <point x="354" y="179"/>
      <point x="320" y="93" type="curve"/>
      <point x="315" y="93" type="line"/>
      <point x="282" y="185"/>
      <point x="252" y="283"/>
      <point x="223" y="371" type="curve" smooth="yes"/>
      <point x="206" y="423"/>
      <point x="164" y="559"/>
      <point x="153" y="600" type="curve"/>
      <point x="251" y="603" type="line"/>
      <point x="251" y="618"/>
      <point x="252" y="635"/>
      <point x="252" y="650" type="curve"/>
      <point x="206" y="650"/>
      <point x="155" y="649"/>
      <point x="102" y="649" type="curve" smooth="yes"/>
      <point x="67" y="649"/>
      <point x="29" y="650"/>
      <point x="-1" y="650" type="curve"/>
      <point x="-1" y="635"/>
      <point x="-2" y="618"/>
      <point x="-2" y="603" type="curve"/>
      <point x="56" y="601" type="line"/>
      <point x="59" y="600"/>
      <point x="61" y="599"/>
      <point x="62" y="597" type="curve"/>
      <point x="89" y="515"/>
      <point x="120" y="421"/>
      <point x="150" y="337" type="curve" smooth="yes"/>
      <point x="188" y="230"/>
      <point x="235" y="99"/>
      <point x="277" y="-10" type="curve"/>
      <point x="299" y="-10"/>
      <point x="325" y="-10"/>
      <point x="333" y="-9" type="curve"/>
      <point x="378" y="95"/>
      <point x="428" y="224"/>
      <point x="468" y="326" type="curve" smooth="yes"/>
      <point x="502" y="415"/>
      <point x="542" y="516"/>
      <point x="574" y="600" type="curve"/>
    </contour>
  </outline>
</glyph>
<glyph name="W" format="1">
  <advance width="880"/>
  <unicode hex="0057"/>
  <outline>
    <contour>
      <point x="885" y="604" type="line"/>
      <point x="886" y="619"/>
      <point x="886" y="636"/>
      <point x="886" y="651" type="curve"/>
      <point x="858" y="650"/>
      <point x="824" y="650"/>
      <point x="794" y="650" type="curve" smooth="yes"/>
      <point x="753" y="650"/>
      <point x="704" y="649"/>
      <point x="665" y="649" type="curve"/>
      <point x="664" y="635"/>
      <point x="664" y="618"/>
      <point x="664" y="603" type="curve"/>
      <point x="751" y="601" type="line" smooth="yes"/>
      <point x="754" y="601"/>
      <point x="755" y="599"/>
      <point x="755" y="596" type="curve"/>
      <point x="745" y="538"/>
      <point x="718" y="423"/>
      <point x="703" y="358" type="curve" smooth="yes"/>
      <point x="684" y="279"/>
      <point x="662" y="188"/>
      <point x="640" y="99" type="curve"/>
      <point x="634" y="99" type="line"/>
      <point x="584" y="268"/>
      <point x="531" y="467"/>
      <point x="485" y="623" type="curve"/>
      <point x="473" y="623"/>
      <point x="439" y="623"/>
      <point x="431" y="622" type="curve"/>
      <point x="383" y="481"/>
      <point x="308" y="248"/>
      <point x="259" y="103" type="curve"/>
      <point x="253" y="103" type="line"/>
      <point x="232" y="206"/>
      <point x="216" y="288"/>
      <point x="199" y="376" type="curve" smooth="yes"/>
      <point x="181" y="462"/>
      <point x="165" y="555"/>
      <point x="158" y="601" type="curve"/>
      <point x="254" y="604" type="line"/>
      <point x="255" y="619"/>
      <point x="255" y="635"/>
      <point x="255" y="650" type="curve"/>
      <point x="209" y="650"/>
      <point x="160" y="650"/>
      <point x="108" y="650" type="curve" smooth="yes"/>
      <point x="75" y="650"/>
      <point x="38" y="650"/>
      <point x="8" y="650" type="curve"/>
      <point x="7" y="635"/>
      <point x="7" y="619"/>
      <point x="7" y="604" type="curve"/>
      <point x="65" y="601" type="line"/>
      <point x="68" y="601"/>
      <point x="70" y="600"/>
      <point x="70" y="598" type="curve"/>
      <point x="89" y="514"/>
      <point x="107" y="428"/>
      <point x="126" y="345" type="curve" smooth="yes"/>
      <point x="153" y="228"/>
      <point x="181" y="108"/>
      <point x="213" y="-11" type="curve"/>
      <point x="233" y="-11"/>
      <point x="258" y="-11"/>
      <point x="269" y="-10" type="curve"/>
      <point x="323" y="133"/>
      <point x="387" y="310"/>
      <point x="444" y="483" type="curve"/>
      <point x="450" y="483" type="line"/>
      <point x="496" y="316"/>
      <point x="550" y="137"/>
      <point x="599" y="-11" type="curve"/>
      <point x="623" y="-11"/>
      <point x="646" y="-11"/>
      <point x="657" y="-10" type="curve"/>
      <point x="692" y="98"/>
      <point x="728" y="225"/>
      <point x="756" y="330" type="curve" smooth="yes"/>
      <point x="780" y="419"/>
      <point x="804" y="504"/>
      <point x="830" y="601" type="curve"/>
    </contour>
  </outline>
</glyph>
<glyph name="X" format="1">
  <advance width="589"/>
  <unicode hex="0058"/>
  <outline>
    <contour>
      <point x="-11" y="46" type="line"/>
      <point x="-12" y="31"/>
      <point x="-12" y="15"/>
      <point x="-12" y="0" type="curve"/>
      <point x="17" y="0"/>
      <point x="51" y="1"/>
      <point x="82" y="1" type="curve" smooth="yes"/>
      <point x="130" y="1"/>
      <point x="173" y="1"/>
      <point x="211" y="1" type="curve"/>
      <point x="212" y="15"/>
      <point x="212" y="32"/>
      <point x="212" y="46" type="curve"/>
      <point x="129" y="49" type="line"/>
      <point x="154" y="89"/>
      <point x="250" y="237"/>
      <point x="283" y="283" type="curve"/>
      <point x="289" y="283" type="line"/>
      <point x="325" y="233"/>
      <point x="414" y="93"/>
      <point x="437" y="55" type="curve" smooth="yes"/>
      <point x="439" y="52"/>
      <point x="437" y="50"/>
      <point x="434" y="49" type="curve"/>
      <point x="356" y="46" type="line"/>
      <point x="355" y="31"/>
      <point x="355" y="15"/>
      <point x="355" y="0" type="curve"/>
      <point x="397" y="0"/>
      <point x="444" y="1"/>
      <point x="492" y="1" type="curve" smooth="yes"/>
      <point x="528" y="1"/>
      <point x="567" y="0"/>
      <point x="597" y="0" type="curve"/>
      <point x="598" y="15"/>
      <point x="598" y="32"/>
      <point x="598" y="46" type="curve"/>
      <point x="535" y="49" type="line"/>
      <point x="476" y="137"/>
      <point x="404" y="246"/>
      <point x="340" y="336" type="curve"/>
      <point x="340" y="342" type="line"/>
      <point x="400" y="424"/>
      <point x="465" y="518"/>
      <point x="522" y="601" type="curve"/>
      <point x="579" y="604" type="line"/>
      <point x="580" y="619"/>
      <point x="580" y="635"/>
      <point x="580" y="650" type="curve"/>
      <point x="553" y="650"/>
      <point x="519" y="650"/>
      <point x="487" y="650" type="curve" smooth="yes"/>
      <point x="440" y="650"/>
      <point x="398" y="650"/>
      <point x="361" y="650" type="curve"/>
      <point x="360" y="635"/>
      <point x="360" y="618"/>
      <point x="360" y="604" type="curve"/>
      <point x="440" y="601" type="line" smooth="yes"/>
      <point x="443" y="601"/>
      <point x="444" y="599"/>
      <point x="442" y="596" type="curve"/>
      <point x="421" y="556"/>
      <point x="336" y="419"/>
      <point x="310" y="383" type="curve"/>
      <point x="304" y="383" type="line"/>
      <point x="274" y="426"/>
      <point x="197" y="551"/>
      <point x="168" y="601" type="curve"/>
      <point x="256" y="604" type="line"/>
      <point x="257" y="619"/>
      <point x="257" y="636"/>
      <point x="257" y="650" type="curve"/>
      <point x="214" y="650"/>
      <point x="166" y="650"/>
      <point x="115" y="650" type="curve" smooth="yes"/>
      <point x="79" y="649"/>
      <point x="41" y="650"/>
      <point x="10" y="650" type="curve"/>
      <point x="9" y="635"/>
      <point x="9" y="619"/>
      <point x="9" y="604" type="curve"/>
      <point x="69" y="601" type="line" smooth="yes"/>
      <point x="73" y="601"/>
      <point x="75" y="600"/>
      <point x="77" y="598" type="curve"/>
      <point x="132" y="512"/>
      <point x="193" y="420"/>
      <point x="252" y="332" type="curve"/>
      <point x="252" y="325" type="line"/>
      <point x="186" y="237"/>
      <point x="119" y="142"/>
      <point x="53" y="53" type="curve"/>
      <point x="51" y="51"/>
      <point x="49" y="49"/>
      <point x="46" y="49" type="curve"/>
    </contour>
  </outline>
</glyph>
<glyph name="Y" format="1">
  <advance width="562"/>
  <unicode hex="0059"/>
  <outline>
    <contour>
      <point x="160" y="47" type="line"/>
      <point x="159" y="31"/>
      <point x="159" y="15"/>
      <point x="159" y="0" type="curve"/>
      <point x="199" y="0"/>
      <point x="245" y="1"/>
      <point x="286" y="1" type="curve" smooth="yes"/>
      <point x="328" y="1"/>
      <point x="376" y="0"/>
      <point x="412" y="0" type="curve"/>
      <point x="413" y="15"/>
      <point x="414" y="32"/>
      <point x="414" y="47" type="curve"/>
      <point x="322" y="50" type="line"/>
      <point x="323" y="252" type="line"/>
      <point x="386" y="360"/>
      <point x="461" y="496"/>
      <point x="523" y="601" type="curve"/>
      <point x="574" y="605" type="line"/>
      <point x="575" y="619"/>
      <point x="575" y="636"/>
      <point x="575" y="651" type="curve"/>
      <point x="550" y="651"/>
      <point x="516" y="650"/>
      <point x="489" y="650" type="curve" smooth="yes"/>
      <point x="447" y="650"/>
      <point x="401" y="650"/>
      <point x="365" y="650" type="curve"/>
      <point x="364" y="635"/>
      <point x="364" y="618"/>
      <point x="364" y="603" type="curve"/>
      <point x="445" y="601" type="line" smooth="yes"/>
      <point x="448" y="601"/>
      <point x="449" y="599"/>
      <point x="448" y="597" type="curve"/>
      <point x="423" y="540"/>
      <point x="336" y="374"/>
      <point x="300" y="308" type="curve"/>
      <point x="295" y="308" type="line"/>
      <point x="249" y="396"/>
      <point x="180" y="528"/>
      <point x="143" y="601" type="curve"/>
      <point x="233" y="604" type="line"/>
      <point x="234" y="619"/>
      <point x="234" y="636"/>
      <point x="234" y="651" type="curve"/>
      <point x="192" y="651"/>
      <point x="143" y="650"/>
      <point x="93" y="650" type="curve" smooth="yes"/>
      <point x="60" y="650"/>
      <point x="23" y="650"/>
      <point x="-5" y="650" type="curve"/>
      <point x="-6" y="636"/>
      <point x="-6" y="619"/>
      <point x="-6" y="604" type="curve"/>
      <point x="46" y="601" type="line"/>
      <point x="48" y="601"/>
      <point x="49" y="599"/>
      <point x="51" y="598" type="curve"/>
      <point x="111" y="490"/>
      <point x="185" y="356"/>
      <point x="244" y="251" type="curve"/>
      <point x="244" y="55" type="line" smooth="yes"/>
      <point x="244" y="51"/>
      <point x="243" y="49"/>
      <point x="239" y="49" type="curve" smooth="yes"/>
    </contour>
  </outline>
</glyph>
<glyph name="bracketleft" format="1">
  <advance width="323"/>
  <unicode hex="005B"/>
  <outline>
    <contour>
      <point x="108" y="-128" type="line"/>
      <point x="166" y="-129"/>
      <point x="233" y="-130"/>
      <point x="293" y="-130" type="curve"/>
      <point x="294" y="-116"/>
      <point x="294" y="-99"/>
      <point x="294" y="-86" type="curve"/>
      <point x="172" y="-83" type="line"/>
      <point x="175" y="650" type="line" smooth="yes"/>
      <point x="175" y="653"/>
      <point x="175" y="658"/>
      <point x="181" y="658" type="curve" smooth="yes"/>
      <point x="293" y="661" type="line"/>
      <point x="294" y="675"/>
      <point x="294" y="690"/>
      <point x="294" y="703" type="curve"/>
      <point x="233" y="702"/>
      <point x="166" y="701"/>
      <point x="108" y="701" type="curve"/>
    </contour>
  </outline>
</glyph>
<glyph name="backslash" format="1">
  <advance width="392"/>
  <unicode hex="005C"/>
  <outline>
    <contour>
      <point x="329" y="-52" type="curve"/>
      <point x="347" y="-45"/>
      <point x="363" y="-37"/>
      <point x="378" y="-29" type="curve"/>
      <point x="319" y="107"/>
      <point x="264" y="237"/>
      <point x="208" y="366" type="curve" smooth="yes"/>
      <point x="163" y="473"/>
      <point x="107" y="608"/>
      <point x="64" y="709" type="curve"/>
      <point x="44" y="702"/>
      <point x="26" y="692"/>
      <point x="10" y="685" type="curve"/>
      <point x="52" y="589"/>
      <point x="114" y="446"/>
      <point x="157" y="345" type="curve" smooth="yes"/>
      <point x="208" y="228"/>
      <point x="281" y="60"/>
    </contour>
  </outline>
</glyph>
<glyph name="bracketright" format="1">
  <advance width="323"/>
  <unicode hex="005D"/>
  <outline>
    <contour>
      <point x="217" y="702" type="line"/>
      <point x="159" y="702"/>
      <point x="93" y="704"/>
      <point x="31" y="704" type="curve"/>
      <point x="31" y="691"/>
      <point x="31" y="675"/>
      <point x="32" y="661" type="curve"/>
      <point x="143" y="658" type="line" smooth="yes"/>
      <point x="150" y="658"/>
      <point x="150" y="653"/>
      <point x="150" y="650" type="curve" smooth="yes"/>
      <point x="150" y="-83" type="line"/>
      <point x="29" y="-86" type="line"/>
      <point x="29" y="-99"/>
      <point x="29" y="-116"/>
      <point x="30" y="-130" type="curve"/>
      <point x="90" y="-129"/>
      <point x="157" y="-128"/>
      <point x="214" y="-128" type="curve"/>
    </contour>
  </outline>
</glyph>
<glyph name="asciicircum" format="1">
  <advance width="524"/>
  <unicode hex="005E"/>
  <outline>
    <contour>
      <point x="243" y="631" type="curve"/>
      <point x="189" y="551"/>
      <point x="126" y="456"/>
      <point x="61" y="359" type="curve"/>
      <point x="75" y="348"/>
      <point x="90" y="337"/>
      <point x="104" y="327" type="curve"/>
      <point x="164" y="411"/>
      <point x="219" y="489"/>
      <point x="265" y="555" type="curve"/>
      <point x="314" y="487"/>
      <point x="371" y="409"/>
      <point x="430" y="327" type="curve"/>
      <point x="444" y="336"/>
      <point x="460" y="348"/>
      <point x="472" y="359" type="curve"/>
      <point x="406" y="456"/>
      <point x="344" y="550"/>
      <point x="288" y="632" type="curve"/>
      <point x="275" y="632"/>
      <point x="257" y="632"/>
    </contour>
  </outline>
</glyph>
<glyph name="grave" format="1">
  <advance width="333"/>
  <unicode hex="0060"/>
  <outline>
    <contour>
      <point x="119" y="640" type="curve"/>
      <point x="105" y="627"/>
      <point x="89" y="612"/>
      <point x="76" y="596" type="curve"/>
      <point x="124" y="558"/>
      <point x="178" y="512"/>
      <point x="223" y="475" type="curve"/>
      <point x="233" y="485"/>
      <point x="243" y="495"/>
      <point x="252" y="506" type="curve"/>
      <point x="212" y="546"/>
      <point x="162" y="598"/>
    </contour>
  </outline>
</glyph>
<glyph name="b" format="1">
  <advance width="509"/>
  <unicode hex="0062"/>
  <outline>
    <contour>
      <point x="150" y="382" type="line"/>
      <point x="151" y="488"/>
      <point x="153" y="608"/>
      <point x="153" y="698" type="curve" smooth="yes"/>
      <point x="153" y="700"/>
      <point x="151" y="701"/>
      <point x="150" y="701" type="curve" smooth="yes"/>
      <point x="142" y="701"/>
      <point x="46" y="681"/>
      <point x="3" y="676" type="curve"/>
      <point x="2" y="663"/>
      <point x="2" y="648"/>
      <point x="2" y="634" type="curve"/>
      <point x="75" y="631" type="line"/>
      <point x="75" y="470"/>
      <point x="75" y="273"/>
      <point x="75" y="112" type="curve"/>
      <point x="74" y="65"/>
      <point x="70" y="20"/>
      <point x="68" y="-5" type="curve"/>
      <point x="84" y="-9"/>
      <point x="102" y="-12"/>
      <point x="114" y="-13" type="curve"/>
      <point x="137" y="20" type="line"/>
      <point x="165" y="4"/>
      <point x="205" y="-10"/>
      <point x="250" y="-10" type="curve" smooth="yes"/>
      <point x="303" y="-10"/>
      <point x="343" y="5"/>
      <point x="364" y="19" type="curve" smooth="yes"/>
      <point x="402" y="43"/>
      <point x="431" y="83"/>
      <point x="445" y="115" type="curve" smooth="yes"/>
      <point x="463" y="158"/>
      <point x="469" y="194"/>
      <point x="469" y="244" type="curve" smooth="yes"/>
      <point x="469" y="334"/>
      <point x="402" y="430"/>
      <point x="309" y="430" type="curve" smooth="yes"/>
      <point x="270" y="430"/>
      <point x="248" y="426"/>
      <point x="154" y="380" type="curve"/>
    </contour>
    <contour>
      <point x="387" y="210" type="line" smooth="yes"/>
      <point x="387" y="152"/>
      <point x="370" y="104"/>
      <point x="341" y="74" type="curve" smooth="yes"/>
      <point x="317" y="49"/>
      <point x="285" y="37"/>
      <point x="251" y="37" type="curve" smooth="yes"/>
      <point x="199" y="37"/>
      <point x="150" y="65"/>
      <point x="150" y="89" type="curve" smooth="yes"/>
      <point x="150" y="164"/>
      <point x="151" y="248"/>
      <point x="151" y="324" type="curve"/>
      <point x="194" y="355"/>
      <point x="241" y="371"/>
      <point x="281" y="371" type="curve" smooth="yes"/>
      <point x="313" y="371"/>
      <point x="344" y="354"/>
      <point x="362" y="323" type="curve" smooth="yes"/>
      <point x="380" y="293"/>
      <point x="387" y="263"/>
      <point x="387" y="211" type="curve" smooth="yes"/>
    </contour>
  </outline>
</glyph>
<glyph name="f" format="1">
  <advance width="334"/>
  <unicode hex="0066"/>
  <outline>
    <contour>
      <point x="177" y="47" type="line"/>
      <point x="178" y="149"/>
      <point x="178" y="275"/>
      <point x="178" y="365" type="curve"/>
      <point x="221" y="365"/>
      <point x="282" y="365"/>
      <point x="321" y="365" type="curve"/>
      <point x="322" y="381"/>
      <point x="323" y="402"/>
      <point x="323" y="418" type="curve"/>
      <point x="277" y="417"/>
      <point x="227" y="417"/>
      <point x="179" y="417" type="curve"/>
      <point x="178" y="533"/>
      <point x="185" y="560"/>
      <point x="209" y="592" type="curve" smooth="yes"/>
      <point x="223" y="612"/>
      <point x="251" y="621"/>
      <point x="271" y="621" type="curve" smooth="yes"/>
      <point x="296" y="621"/>
      <point x="331" y="609"/>
      <point x="339" y="606" type="curve"/>
      <point x="353" y="617"/>
      <point x="371" y="654"/>
      <point x="371" y="671" type="curve"/>
      <point x="356" y="677"/>
      <point x="332" y="683"/>
      <point x="306" y="683" type="curve" smooth="yes"/>
      <point x="261" y="683"/>
      <point x="207" y="669"/>
      <point x="154" y="612" type="curve" smooth="yes"/>
      <point x="116" y="569"/>
      <point x="101" y="533"/>
      <point x="101" y="424" type="curve" smooth="yes"/>
      <point x="101" y="420"/>
      <point x="98" y="417"/>
      <point x="96" y="417" type="curve" smooth="yes"/>
      <point x="74" y="417"/>
      <point x="50" y="416"/>
      <point x="27" y="415" type="curve"/>
      <point x="26" y="400"/>
      <point x="26" y="383"/>
      <point x="26" y="366" type="curve"/>
      <point x="50" y="366"/>
      <point x="79" y="366"/>
      <point x="101" y="366" type="curve"/>
      <point x="102" y="264"/>
      <point x="101" y="157"/>
      <point x="101" y="51" type="curve" smooth="yes"/>
      <point x="101" y="49"/>
      <point x="100" y="47"/>
      <point x="98" y="47" type="curve"/>
      <point x="40" y="44" type="line"/>
      <point x="40" y="29"/>
      <point x="39" y="15"/>
      <point x="39" y="0" type="curve"/>
      <point x="70" y="0"/>
      <point x="109" y="1"/>
      <point x="139" y="1" type="curve" smooth="yes"/>
      <point x="186" y="1"/>
      <point x="236" y="1"/>
      <point x="274" y="1" type="curve"/>
      <point x="275" y="15"/>
      <point x="275" y="30"/>
      <point x="275" y="45" type="curve"/>
    </contour>
  </outline>
</glyph>
<glyph name="g" format="1">
  <advance width="466"/>
  <unicode hex="0067"/>
  <outline>
    <contour>
      <point x="138" y="115" type="line"/>
      <point x="64" y="63"/>
      <point x="60" y="60"/>
      <point x="60" y="52" type="curve" smooth="yes"/>
      <point x="60" y="9"/>
      <point x="90" y="-8"/>
      <point x="119" y="-17" type="curve"/>
      <point x="119" y="-22" type="line"/>
      <point x="94" y="-42"/>
      <point x="73" y="-56"/>
      <point x="36" y="-85" type="curve" smooth="yes"/>
      <point x="18" y="-100"/>
      <point x="14" y="-111"/>
      <point x="14" y="-130" type="curve" smooth="yes"/>
      <point x="14" y="-205"/>
      <point x="85" y="-245"/>
      <point x="205" y="-245" type="curve" smooth="yes"/>
      <point x="261" y="-245"/>
      <point x="316" y="-235"/>
      <point x="358" y="-217" type="curve" smooth="yes"/>
      <point x="426" y="-188"/>
      <point x="461" y="-137"/>
      <point x="461" y="-83" type="curve" smooth="yes"/>
      <point x="461" y="-43"/>
      <point x="446" y="-24"/>
      <point x="415" y="-4" type="curve" smooth="yes"/>
      <point x="388" y="14"/>
      <point x="342" y="19"/>
      <point x="270" y="22" type="curve" smooth="yes"/>
      <point x="171" y="26"/>
      <point x="139" y="29"/>
      <point x="139" y="55" type="curve" smooth="yes"/>
      <point x="139" y="69"/>
      <point x="164" y="88"/>
      <point x="188" y="107" type="curve"/>
      <point x="273" y="103"/>
      <point x="320" y="127"/>
      <point x="353" y="162" type="curve" smooth="yes"/>
      <point x="383" y="193"/>
      <point x="398" y="240"/>
      <point x="398" y="276" type="curve" smooth="yes"/>
      <point x="398" y="313"/>
      <point x="385" y="349"/>
      <point x="363" y="370" type="curve"/>
      <point x="363" y="374" type="line"/>
      <point x="383" y="374"/>
      <point x="437" y="374"/>
      <point x="458" y="374" type="curve"/>
      <point x="459" y="391"/>
      <point x="459" y="409"/>
      <point x="458" y="425" type="curve"/>
      <point x="426" y="423"/>
      <point x="370" y="421"/>
      <point x="327" y="420" type="curve"/>
      <point x="321" y="419"/>
      <point x="314" y="419"/>
      <point x="306" y="421" type="curve"/>
      <point x="294" y="425"/>
      <point x="268" y="430"/>
      <point x="237" y="430" type="curve" smooth="yes"/>
      <point x="117" y="430"/>
      <point x="45" y="349"/>
      <point x="45" y="262" type="curve" smooth="yes"/>
      <point x="45" y="184"/>
      <point x="94" y="141"/>
      <point x="138" y="120" type="curve"/>
    </contour>
    <contour>
      <point x="124" y="266" type="line" smooth="yes"/>
      <point x="124" y="344"/>
      <point x="165" y="387"/>
      <point x="227" y="387" type="curve" smooth="yes"/>
      <point x="261" y="387"/>
      <point x="282" y="375"/>
      <point x="297" y="356" type="curve" smooth="yes"/>
      <point x="313" y="336"/>
      <point x="320" y="310"/>
      <point x="320" y="273" type="curve" smooth="yes"/>
      <point x="320" y="192"/>
      <point x="276" y="149"/>
      <point x="220" y="149" type="curve" smooth="yes"/>
      <point x="170" y="149"/>
      <point x="124" y="180"/>
      <point x="124" y="265" type="curve" smooth="yes"/>
    </contour>
    <contour>
      <point x="386" y="-100" type="line" smooth="yes"/>
      <point x="386" y="-133"/>
      <point x="366" y="-159"/>
      <point x="331" y="-177" type="curve" smooth="yes"/>
      <point x="300" y="-194"/>
      <point x="254" y="-201"/>
      <point x="216" y="-201" type="curve" smooth="yes"/>
      <point x="161" y="-201"/>
      <point x="92" y="-181"/>
      <point x="92" y="-130" type="curve" smooth="yes"/>
      <point x="92" y="-97"/>
      <point x="124" y="-72"/>
      <point x="170" y="-32" type="curve"/>
      <point x="190" y="-33"/>
      <point x="224" y="-34"/>
      <point x="274" y="-38" type="curve" smooth="yes"/>
      <point x="360" y="-44"/>
      <point x="386" y="-53"/>
      <point x="386" y="-99" type="curve" smooth="yes"/>
    </contour>
  </outline>
</glyph>
<glyph name="h" format="1">
  <advance width="545"/>
  <unicode hex="0068"/>
  <outline>
    <contour>
      <point x="164" y="371" type="line"/>
      <point x="165" y="481"/>
      <point x="167" y="603"/>
      <point x="167" y="697" type="curve" smooth="yes"/>
      <point x="167" y="700"/>
      <point x="166" y="701"/>
      <point x="164" y="701" type="curve" smooth="yes"/>
      <point x="156" y="701"/>
      <point x="53" y="682"/>
      <point x="14" y="677" type="curve"/>
      <point x="13" y="665"/>
      <point x="12" y="649"/>
      <point x="13" y="635" type="curve"/>
      <point x="89" y="634" type="line"/>
      <point x="89" y="459"/>
      <point x="89" y="226"/>
      <point x="88" y="51" type="curve"/>
      <point x="88" y="49"/>
      <point x="87" y="47"/>
      <point x="85" y="47" type="curve"/>
      <point x="28" y="44" type="line"/>
      <point x="27" y="30"/>
      <point x="27" y="15"/>
      <point x="27" y="0" type="curve"/>
      <point x="57" y="0"/>
      <point x="95" y="1"/>
      <point x="124" y="1" type="curve" smooth="yes"/>
      <point x="164" y="1"/>
      <point x="206" y="1"/>
      <point x="239" y="1" type="curve"/>
      <point x="239" y="15"/>
      <point x="240" y="31"/>
      <point x="240" y="45" type="curve"/>
      <point x="163" y="47" type="line"/>
      <point x="163" y="122"/>
      <point x="164" y="236"/>
      <point x="165" y="315" type="curve"/>
      <point x="206" y="344"/>
      <point x="261" y="370"/>
      <point x="302" y="370" type="curve" smooth="yes"/>
      <point x="320" y="370"/>
      <point x="348" y="366"/>
      <point x="365" y="338" type="curve" smooth="yes"/>
      <point x="380" y="314"/>
      <point x="380" y="282"/>
      <point x="380" y="233" type="curve" smooth="yes"/>
      <point x="380" y="179"/>
      <point x="380" y="105"/>
      <point x="380" y="51" type="curve" smooth="yes"/>
      <point x="380" y="49"/>
      <point x="378" y="47"/>
      <point x="376" y="47" type="curve"/>
      <point x="317" y="44" type="line"/>
      <point x="317" y="29"/>
      <point x="316" y="14"/>
      <point x="317" y="0" type="curve"/>
      <point x="348" y="0"/>
      <point x="385" y="1"/>
      <point x="418" y="1" type="curve" smooth="yes"/>
      <point x="451" y="1"/>
      <point x="489" y="1"/>
      <point x="520" y="1" type="curve"/>
      <point x="521" y="15"/>
      <point x="521" y="31"/>
      <point x="521" y="45" type="curve"/>
      <point x="455" y="47" type="line"/>
      <point x="456" y="125"/>
      <point x="457" y="209"/>
      <point x="457" y="284" type="curve" smooth="yes"/>
      <point x="457" y="313"/>
      <point x="454" y="339"/>
      <point x="443" y="359" type="curve" smooth="yes"/>
      <point x="421" y="396"/>
      <point x="382" y="430"/>
      <point x="332" y="430" type="curve" smooth="yes"/>
      <point x="295" y="430"/>
      <point x="274" y="428"/>
      <point x="168" y="370" type="curve"/>
    </contour>
  </outline>
</glyph>
<glyph name="i" format="1">
  <advance width="266"/>
  <unicode hex="0069"/>
  <outline>
    <contour>
      <point x="135" y="632" type="line" smooth="yes"/>
      <point x="99" y="632"/>
      <point x="79" y="607"/>
      <point x="79" y="579" type="curve" smooth="yes"/>
      <point x="79" y="550"/>
      <point x="102" y="526"/>
      <point x="133" y="526" type="curve" smooth="yes"/>
      <point x="164" y="526"/>
      <point x="186" y="549"/>
      <point x="186" y="580" type="curve" smooth="yes"/>
      <point x="186" y="602"/>
      <point x="173" y="632"/>
      <point x="136" y="632" type="curve" smooth="yes"/>
    </contour>
    <contour>
      <point x="102" y="361" type="line"/>
      <point x="102" y="51" type="line" smooth="yes"/>
      <point x="102" y="49"/>
      <point x="101" y="47"/>
      <point x="98" y="47" type="curve" smooth="yes"/>
      <point x="31" y="44" type="line"/>
      <point x="31" y="30"/>
      <point x="31" y="15"/>
      <point x="31" y="0" type="curve"/>
      <point x="64" y="0"/>
      <point x="101" y="1"/>
      <point x="135" y="1" type="curve" smooth="yes"/>
      <point x="172" y="1"/>
      <point x="214" y="1"/>
      <point x="246" y="1" type="curve"/>
      <point x="247" y="15"/>
      <point x="247" y="29"/>
      <point x="247" y="44" type="curve"/>
      <point x="177" y="47" type="line"/>
      <point x="177" y="153"/>
      <point x="179" y="317"/>
      <point x="179" y="427" type="curve" smooth="yes"/>
      <point x="179" y="429"/>
      <point x="179" y="430"/>
      <point x="177" y="430" type="curve" smooth="yes"/>
      <point x="169" y="430"/>
      <point x="68" y="411"/>
      <point x="25" y="405" type="curve"/>
      <point x="25" y="392"/>
      <point x="25" y="377"/>
      <point x="25" y="363" type="curve"/>
    </contour>
  </outline>
</glyph>
<glyph name="j" format="1">
  <advance width="244"/>
  <unicode hex="006A"/>
  <outline>
    <contour>
      <point x="121" y="632" type="line" smooth="yes"/>
      <point x="85" y="632"/>
      <point x="67" y="602"/>
      <point x="67" y="578" type="curve" smooth="yes"/>
      <point x="67" y="549"/>
      <point x="90" y="525"/>
      <point x="121" y="525" type="curve" smooth="yes"/>
      <point x="153" y="525"/>
      <point x="173" y="550"/>
      <point x="173" y="578" type="curve" smooth="yes"/>
      <point x="173" y="600"/>
      <point x="160" y="632"/>
      <point x="122" y="632" type="curve" smooth="yes"/>
    </contour>
    <contour>
      <point x="95" y="359" type="line"/>
      <point x="97" y="64" type="line" smooth="yes"/>
      <point x="97" y="-28"/>
      <point x="84" y="-77"/>
      <point x="65" y="-111" type="curve" smooth="yes"/>
      <point x="45" y="-147"/>
      <point x="7" y="-170"/>
      <point x="-30" y="-187" type="curve"/>
      <point x="-26" y="-205"/>
      <point x="11" y="-231"/>
      <point x="27" y="-232" type="curve"/>
      <point x="76" y="-204"/>
      <point x="110" y="-158"/>
      <point x="132" y="-112" type="curve" smooth="yes"/>
      <point x="164" y="-52"/>
      <point x="172" y="-3"/>
      <point x="172" y="84" type="curve" smooth="yes"/>
      <point x="172" y="186"/>
      <point x="173" y="326"/>
      <point x="173" y="427" type="curve" smooth="yes"/>
      <point x="173" y="429"/>
      <point x="173" y="430"/>
      <point x="171" y="430" type="curve" smooth="yes"/>
      <point x="163" y="430"/>
      <point x="55" y="409"/>
      <point x="15" y="403" type="curve"/>
      <point x="14" y="389"/>
      <point x="14" y="374"/>
      <point x="14" y="360" type="curve"/>
    </contour>
  </outline>
</glyph>
<glyph name="l" format="1">
  <advance width="256"/>
  <unicode hex="006C"/>
  <outline>
    <contour>
      <point x="90" y="633" type="line"/>
      <point x="91" y="458"/>
      <point x="90" y="227"/>
      <point x="89" y="51" type="curve"/>
      <point x="89" y="49"/>
      <point x="88" y="47"/>
      <point x="86" y="47" type="curve" smooth="yes"/>
      <point x="19" y="44" type="line"/>
      <point x="18" y="30"/>
      <point x="18" y="14"/>
      <point x="18" y="0" type="curve"/>
      <point x="51" y="0"/>
      <point x="90" y="1"/>
      <point x="126" y="1" type="curve" smooth="yes"/>
      <point x="168" y="1"/>
      <point x="209" y="1"/>
      <point x="242" y="1" type="curve"/>
      <point x="243" y="15"/>
      <point x="243" y="31"/>
      <point x="243" y="45" type="curve"/>
      <point x="165" y="47" type="line"/>
      <point x="166" y="246"/>
      <point x="168" y="516"/>
      <point x="169" y="697" type="curve" smooth="yes"/>
      <point x="169" y="700"/>
      <point x="168" y="701"/>
      <point x="166" y="701" type="curve" smooth="yes"/>
      <point x="158" y="701"/>
      <point x="54" y="682"/>
      <point x="11" y="678" type="curve"/>
      <point x="11" y="664"/>
      <point x="10" y="649"/>
      <point x="10" y="635" type="curve"/>
    </contour>
  </outline>
</glyph>
<glyph name="m" format="1">
  <advance width="812"/>
  <unicode hex="006D"/>
  <outline>
    <contour>
      <point x="101" y="360" type="line"/>
      <point x="101" y="51" type="line" smooth="yes"/>
      <point x="101" y="49"/>
      <point x="100" y="47"/>
      <point x="98" y="47" type="curve"/>
      <point x="39" y="44" type="line"/>
      <point x="38" y="30"/>
      <point x="38" y="14"/>
      <point x="38" y="0" type="curve"/>
      <point x="67" y="0"/>
      <point x="105" y="1"/>
      <point x="136" y="1" type="curve" smooth="yes"/>
      <point x="174" y="1"/>
      <point x="213" y="1"/>
      <point x="246" y="1" type="curve"/>
      <point x="247" y="14"/>
      <point x="247" y="30"/>
      <point x="247" y="44" type="curve"/>
      <point x="176" y="47" type="line"/>
      <point x="176" y="132"/>
      <point x="177" y="234"/>
      <point x="179" y="319" type="curve"/>
      <point x="217" y="350"/>
      <point x="268" y="373"/>
      <point x="301" y="373" type="curve" smooth="yes"/>
      <point x="324" y="373"/>
      <point x="348" y="367"/>
      <point x="364" y="339" type="curve" smooth="yes"/>
      <point x="376" y="317"/>
      <point x="376" y="294"/>
      <point x="376" y="256" type="curve" smooth="yes"/>
      <point x="376" y="193"/>
      <point x="376" y="117"/>
      <point x="376" y="51" type="curve" smooth="yes"/>
      <point x="376" y="49"/>
      <point x="374" y="47"/>
      <point x="372" y="47" type="curve"/>
      <point x="316" y="44" type="line"/>
      <point x="315" y="29"/>
      <point x="315" y="14"/>
      <point x="315" y="0" type="curve"/>
      <point x="341" y="0"/>
      <point x="375" y="1"/>
      <point x="406" y="1" type="curve" smooth="yes"/>
      <point x="444" y="1"/>
      <point x="484" y="1"/>
      <point x="517" y="1" type="curve"/>
      <point x="518" y="15"/>
      <point x="518" y="30"/>
      <point x="518" y="44" type="curve"/>
      <point x="450" y="47" type="line"/>
      <point x="450" y="133"/>
      <point x="452" y="243"/>
      <point x="451" y="319" type="curve"/>
      <point x="486" y="345"/>
      <point x="532" y="371"/>
      <point x="570" y="371" type="curve" smooth="yes"/>
      <point x="598" y="371"/>
      <point x="624" y="361"/>
      <point x="638" y="331" type="curve" smooth="yes"/>
      <point x="648" y="310"/>
      <point x="649" y="282"/>
      <point x="649" y="249" type="curve" smooth="yes"/>
      <point x="649" y="195"/>
      <point x="649" y="118"/>
      <point x="648" y="51" type="curve"/>
      <point x="648" y="49"/>
      <point x="647" y="47"/>
      <point x="645" y="47" type="curve"/>
      <point x="589" y="43" type="line"/>
      <point x="588" y="30"/>
      <point x="588" y="14"/>
      <point x="588" y="0" type="curve"/>
      <point x="616" y="0"/>
      <point x="649" y="1"/>
      <point x="682" y="1" type="curve" smooth="yes"/>
      <point x="717" y="1"/>
      <point x="755" y="1"/>
      <point x="786" y="1" type="curve"/>
      <point x="786" y="14"/>
      <point x="787" y="31"/>
      <point x="787" y="44" type="curve"/>
      <point x="723" y="47" type="line"/>
      <point x="723" y="124"/>
      <point x="726" y="213"/>
      <point x="726" y="288" type="curve" smooth="yes"/>
      <point x="726" y="316"/>
      <point x="718" y="341"/>
      <point x="704" y="364" type="curve" smooth="yes"/>
      <point x="688" y="389"/>
      <point x="655" y="428"/>
      <point x="599" y="428" type="curve" smooth="yes"/>
      <point x="559" y="428"/>
      <point x="535" y="424"/>
      <point x="439" y="364" type="curve"/>
      <point x="436" y="364" type="line"/>
      <point x="421" y="387"/>
      <point x="385" y="430"/>
      <point x="329" y="430" type="curve" smooth="yes"/>
      <point x="295" y="430"/>
      <point x="274" y="428"/>
      <point x="179" y="372" type="curve"/>
      <point x="175" y="373" type="line"/>
      <point x="173" y="390"/>
      <point x="169" y="410"/>
      <point x="167" y="426" type="curve"/>
      <point x="167" y="428"/>
      <point x="166" y="429"/>
      <point x="164" y="429" type="curve" smooth="yes"/>
      <point x="157" y="429"/>
      <point x="66" y="410"/>
      <point x="26" y="404" type="curve"/>
      <point x="25" y="392"/>
      <point x="25" y="376"/>
      <point x="25" y="363" type="curve"/>
    </contour>
  </outline>
</glyph>
<glyph name="p" format="1">
  <advance width="522"/>
  <unicode hex="0070"/>
  <outline>
    <contour>
      <point x="159" y="376" type="line"/>
      <point x="157" y="392"/>
      <point x="154" y="411"/>
      <point x="151" y="427" type="curve"/>
      <point x="151" y="429"/>
      <point x="150" y="430"/>
      <point x="148" y="430" type="curve" smooth="yes"/>
      <point x="142" y="430"/>
      <point x="49" y="408"/>
      <point x="11" y="402" type="curve"/>
      <point x="10" y="389"/>
      <point x="10" y="374"/>
      <point x="10" y="361" type="curve"/>
      <point x="86" y="360" type="line"/>
      <point x="86" y="-175" type="line" smooth="yes"/>
      <point x="86" y="-178"/>
      <point x="84" y="-180"/>
      <point x="82" y="-181" type="curve"/>
      <point x="24" y="-184" type="line"/>
      <point x="23" y="-198"/>
      <point x="23" y="-213"/>
      <point x="23" y="-227" type="curve"/>
      <point x="53" y="-226"/>
      <point x="90" y="-226"/>
      <point x="123" y="-226" type="curve" smooth="yes"/>
      <point x="167" y="-225"/>
      <point x="215" y="-225"/>
      <point x="253" y="-225" type="curve"/>
      <point x="254" y="-211"/>
      <point x="254" y="-196"/>
      <point x="254" y="-182" type="curve"/>
      <point x="161" y="-180" type="line"/>
      <point x="161" y="-125"/>
      <point x="162" y="-45"/>
      <point x="161" y="11" type="curve"/>
      <point x="165" y="13" type="line"/>
      <point x="193" y="-1"/>
      <point x="224" y="-10"/>
      <point x="267" y="-10" type="curve" smooth="yes"/>
      <point x="312" y="-10"/>
      <point x="356" y="4"/>
      <point x="378" y="19" type="curve" smooth="yes"/>
      <point x="421" y="48"/>
      <point x="440" y="79"/>
      <point x="457" y="116" type="curve" smooth="yes"/>
      <point x="474" y="154"/>
      <point x="481" y="191"/>
      <point x="481" y="239" type="curve" smooth="yes"/>
      <point x="482" y="327"/>
      <point x="421" y="430"/>
      <point x="320" y="430" type="curve" smooth="yes"/>
      <point x="278" y="430"/>
      <point x="263" y="426"/>
      <point x="164" y="375" type="curve"/>
    </contour>
    <contour>
      <point x="399" y="214" type="line" smooth="yes"/>
      <point x="399" y="148"/>
      <point x="381" y="103"/>
      <point x="351" y="73" type="curve" smooth="yes"/>
      <point x="327" y="48"/>
      <point x="293" y="38"/>
      <point x="264" y="38" type="curve" smooth="yes"/>
      <point x="215" y="38"/>
      <point x="163" y="67"/>
      <point x="163" y="89" type="curve" smooth="yes"/>
      <point x="163" y="160"/>
      <point x="164" y="247"/>
      <point x="164" y="323" type="curve"/>
      <point x="207" y="354"/>
      <point x="254" y="370"/>
      <point x="291" y="370" type="curve" smooth="yes"/>
      <point x="329" y="370"/>
      <point x="361" y="349"/>
      <point x="378" y="318" type="curve" smooth="yes"/>
      <point x="394" y="286"/>
      <point x="399" y="251"/>
      <point x="399" y="215" type="curve" smooth="yes"/>
    </contour>
  </outline>
</glyph>
<glyph name="q" format="1">
  <advance width="507"/>
  <unicode hex="0071"/>
  <outline>
    <contour>
      <point x="359" y="34" type="line"/>
      <point x="358" y="-173" type="line"/>
      <point x="358" y="-177"/>
      <point x="356" y="-179"/>
      <point x="354" y="-179" type="curve"/>
      <point x="268" y="-185" type="line"/>
      <point x="267" y="-199"/>
      <point x="267" y="-214"/>
      <point x="267" y="-228" type="curve"/>
      <point x="309" y="-227"/>
      <point x="354" y="-226"/>
      <point x="393" y="-225" type="curve" smooth="yes"/>
      <point x="430" y="-225"/>
      <point x="463" y="-224"/>
      <point x="495" y="-224" type="curve"/>
      <point x="496" y="-210"/>
      <point x="496" y="-194"/>
      <point x="496" y="-180" type="curve"/>
      <point x="433" y="-179" type="line"/>
      <point x="432" y="-42"/>
      <point x="435" y="192"/>
      <point x="435" y="336" type="curve" smooth="yes"/>
      <point x="435" y="374"/>
      <point x="437" y="404"/>
      <point x="439" y="428" type="curve"/>
      <point x="425" y="432"/>
      <point x="409" y="434"/>
      <point x="396" y="435" type="curve"/>
      <point x="369" y="407" type="line"/>
      <point x="338" y="418"/>
      <point x="298" y="429"/>
      <point x="260" y="429" type="curve" smooth="yes"/>
      <point x="194" y="429"/>
      <point x="142" y="406"/>
      <point x="106" y="364" type="curve" smooth="yes"/>
      <point x="64" y="317"/>
      <point x="41" y="260"/>
      <point x="41" y="193" type="curve" smooth="yes"/>
      <point x="41" y="127"/>
      <point x="64" y="75"/>
      <point x="100" y="40" type="curve" smooth="yes"/>
      <point x="134" y="6"/>
      <point x="177" y="-9"/>
      <point x="225" y="-9" type="curve" smooth="yes"/>
      <point x="258" y="-9"/>
      <point x="277" y="-6"/>
      <point x="352" y="34" type="curve"/>
    </contour>
    <contour>
      <point x="259" y="378" type="line" smooth="yes"/>
      <point x="291" y="378"/>
      <point x="327" y="369"/>
      <point x="357" y="351" type="curve"/>
      <point x="358" y="275"/>
      <point x="357" y="189"/>
      <point x="357" y="100" type="curve" smooth="yes"/>
      <point x="357" y="94"/>
      <point x="357" y="88"/>
      <point x="352" y="85" type="curve" smooth="yes"/>
      <point x="317" y="62"/>
      <point x="280" y="44"/>
      <point x="244" y="44" type="curve" smooth="yes"/>
      <point x="215" y="44"/>
      <point x="180" y="57"/>
      <point x="158" y="84" type="curve" smooth="yes"/>
      <point x="133" y="115"/>
      <point x="124" y="153"/>
      <point x="124" y="201" type="curve" smooth="yes"/>
      <point x="124" y="255"/>
      <point x="135" y="298"/>
      <point x="160" y="330" type="curve" smooth="yes"/>
      <point x="182" y="361"/>
      <point x="218" y="378"/>
      <point x="258" y="378" type="curve" smooth="yes"/>
    </contour>
  </outline>
</glyph>
<glyph name="v" format="1">
  <advance width="473"/>
  <unicode hex="0076"/>
  <outline>
    <contour>
      <point x="475" y="376" type="line"/>
      <point x="476" y="391"/>
      <point x="476" y="407"/>
      <point x="476" y="420" type="curve"/>
      <point x="453" y="420"/>
      <point x="426" y="419"/>
      <point x="399" y="419" type="curve" smooth="yes"/>
      <point x="365" y="419"/>
      <point x="328" y="419"/>
      <point x="297" y="419" type="curve"/>
      <point x="296" y="406"/>
      <point x="296" y="390"/>
      <point x="296" y="375" type="curve"/>
      <point x="354" y="373" type="line" smooth="yes"/>
      <point x="356" y="373"/>
      <point x="357" y="372"/>
      <point x="356" y="369" type="curve" smooth="yes"/>
      <point x="345" y="333"/>
      <point x="327" y="286"/>
      <point x="300" y="217" type="curve" smooth="yes"/>
      <point x="275" y="151"/>
      <point x="260" y="118"/>
      <point x="242" y="76" type="curve"/>
      <point x="236" y="76" type="line"/>
      <point x="221" y="119"/>
      <point x="208" y="161"/>
      <point x="185" y="232" type="curve" smooth="yes"/>
      <point x="163" y="302"/>
      <point x="149" y="350"/>
      <point x="143" y="373" type="curve"/>
      <point x="210" y="376" type="line"/>
      <point x="211" y="390"/>
      <point x="211" y="406"/>
      <point x="211" y="420" type="curve"/>
      <point x="176" y="420"/>
      <point x="136" y="420"/>
      <point x="98" y="420" type="curve" smooth="yes"/>
      <point x="64" y="420"/>
      <point x="30" y="420"/>
      <point x="3" y="420" type="curve"/>
      <point x="2" y="406"/>
      <point x="2" y="391"/>
      <point x="2" y="376" type="curve"/>
      <point x="54" y="373" type="line"/>
      <point x="56" y="373"/>
      <point x="57" y="372"/>
      <point x="58" y="370" type="curve"/>
      <point x="71" y="333"/>
      <point x="86" y="292"/>
      <point x="114" y="209" type="curve" smooth="yes"/>
      <point x="145" y="119"/>
      <point x="162" y="78"/>
      <point x="196" y="-10" type="curve"/>
      <point x="217" y="-10"/>
      <point x="239" y="-10"/>
      <point x="253" y="-9" type="curve"/>
      <point x="291" y="66"/>
      <point x="313" y="114"/>
      <point x="342" y="181" type="curve" smooth="yes"/>
      <point x="383" y="272"/>
      <point x="414" y="343"/>
      <point x="428" y="373" type="curve"/>
    </contour>
  </outline>
</glyph>
<glyph name="w" format="1">
  <advance width="680"/>
  <unicode hex="0077"/>
  <outline>
    <contour>
      <point x="681" y="377" type="line"/>
      <point x="682" y="391"/>
      <point x="682" y="407"/>
      <point x="682" y="420" type="curve"/>
      <point x="661" y="420"/>
      <point x="635" y="419"/>
      <point x="611" y="419" type="curve" smooth="yes"/>
      <point x="576" y="419"/>
      <point x="540" y="419"/>
      <point x="510" y="419" type="curve"/>
      <point x="509" y="406"/>
      <point x="509" y="390"/>
      <point x="509" y="375" type="curve"/>
      <point x="566" y="373" type="line" smooth="yes"/>
      <point x="569" y="373"/>
      <point x="570" y="372"/>
      <point x="569" y="369" type="curve"/>
      <point x="561" y="334"/>
      <point x="548" y="281"/>
      <point x="531" y="221" type="curve" smooth="yes"/>
      <point x="515" y="166"/>
      <point x="505" y="132"/>
      <point x="489" y="76" type="curve"/>
      <point x="483" y="76" type="line"/>
      <point x="460" y="149"/>
      <point x="408" y="322"/>
      <point x="386" y="394" type="curve"/>
      <point x="363" y="394"/>
      <point x="338" y="394"/>
      <point x="328" y="393" type="curve"/>
      <point x="290" y="297"/>
      <point x="235" y="153"/>
      <point x="206" y="78" type="curve"/>
      <point x="201" y="78" type="line"/>
      <point x="191" y="118"/>
      <point x="178" y="174"/>
      <point x="166" y="231" type="curve" smooth="yes"/>
      <point x="153" y="292"/>
      <point x="140" y="352"/>
      <point x="137" y="374" type="curve"/>
      <point x="207" y="376" type="line"/>
      <point x="208" y="390"/>
      <point x="208" y="406"/>
      <point x="208" y="420" type="curve"/>
      <point x="171" y="420"/>
      <point x="131" y="419"/>
      <point x="93" y="419" type="curve" smooth="yes"/>
      <point x="62" y="419"/>
      <point x="31" y="420"/>
      <point x="7" y="420" type="curve"/>
      <point x="6" y="406"/>
      <point x="6" y="390"/>
      <point x="6" y="376" type="curve"/>
      <point x="53" y="373" type="line"/>
      <point x="56" y="373"/>
      <point x="57" y="372"/>
      <point x="57" y="370" type="curve"/>
      <point x="68" y="328"/>
      <point x="83" y="272"/>
      <point x="100" y="205" type="curve" smooth="yes"/>
      <point x="116" y="144"/>
      <point x="136" y="74"/>
      <point x="162" y="-11" type="curve"/>
      <point x="183" y="-11"/>
      <point x="202" y="-11"/>
      <point x="216" y="-10" type="curve"/>
      <point x="250" y="65"/>
      <point x="310" y="205"/>
      <point x="343" y="292" type="curve"/>
      <point x="348" y="293" type="line"/>
      <point x="378" y="187"/>
      <point x="411" y="86"/>
      <point x="446" y="-11" type="curve"/>
      <point x="471" y="-11"/>
      <point x="489" y="-11"/>
      <point x="504" y="-10" type="curve"/>
      <point x="530" y="57"/>
      <point x="551" y="116"/>
      <point x="574" y="185" type="curve" smooth="yes"/>
      <point x="604" y="274"/>
      <point x="624" y="337"/>
      <point x="636" y="374" type="curve"/>
    </contour>
  </outline>
</glyph>
<glyph name="x" format="1">
  <advance width="474"/>
  <unicode hex="0078"/>
  <outline>
    <contour>
      <point x="1" y="43" type="line"/>
      <point x="0" y="29"/>
      <point x="0" y="14"/>
      <point x="0" y="0" type="curve"/>
      <point x="24" y="0"/>
      <point x="52" y="1"/>
      <point x="77" y="1" type="curve" smooth="yes"/>
      <point x="111" y="1"/>
      <point x="146" y="1"/>
      <point x="175" y="1" type="curve"/>
      <point x="176" y="15"/>
      <point x="176" y="31"/>
      <point x="176" y="44" type="curve"/>
      <point x="121" y="46" type="line"/>
      <point x="148" y="82"/>
      <point x="189" y="135"/>
      <point x="225" y="176" type="curve"/>
      <point x="230" y="176" type="line"/>
      <point x="261" y="136"/>
      <point x="296" y="91"/>
      <point x="322" y="52" type="curve" smooth="yes"/>
      <point x="324" y="49"/>
      <point x="323" y="46"/>
      <point x="318" y="46" type="curve" smooth="yes"/>
      <point x="266" y="44" type="line"/>
      <point x="265" y="30"/>
      <point x="265" y="14"/>
      <point x="265" y="0" type="curve"/>
      <point x="300" y="0"/>
      <point x="339" y="1"/>
      <point x="376" y="1" type="curve" smooth="yes"/>
      <point x="409" y="1"/>
      <point x="440" y="0"/>
      <point x="467" y="0" type="curve"/>
      <point x="468" y="14"/>
      <point x="468" y="31"/>
      <point x="468" y="44" type="curve"/>
      <point x="415" y="46" type="line"/>
      <point x="380" y="91"/>
      <point x="329" y="159"/>
      <point x="283" y="217" type="curve"/>
      <point x="283" y="222" type="line"/>
      <point x="343" y="290"/>
      <point x="389" y="345"/>
      <point x="414" y="373" type="curve"/>
      <point x="460" y="377" type="line"/>
      <point x="461" y="390"/>
      <point x="461" y="407"/>
      <point x="461" y="420" type="curve"/>
      <point x="439" y="420"/>
      <point x="412" y="419"/>
      <point x="386" y="419" type="curve" smooth="yes"/>
      <point x="353" y="419"/>
      <point x="319" y="419"/>
      <point x="290" y="419" type="curve"/>
      <point x="290" y="405"/>
      <point x="289" y="389"/>
      <point x="289" y="375" type="curve"/>
      <point x="339" y="373" type="line" smooth="yes"/>
      <point x="341" y="373"/>
      <point x="342" y="371"/>
      <point x="340" y="369" type="curve"/>
      <point x="321" y="340"/>
      <point x="292" y="303"/>
      <point x="255" y="255" type="curve"/>
      <point x="249" y="255" type="line"/>
      <point x="217" y="300"/>
      <point x="183" y="347"/>
      <point x="165" y="373" type="curve"/>
      <point x="223" y="376" type="line"/>
      <point x="224" y="390"/>
      <point x="224" y="406"/>
      <point x="224" y="419" type="curve"/>
      <point x="191" y="419"/>
      <point x="153" y="419"/>
      <point x="117" y="419" type="curve" smooth="yes"/>
      <point x="83" y="419"/>
      <point x="50" y="419"/>
      <point x="23" y="419" type="curve"/>
      <point x="22" y="406"/>
      <point x="22" y="390"/>
      <point x="22" y="376" type="curve"/>
      <point x="70" y="373" type="line"/>
      <point x="72" y="373"/>
      <point x="75" y="371"/>
      <point x="76" y="370" type="curve"/>
      <point x="111" y="325"/>
      <point x="152" y="273"/>
      <point x="195" y="218" type="curve"/>
      <point x="195" y="211" type="line"/>
      <point x="143" y="153"/>
      <point x="90" y="93"/>
      <point x="52" y="51" type="curve" smooth="yes"/>
      <point x="50" y="49"/>
      <point x="46" y="46"/>
      <point x="42" y="46" type="curve"/>
    </contour>
  </outline>
</glyph>
<glyph name="y" format="1">
  <advance width="462"/>
  <unicode hex="0079"/>
  <outline>
    <contour>
      <point x="466" y="376" type="line"/>
      <point x="467" y="391"/>
      <point x="467" y="407"/>
      <point x="467" y="420" type="curve"/>
      <point x="444" y="420"/>
      <point x="416" y="419"/>
      <point x="389" y="419" type="curve" smooth="yes"/>
      <point x="355" y="419"/>
      <point x="318" y="419"/>
      <point x="288" y="419" type="curve"/>
      <point x="287" y="406"/>
      <point x="287" y="390"/>
      <point x="287" y="375" type="curve"/>
      <point x="348" y="373" type="line" smooth="yes"/>
      <point x="351" y="373"/>
      <point x="352" y="371"/>
      <point x="351" y="368" type="curve" smooth="yes"/>
      <point x="340" y="333"/>
      <point x="326" y="285"/>
      <point x="300" y="216" type="curve" smooth="yes"/>
      <point x="279" y="158"/>
      <point x="264" y="121"/>
      <point x="245" y="76" type="curve"/>
      <point x="240" y="76" type="line"/>
      <point x="223" y="122"/>
      <point x="205" y="172"/>
      <point x="183" y="235" type="curve" smooth="yes"/>
      <point x="161" y="299"/>
      <point x="146" y="346"/>
      <point x="138" y="373" type="curve"/>
      <point x="208" y="376" type="line"/>
      <point x="209" y="390"/>
      <point x="209" y="406"/>
      <point x="209" y="420" type="curve"/>
      <point x="170" y="420"/>
      <point x="129" y="420"/>
      <point x="88" y="420" type="curve" smooth="yes"/>
      <point x="57" y="420"/>
      <point x="26" y="420"/>
      <point x="2" y="420" type="curve"/>
      <point x="1" y="407"/>
      <point x="1" y="390"/>
      <point x="1" y="376" type="curve"/>
      <point x="50" y="373" type="line"/>
      <point x="52" y="373"/>
      <point x="54" y="372"/>
      <point x="55" y="370" type="curve"/>
      <point x="71" y="330"/>
      <point x="88" y="281"/>
      <point x="113" y="215" type="curve" smooth="yes"/>
      <point x="142" y="139"/>
      <point x="166" y="78"/>
      <point x="199" y="-2" type="curve"/>
      <point x="182" y="-42"/>
      <point x="151" y="-89"/>
      <point x="123" y="-121" type="curve" smooth="yes"/>
      <point x="99" y="-151"/>
      <point x="68" y="-178"/>
      <point x="34" y="-201" type="curve"/>
      <point x="34" y="-214"/>
      <point x="79" y="-245"/>
      <point x="96" y="-245" type="curve"/>
      <point x="122" y="-230"/>
      <point x="151" y="-194"/>
      <point x="182" y="-147" type="curve" smooth="yes"/>
      <point x="235" y="-67"/>
      <point x="308" y="96"/>
      <point x="340" y="172" type="curve" smooth="yes"/>
      <point x="377" y="262"/>
      <point x="411" y="343"/>
      <point x="422" y="373" type="curve"/>
    </contour>
  </outline>
</glyph>
<glyph name="z" format="1">
  <advance width="441"/>
  <unicode hex="007A"/>
  <outline>
    <contour>
      <point x="121" y="51" type="line"/>
      <point x="190" y="129"/>
      <point x="356" y="317"/>
      <point x="399" y="370" type="curve"/>
      <point x="395" y="386"/>
      <point x="390" y="404"/>
      <point x="384" y="419" type="curve"/>
      <point x="312" y="419"/>
      <point x="236" y="419"/>
      <point x="163" y="419" type="curve" smooth="yes"/>
      <point x="117" y="419"/>
      <point x="84" y="420"/>
      <point x="70" y="420" type="curve"/>
      <point x="60" y="377"/>
      <point x="51" y="332"/>
      <point x="41" y="288" type="curve"/>
      <point x="57" y="284"/>
      <point x="76" y="280"/>
      <point x="93" y="278" type="curve"/>
      <point x="119" y="357" type="line" smooth="yes"/>
      <point x="122" y="366"/>
      <point x="127" y="372"/>
      <point x="147" y="372" type="curve" smooth="yes"/>
      <point x="182" y="373"/>
      <point x="270" y="374"/>
      <point x="306" y="374" type="curve"/>
      <point x="307" y="369" type="line"/>
      <point x="231" y="277"/>
      <point x="106" y="131"/>
      <point x="28" y="40" type="curve"/>
      <point x="32" y="27"/>
      <point x="37" y="12"/>
      <point x="42" y="0" type="curve"/>
      <point x="58" y="0"/>
      <point x="114" y="0"/>
      <point x="131" y="0" type="curve" smooth="yes"/>
      <point x="248" y="0" type="line" smooth="yes"/>
      <point x="320" y="0"/>
      <point x="369" y="-1"/>
      <point x="382" y="-1" type="curve"/>
      <point x="394" y="46"/>
      <point x="405" y="92"/>
      <point x="416" y="138" type="curve"/>
      <point x="401" y="142"/>
      <point x="383" y="146"/>
      <point x="365" y="149" type="curve"/>
      <point x="337" y="70" type="line" smooth="yes"/>
      <point x="332" y="56"/>
      <point x="320" y="51"/>
      <point x="306" y="50" type="curve" smooth="yes"/>
      <point x="261" y="46"/>
      <point x="181" y="46"/>
      <point x="122" y="46" type="curve"/>
    </contour>
  </outline>
</glyph>
<glyph name="braceleft" format="1">
  <advance width="334"/>
  <unicode hex="007B"/>
  <outline>
    <contour>
      <point x="135" y="297" type="line"/>
      <point x="177" y="309"/>
      <point x="199" y="340"/>
      <point x="199" y="379" type="curve" smooth="yes"/>
      <point x="199" y="438"/>
      <point x="180" y="484"/>
      <point x="180" y="548" type="curve" smooth="yes"/>
      <point x="180" y="622"/>
      <point x="215" y="666"/>
      <point x="308" y="666" type="curve"/>
      <point x="309" y="680"/>
      <point x="309" y="695"/>
      <point x="308" y="708" type="curve"/>
      <point x="178" y="707"/>
      <point x="112" y="642"/>
      <point x="112" y="540" type="curve" smooth="yes"/>
      <point x="112" y="471"/>
      <point x="135" y="422"/>
      <point x="135" y="372" type="curve" smooth="yes"/>
      <point x="135" y="339"/>
      <point x="122" y="312"/>
      <point x="48" y="312" type="curve"/>
      <point x="48" y="298"/>
      <point x="48" y="282"/>
      <point x="49" y="268" type="curve"/>
      <point x="123" y="271"/>
      <point x="135" y="236"/>
      <point x="135" y="200" type="curve" smooth="yes"/>
      <point x="135" y="147"/>
      <point x="110" y="93"/>
      <point x="110" y="22" type="curve" smooth="yes"/>
      <point x="110" y="-71"/>
      <point x="186" y="-138"/>
      <point x="306" y="-138" type="curve"/>
      <point x="306" y="-124"/>
      <point x="306" y="-108"/>
      <point x="305" y="-95" type="curve"/>
      <point x="220" y="-96"/>
      <point x="178" y="-48"/>
      <point x="178" y="20" type="curve" smooth="yes"/>
      <point x="178" y="87"/>
      <point x="198" y="132"/>
      <point x="198" y="204" type="curve" smooth="yes"/>
      <point x="199" y="242"/>
      <point x="177" y="278"/>
      <point x="135" y="291" type="curve"/>
    </contour>
  </outline>
</glyph>
<glyph name="bar" format="1">
  <advance width="524"/>
  <unicode hex="007C"/>
  <outline>
    <contour>
      <point x="236" y="750" type="line"/>
      <point x="236" y="-250" type="line"/>
      <point x="289" y="-250" type="line"/>
      <point x="289" y="750" type="line"/>
    </contour>
  </outline>
</glyph>
<glyph name="braceright" format="1">
  <advance width="334"/>
  <unicode hex="007D"/>
  <outline>
    <contour>
      <point x="197" y="289" type="line"/>
      <point x="157" y="277"/>
      <point x="134" y="241"/>
      <point x="134" y="203" type="curve" smooth="yes"/>
      <point x="135" y="132"/>
      <point x="156" y="88"/>
      <point x="156" y="21" type="curve" smooth="yes"/>
      <point x="156" y="-47"/>
      <point x="113" y="-94"/>
      <point x="28" y="-94" type="curve"/>
      <point x="27" y="-108"/>
      <point x="26" y="-123"/>
      <point x="27" y="-137" type="curve"/>
      <point x="146" y="-137"/>
      <point x="223" y="-70"/>
      <point x="223" y="23" type="curve" smooth="yes"/>
      <point x="222" y="93"/>
      <point x="196" y="147"/>
      <point x="196" y="200" type="curve" smooth="yes"/>
      <point x="196" y="236"/>
      <point x="210" y="271"/>
      <point x="284" y="268" type="curve"/>
      <point x="285" y="282"/>
      <point x="285" y="298"/>
      <point x="285" y="312" type="curve"/>
      <point x="211" y="312"/>
      <point x="197" y="339"/>
      <point x="197" y="372" type="curve" smooth="yes"/>
      <point x="198" y="422"/>
      <point x="224" y="471"/>
      <point x="224" y="540" type="curve" smooth="yes"/>
      <point x="224" y="644"/>
      <point x="159" y="708"/>
      <point x="28" y="708" type="curve"/>
      <point x="27" y="695"/>
      <point x="28" y="679"/>
      <point x="29" y="665" type="curve"/>
      <point x="121" y="665"/>
      <point x="156" y="623"/>
      <point x="156" y="548" type="curve" smooth="yes"/>
      <point x="156" y="484"/>
      <point x="134" y="437"/>
      <point x="134" y="378" type="curve" smooth="yes"/>
      <point x="134" y="339"/>
      <point x="155" y="308"/>
      <point x="197" y="295" type="curve"/>
    </contour>
  </outline>
</glyph>
<glyph name="asciitilde" format="1">
  <advance width="524"/>
  <unicode hex="007E"/>
  <outline>
    <contour>
      <point x="178" y="302" type="line" smooth="yes"/>
      <point x="118" y="302"/>
      <point x="73" y="242"/>
      <point x="66" y="172" type="curve"/>
      <point x="83" y="171"/>
      <point x="100" y="170"/>
      <point x="115" y="170" type="curve"/>
      <point x="122" y="210"/>
      <point x="143" y="241"/>
      <point x="178" y="241" type="curve" smooth="yes"/>
      <point x="211" y="241"/>
      <point x="235" y="221"/>
      <point x="259" y="207" type="curve" smooth="yes"/>
      <point x="283" y="192"/>
      <point x="316" y="169"/>
      <point x="355" y="169" type="curve" smooth="yes"/>
      <point x="419" y="169"/>
      <point x="458" y="240"/>
      <point x="460" y="304" type="curve"/>
      <point x="444" y="305"/>
      <point x="426" y="305"/>
      <point x="410" y="304" type="curve"/>
      <point x="407" y="264"/>
      <point x="387" y="231"/>
      <point x="356" y="231" type="curve" smooth="yes"/>
      <point x="326" y="231"/>
      <point x="300" y="251"/>
      <point x="277" y="265" type="curve" smooth="yes"/>
      <point x="247" y="285"/>
      <point x="219" y="302"/>
      <point x="179" y="302" type="curve" smooth="yes"/>
    </contour>
  </outline>
</glyph>
<glyph name="exclamdown" format="1">
  <advance width="273"/>
  <unicode hex="00A1"/>
  <outline>
    <contour>
      <point x="90" y="-234" type="line" smooth="yes"/>
      <point x="102" y="-234"/>
      <point x="165" y="-223"/>
      <point x="186" y="-216" type="curve"/>
      <point x="181" y="-152"/>
      <point x="175" y="-38"/>
      <point x="173" y="31" type="curve" smooth="yes"/>
      <point x="170" y="92"/>
      <point x="164" y="198"/>
      <point x="162" y="259" type="curve"/>
      <point x="149" y="257"/>
      <point x="124" y="255"/>
      <point x="110" y="252" type="curve"/>
      <point x="105" y="112"/>
      <point x="95" y="-96"/>
      <point x="89" y="-232" type="curve"/>
      <point x="89" y="-234"/>
      <point x="89" y="-234"/>
      <point x="89" y="-234" type="curve"/>
    </contour>
    <contour>
      <point x="135" y="327" type="line" smooth="yes"/>
      <point x="169" y="327"/>
      <point x="189" y="355"/>
      <point x="189" y="380" type="curve" smooth="yes"/>
      <point x="189" y="408"/>
      <point x="166" y="430"/>
      <point x="135" y="430" type="curve" smooth="yes"/>
      <point x="106" y="430"/>
      <point x="83" y="405"/>
      <point x="83" y="380" type="curve" smooth="yes"/>
      <point x="83" y="356"/>
      <point x="99" y="327"/>
      <point x="134" y="327" type="curve" smooth="yes"/>
    </contour>
  </outline>
</glyph>
<glyph name="cent" format="1">
  <advance width="524"/>
  <unicode hex="00A2"/>
  <outline>
    <contour>
      <point x="69" y="297" type="line" smooth="yes"/>
      <point x="69" y="170"/>
      <point x="162" y="110"/>
      <point x="269" y="106" type="curve"/>
      <point x="268" y="67"/>
      <point x="268" y="30"/>
      <point x="268" y="-2" type="curve"/>
      <point x="283" y="-1"/>
      <point x="300" y="0"/>
      <point x="316" y="2" type="curve"/>
      <point x="316" y="34"/>
      <point x="317" y="70"/>
      <point x="317" y="108" type="curve"/>
      <point x="364" y="112"/>
      <point x="411" y="126"/>
      <point x="463" y="150" type="curve"/>
      <point x="459" y="164"/>
      <point x="455" y="179"/>
      <point x="450" y="192" type="curve"/>
      <point x="405" y="173"/>
      <point x="357" y="160"/>
      <point x="317" y="158" type="curve"/>
      <point x="318" y="263"/>
      <point x="320" y="380"/>
      <point x="321" y="485" type="curve"/>
      <point x="353" y="485"/>
      <point x="396" y="468"/>
      <point x="422" y="454" type="curve"/>
      <point x="437" y="462"/>
      <point x="454" y="497"/>
      <point x="454" y="513" type="curve"/>
      <point x="423" y="528"/>
      <point x="388" y="538"/>
      <point x="342" y="538" type="curve" smooth="yes"/>
      <point x="335" y="538"/>
      <point x="328" y="538"/>
      <point x="323" y="537" type="curve"/>
      <point x="324" y="573"/>
      <point x="324" y="610"/>
      <point x="325" y="641" type="curve"/>
      <point x="307" y="640"/>
      <point x="290" y="638"/>
      <point x="274" y="634" type="curve"/>
      <point x="273" y="601"/>
      <point x="273" y="567"/>
      <point x="273" y="532" type="curve"/>
      <point x="146" y="513"/>
      <point x="69" y="414"/>
      <point x="69" y="298" type="curve" smooth="yes"/>
    </contour>
    <contour>
      <point x="143" y="315" type="line" smooth="yes"/>
      <point x="143" y="387"/>
      <point x="189" y="470"/>
      <point x="271" y="483" type="curve"/>
      <point x="270" y="379"/>
      <point x="269" y="263"/>
      <point x="268" y="159" type="curve"/>
      <point x="233" y="162"/>
      <point x="203" y="175"/>
      <point x="181" y="197" type="curve" smooth="yes"/>
      <point x="159" y="221"/>
      <point x="143" y="259"/>
      <point x="143" y="314" type="curve" smooth="yes"/>
    </contour>
  </outline>
</glyph>
<glyph name="sterling" format="1">
  <advance width="524"/>
  <unicode hex="00A3"/>
  <outline>
    <contour>
      <point x="344" y="654" type="line" smooth="yes"/>
      <point x="281" y="654"/>
      <point x="230" y="638"/>
      <point x="189" y="603" type="curve" smooth="yes"/>
      <point x="150" y="569"/>
      <point x="128" y="522"/>
      <point x="128" y="459" type="curve" smooth="yes"/>
      <point x="128" y="432"/>
      <point x="135" y="382"/>
      <point x="141" y="335" type="curve"/>
      <point x="142" y="331"/>
      <point x="140" y="329"/>
      <point x="137" y="329" type="curve" smooth="yes"/>
      <point x="108" y="329"/>
      <point x="79" y="329"/>
      <point x="50" y="328" type="curve"/>
      <point x="49" y="313"/>
      <point x="48" y="297"/>
      <point x="48" y="281" type="curve"/>
      <point x="80" y="281"/>
      <point x="118" y="281"/>
      <point x="148" y="281" type="curve"/>
      <point x="151" y="261"/>
      <point x="152" y="240"/>
      <point x="152" y="222" type="curve" smooth="yes"/>
      <point x="152" y="151"/>
      <point x="135" y="92"/>
      <point x="100" y="56" type="curve" smooth="yes"/>
      <point x="98" y="54"/>
      <point x="91" y="50"/>
      <point x="84" y="50" type="curve" smooth="yes"/>
      <point x="15" y="47" type="line"/>
      <point x="14" y="32"/>
      <point x="14" y="15"/>
      <point x="14" y="-1" type="curve"/>
      <point x="55" y="-1"/>
      <point x="94" y="0"/>
      <point x="134" y="0" type="curve" smooth="yes"/>
      <point x="269" y="0"/>
      <point x="410" y="-1"/>
      <point x="458" y="-1" type="curve"/>
      <point x="471" y="52"/>
      <point x="485" y="111"/>
      <point x="496" y="162" type="curve"/>
      <point x="481" y="166"/>
      <point x="463" y="171"/>
      <point x="445" y="174" type="curve"/>
      <point x="412" y="76" type="line" smooth="yes"/>
      <point x="408" y="64"/>
      <point x="402" y="56"/>
      <point x="393" y="55" type="curve"/>
      <point x="376" y="50"/>
      <point x="314" y="48"/>
      <point x="173" y="48" type="curve" smooth="yes"/>
      <point x="162" y="48"/>
      <point x="160" y="51"/>
      <point x="165" y="58" type="curve" smooth="yes"/>
      <point x="204" y="109"/>
      <point x="227" y="169"/>
      <point x="227" y="247" type="curve" smooth="yes"/>
      <point x="227" y="257"/>
      <point x="226" y="269"/>
      <point x="225" y="281" type="curve"/>
      <point x="276" y="281"/>
      <point x="340" y="281"/>
      <point x="397" y="281" type="curve"/>
      <point x="399" y="297"/>
      <point x="400" y="317"/>
      <point x="400" y="332" type="curve"/>
      <point x="333" y="331"/>
      <point x="276" y="330"/>
      <point x="219" y="330" type="curve"/>
      <point x="214" y="381"/>
      <point x="206" y="432"/>
      <point x="206" y="470" type="curve" smooth="yes"/>
      <point x="206" y="521"/>
      <point x="217" y="551"/>
      <point x="239" y="574" type="curve" smooth="yes"/>
      <point x="261" y="596"/>
      <point x="289" y="605"/>
      <point x="318" y="605" type="curve" smooth="yes"/>
      <point x="336" y="605"/>
      <point x="354" y="603"/>
      <point x="368" y="598" type="curve" smooth="yes"/>
      <point x="374" y="596"/>
      <point x="376" y="591"/>
      <point x="378" y="585" type="curve"/>
      <point x="394" y="491" type="line"/>
      <point x="412" y="493"/>
      <point x="430" y="495"/>
      <point x="448" y="497" type="curve"/>
      <point x="445" y="542"/>
      <point x="441" y="592"/>
      <point x="436" y="639" type="curve"/>
      <point x="410" y="649"/>
      <point x="371" y="654"/>
      <point x="345" y="654" type="curve" smooth="yes"/>
    </contour>
  </outline>
</glyph>
<glyph name="currency" format="1">
  <advance width="524"/>
  <unicode hex="00A4"/>
  <outline>
    <contour>
      <point x="270" y="497" type="line" smooth="yes"/>
      <point x="234" y="497"/>
      <point x="197" y="488"/>
      <point x="165" y="465" type="curve"/>
      <point x="138" y="496"/>
      <point x="114" y="524"/>
      <point x="92" y="548" type="curve"/>
      <point x="79" y="537"/>
      <point x="64" y="523"/>
      <point x="51" y="509" type="curve"/>
      <point x="74" y="484"/>
      <point x="97" y="459"/>
      <point x="124" y="428" type="curve"/>
      <point x="97" y="397"/>
      <point x="79" y="354"/>
      <point x="79" y="305" type="curve" smooth="yes"/>
      <point x="79" y="258"/>
      <point x="97" y="213"/>
      <point x="123" y="185" type="curve"/>
      <point x="98" y="157"/>
      <point x="72" y="128"/>
      <point x="50" y="102" type="curve"/>
      <point x="62" y="91"/>
      <point x="76" y="79"/>
      <point x="89" y="69" type="curve"/>
      <point x="112" y="94"/>
      <point x="138" y="123"/>
      <point x="164" y="152" type="curve"/>
      <point x="189" y="137"/>
      <point x="220" y="129"/>
      <point x="258" y="129" type="curve" smooth="yes"/>
      <point x="299" y="129"/>
      <point x="335" y="140"/>
      <point x="361" y="158" type="curve"/>
      <point x="388" y="127"/>
      <point x="414" y="97"/>
      <point x="437" y="70" type="curve"/>
      <point x="451" y="80"/>
      <point x="465" y="92"/>
      <point x="477" y="103" type="curve"/>
      <point x="453" y="130"/>
      <point x="426" y="161"/>
      <point x="399" y="192" type="curve"/>
      <point x="431" y="223"/>
      <point x="447" y="271"/>
      <point x="447" y="321" type="curve" smooth="yes"/>
      <point x="447" y="367"/>
      <point x="432" y="405"/>
      <point x="410" y="433" type="curve"/>
      <point x="436" y="462"/>
      <point x="459" y="488"/>
      <point x="479" y="510" type="curve"/>
      <point x="467" y="524"/>
      <point x="453" y="538"/>
      <point x="438" y="550" type="curve"/>
      <point x="418" y="526"/>
      <point x="395" y="500"/>
      <point x="370" y="470" type="curve"/>
      <point x="341" y="489"/>
      <point x="308" y="497"/>
      <point x="271" y="497" type="curve" smooth="yes"/>
    </contour>
    <contour>
      <point x="265" y="449" type="line" smooth="yes"/>
      <point x="296" y="449"/>
      <point x="323" y="441"/>
      <point x="344" y="423" type="curve" smooth="yes"/>
      <point x="368" y="402"/>
      <point x="386" y="367"/>
      <point x="386" y="317" type="curve" smooth="yes"/>
      <point x="386" y="261"/>
      <point x="368" y="225"/>
      <point x="341" y="203" type="curve" smooth="yes"/>
      <point x="320" y="185"/>
      <point x="289" y="177"/>
      <point x="261" y="177" type="curve" smooth="yes"/>
      <point x="232" y="177"/>
      <point x="200" y="187"/>
      <point x="181" y="204" type="curve" smooth="yes"/>
      <point x="157" y="227"/>
      <point x="140" y="260"/>
      <point x="140" y="312" type="curve" smooth="yes"/>
      <point x="140" y="362"/>
      <point x="163" y="398"/>
      <point x="185" y="420" type="curve" smooth="yes"/>
      <point x="205" y="440"/>
      <point x="237" y="449"/>
      <point x="264" y="449" type="curve" smooth="yes"/>
    </contour>
  </outline>
</glyph>
<glyph name="yen" format="1">
  <advance width="524"/>
  <unicode hex="00A5"/>
  <outline>
    <contour>
      <point x="233" y="54" type="line" smooth="yes"/>
      <point x="233" y="51"/>
      <point x="232" y="48"/>
      <point x="227" y="48" type="curve" smooth="yes"/>
      <point x="144" y="46" type="line"/>
      <point x="143" y="31"/>
      <point x="142" y="15"/>
      <point x="143" y="0" type="curve"/>
      <point x="183" y="0"/>
      <point x="228" y="1"/>
      <point x="268" y="1" type="curve" smooth="yes"/>
      <point x="311" y="1"/>
      <point x="359" y="0"/>
      <point x="395" y="0" type="curve"/>
      <point x="396" y="15"/>
      <point x="396" y="32"/>
      <point x="396" y="46" type="curve"/>
      <point x="300" y="49" type="line"/>
      <point x="301" y="144" type="line"/>
      <point x="349" y="144"/>
      <point x="412" y="145"/>
      <point x="453" y="145" type="curve"/>
      <point x="454" y="159"/>
      <point x="454" y="174"/>
      <point x="454" y="187" type="curve"/>
      <point x="406" y="187"/>
      <point x="353" y="186"/>
      <point x="301" y="186" type="curve"/>
      <point x="302" y="247" type="line"/>
      <point x="351" y="247"/>
      <point x="415" y="247"/>
      <point x="456" y="247" type="curve"/>
      <point x="457" y="261"/>
      <point x="457" y="278"/>
      <point x="457" y="292" type="curve"/>
      <point x="414" y="291"/>
      <point x="367" y="291"/>
      <point x="321" y="291" type="curve"/>
      <point x="375" y="389"/>
      <point x="428" y="489"/>
      <point x="480" y="587" type="curve"/>
      <point x="522" y="591" type="line"/>
      <point x="523" y="605"/>
      <point x="523" y="621"/>
      <point x="523" y="636" type="curve"/>
      <point x="503" y="636"/>
      <point x="472" y="635"/>
      <point x="448" y="635" type="curve" smooth="yes"/>
      <point x="407" y="635"/>
      <point x="363" y="635"/>
      <point x="331" y="635" type="curve"/>
      <point x="330" y="620"/>
      <point x="330" y="604"/>
      <point x="330" y="590" type="curve"/>
      <point x="410" y="587" type="line" smooth="yes"/>
      <point x="413" y="587"/>
      <point x="415" y="584"/>
      <point x="414" y="582" type="curve" smooth="yes"/>
      <point x="372" y="491"/>
      <point x="328" y="400"/>
      <point x="283" y="308" type="curve"/>
      <point x="278" y="308" type="line"/>
      <point x="233" y="401"/>
      <point x="188" y="494"/>
      <point x="142" y="587" type="curve"/>
      <point x="229" y="590" type="line"/>
      <point x="230" y="605"/>
      <point x="230" y="621"/>
      <point x="230" y="636" type="curve"/>
      <point x="191" y="636"/>
      <point x="144" y="635"/>
      <point x="95" y="635" type="curve" smooth="yes"/>
      <point x="66" y="635"/>
      <point x="34" y="636"/>
      <point x="13" y="636" type="curve"/>
      <point x="12" y="621"/>
      <point x="12" y="605"/>
      <point x="12" y="590" type="curve"/>
      <point x="53" y="588" type="line" smooth="yes"/>
      <point x="56" y="588"/>
      <point x="58" y="586"/>
      <point x="60" y="583" type="curve"/>
      <point x="112" y="486"/>
      <point x="164" y="388"/>
      <point x="218" y="290" type="curve"/>
      <point x="172" y="290"/>
      <point x="124" y="290"/>
      <point x="79" y="289" type="curve"/>
      <point x="78" y="276"/>
      <point x="78" y="261"/>
      <point x="78" y="247" type="curve"/>
      <point x="124" y="247"/>
      <point x="187" y="247"/>
      <point x="233" y="247" type="curve"/>
      <point x="233" y="186" type="line"/>
      <point x="181" y="186"/>
      <point x="129" y="186"/>
      <point x="80" y="186" type="curve"/>
      <point x="79" y="173"/>
      <point x="78" y="157"/>
      <point x="79" y="143" type="curve"/>
      <point x="126" y="143"/>
      <point x="189" y="144"/>
      <point x="233" y="144" type="curve"/>
    </contour>
  </outline>
</glyph>
<glyph name="brokenbar" format="1">
  <advance width="524"/>
  <unicode hex="00A6"/>
  <outline>
    <contour>
      <point x="236" y="675" type="line"/>
      <point x="236" y="325" type="line"/>
      <point x="289" y="325" type="line"/>
      <point x="289" y="675" type="line"/>
    </contour>
    <contour>
      <point x="236" y="175" type="line"/>
      <point x="236" y="-175" type="line"/>
      <point x="289" y="-175" type="line"/>
      <point x="289" y="175" type="line"/>
    </contour>
  </outline>
</glyph>
<glyph name="section" format="1">
  <advance width="452"/>
  <unicode hex="00A7"/>
  <outline>
    <contour>
      <point x="395" y="201" type="line" smooth="yes"/>
      <point x="395" y="277"/>
      <point x="356" y="328"/>
      <point x="276" y="379" type="curve" smooth="yes"/>
      <point x="186" y="438"/>
      <point x="152" y="466"/>
      <point x="152" y="519" type="curve" smooth="yes"/>
      <point x="152" y="549"/>
      <point x="163" y="571"/>
      <point x="183" y="589" type="curve" smooth="yes"/>
      <point x="200" y="604"/>
      <point x="224" y="610"/>
      <point x="252" y="610" type="curve" smooth="yes"/>
      <point x="292" y="610"/>
      <point x="340" y="585"/>
      <point x="360" y="564" type="curve"/>
      <point x="379" y="570"/>
      <point x="400" y="592"/>
      <point x="405" y="609" type="curve"/>
      <point x="373" y="639"/>
      <point x="320" y="659"/>
      <point x="263" y="659" type="curve" smooth="yes"/>
      <point x="217" y="659"/>
      <point x="175" y="647"/>
      <point x="144" y="622" type="curve" smooth="yes"/>
      <point x="108" y="593"/>
      <point x="86" y="550"/>
      <point x="86" y="510" type="curve" smooth="yes"/>
      <point x="86" y="476"/>
      <point x="98" y="446"/>
      <point x="114" y="426" type="curve"/>
      <point x="87" y="397"/>
      <point x="60" y="352"/>
      <point x="60" y="296" type="curve" smooth="yes"/>
      <point x="60" y="219"/>
      <point x="104" y="167"/>
      <point x="188" y="116" type="curve" smooth="yes"/>
      <point x="270" y="66"/>
      <point x="299" y="35"/>
      <point x="299" y="-21" type="curve" smooth="yes"/>
      <point x="299" y="-49"/>
      <point x="291" y="-75"/>
      <point x="273" y="-94" type="curve" smooth="yes"/>
      <point x="253" y="-116"/>
      <point x="222" y="-126"/>
      <point x="194" y="-126" type="curve" smooth="yes"/>
      <point x="145" y="-126"/>
      <point x="96" y="-98"/>
      <point x="68" y="-69" type="curve"/>
      <point x="48" y="-73"/>
      <point x="28" y="-96"/>
      <point x="21" y="-114" type="curve"/>
      <point x="61" y="-151"/>
      <point x="122" y="-175"/>
      <point x="187" y="-175" type="curve" smooth="yes"/>
      <point x="234" y="-175"/>
      <point x="281" y="-158"/>
      <point x="314" y="-126" type="curve" smooth="yes"/>
      <point x="353" y="-89"/>
      <point x="366" y="-42"/>
      <point x="366" y="-3" type="curve" smooth="yes"/>
      <point x="366" y="25"/>
      <point x="358" y="52"/>
      <point x="347" y="70" type="curve"/>
      <point x="376" y="102"/>
      <point x="395" y="147"/>
      <point x="395" y="200" type="curve" smooth="yes"/>
    </contour>
    <contour>
      <point x="119" y="318" type="line" smooth="yes"/>
      <point x="119" y="350"/>
      <point x="130" y="378"/>
      <point x="145" y="395" type="curve"/>
      <point x="169" y="372"/>
      <point x="200" y="351"/>
      <point x="234" y="326" type="curve" smooth="yes"/>
      <point x="302" y="278"/>
      <point x="337" y="247"/>
      <point x="337" y="180" type="curve" smooth="yes"/>
      <point x="337" y="146"/>
      <point x="329" y="121"/>
      <point x="315" y="102" type="curve"/>
      <point x="292" y="128"/>
      <point x="261" y="148"/>
      <point x="222" y="174" type="curve" smooth="yes"/>
      <point x="154" y="218"/>
      <point x="119" y="253"/>
      <point x="119" y="317" type="curve" smooth="yes"/>
    </contour>
  </outline>
</glyph>
<glyph name="dieresis" format="1">
  <advance width="333"/>
  <unicode hex="00A8"/>
  <outline>
    <contour>
      <point x="88" y="581" type="line" smooth="yes"/>
      <point x="59" y="581"/>
      <point x="45" y="557"/>
      <point x="45" y="538" type="curve" smooth="yes"/>
      <point x="45" y="513"/>
      <point x="63" y="495"/>
      <point x="89" y="495" type="curve" smooth="yes"/>
      <point x="116" y="495"/>
      <point x="131" y="517"/>
      <point x="131" y="537" type="curve" smooth="yes"/>
      <point x="131" y="555"/>
      <point x="121" y="581"/>
      <point x="89" y="581" type="curve" smooth="yes"/>
    </contour>
    <contour>
      <point x="246" y="581" type="line" smooth="yes"/>
      <point x="212" y="581"/>
      <point x="202" y="555"/>
      <point x="202" y="537" type="curve" smooth="yes"/>
      <point x="202" y="517"/>
      <point x="217" y="495"/>
      <point x="245" y="495" type="curve" smooth="yes"/>
      <point x="270" y="495"/>
      <point x="288" y="513"/>
      <point x="288" y="538" type="curve" smooth="yes"/>
      <point x="288" y="557"/>
      <point x="274" y="581"/>
      <point x="247" y="581" type="curve" smooth="yes"/>
    </contour>
  </outline>
</glyph>
<glyph name="copyright" format="1">
  <advance width="761"/>
  <unicode hex="00A9"/>
  <outline>
    <contour>
      <point x="384" y="660" type="line" smooth="yes"/>
      <point x="198" y="660"/>
      <point x="52" y="507"/>
      <point x="52" y="322" type="curve" smooth="yes"/>
      <point x="52" y="136"/>
      <point x="191" y="-10"/>
      <point x="378" y="-10" type="curve" smooth="yes"/>
      <point x="564" y="-10"/>
      <point x="709" y="143"/>
      <point x="709" y="328" type="curve" smooth="yes"/>
      <point x="709" y="514"/>
      <point x="571" y="660"/>
      <point x="385" y="660" type="curve" smooth="yes"/>
    </contour>
    <contour>
      <point x="381" y="622" type="line" smooth="yes"/>
      <point x="545" y="622"/>
      <point x="660" y="489"/>
      <point x="660" y="326" type="curve" smooth="yes"/>
      <point x="660" y="164"/>
      <point x="543" y="28"/>
      <point x="381" y="28" type="curve" smooth="yes"/>
      <point x="217" y="28"/>
      <point x="101" y="161"/>
      <point x="101" y="324" type="curve" smooth="yes"/>
      <point x="101" y="486"/>
      <point x="218" y="622"/>
      <point x="380" y="622" type="curve" smooth="yes"/>
    </contour>
    <contour>
      <point x="461" y="385" type="line"/>
      <point x="475" y="386"/>
      <point x="490" y="388"/>
      <point x="502" y="390" type="curve"/>
      <point x="500" y="428"/>
      <point x="498" y="463"/>
      <point x="496" y="497" type="curve"/>
      <point x="484" y="503"/>
      <point x="452" y="509"/>
      <point x="419" y="509" type="curve" smooth="yes"/>
      <point x="377" y="509"/>
      <point x="324" y="496"/>
      <point x="286" y="464" type="curve" smooth="yes"/>
      <point x="247" y="432"/>
      <point x="213" y="378"/>
      <point x="213" y="306" type="curve" smooth="yes"/>
      <point x="213" y="248"/>
      <point x="238" y="201"/>
      <point x="274" y="174" type="curve" smooth="yes"/>
      <point x="305" y="151"/>
      <point x="345" y="140"/>
      <point x="389" y="140" type="curve" smooth="yes"/>
      <point x="421" y="140"/>
      <point x="464" y="149"/>
      <point x="507" y="169" type="curve"/>
      <point x="505" y="181"/>
      <point x="502" y="194"/>
      <point x="498" y="208" type="curve"/>
      <point x="472" y="195"/>
      <point x="434" y="184"/>
      <point x="401" y="184" type="curve" smooth="yes"/>
      <point x="365" y="184"/>
      <point x="334" y="193"/>
      <point x="311" y="217" type="curve" smooth="yes"/>
      <point x="289" y="240"/>
      <point x="278" y="272"/>
      <point x="278" y="314" type="curve" smooth="yes"/>
      <point x="278" y="369"/>
      <point x="294" y="407"/>
      <point x="326" y="438" type="curve" smooth="yes"/>
      <point x="351" y="460"/>
      <point x="377" y="467"/>
      <point x="404" y="467" type="curve" smooth="yes"/>
      <point x="424" y="467"/>
      <point x="438" y="463"/>
      <point x="448" y="457" type="curve"/>
      <point x="449" y="456"/>
      <point x="452" y="453"/>
      <point x="452" y="449" type="curve"/>
    </contour>
  </outline>
</glyph>
<glyph name="ordfeminine" format="1">
  <advance width="361"/>
  <unicode hex="00AA"/>
  <outline>
    <contour>
      <point x="227" y="353" type="line"/>
      <point x="235" y="336"/>
      <point x="243" y="326"/>
      <point x="249" y="320" type="curve"/>
      <point x="282" y="320"/>
      <point x="328" y="327"/>
      <point x="344" y="331" type="curve"/>
      <point x="345" y="342"/>
      <point x="344" y="354"/>
      <point x="344" y="366" type="curve"/>
      <point x="292" y="364" type="line" smooth="yes"/>
      <point x="289" y="364"/>
      <point x="287" y="367"/>
      <point x="287" y="375" type="curve" smooth="yes"/>
      <point x="287" y="405"/>
      <point x="288" y="493"/>
      <point x="288" y="527" type="curve" smooth="yes"/>
      <point x="288" y="608"/>
      <point x="238" y="646"/>
      <point x="184" y="646" type="curve" smooth="yes"/>
      <point x="126" y="646"/>
      <point x="82" y="615"/>
      <point x="49" y="582" type="curve"/>
      <point x="57" y="572"/>
      <point x="68" y="561"/>
      <point x="78" y="552" type="curve"/>
      <point x="100" y="575"/>
      <point x="134" y="598"/>
      <point x="166" y="598" type="curve" smooth="yes"/>
      <point x="209" y="598"/>
      <point x="228" y="570"/>
      <point x="226" y="496" type="curve"/>
      <point x="224" y="496"/>
      <point x="197" y="496"/>
      <point x="173" y="496" type="curve" smooth="yes"/>
      <point x="77" y="496"/>
      <point x="31" y="437"/>
      <point x="31" y="393" type="curve" smooth="yes"/>
      <point x="31" y="350"/>
      <point x="81" y="320"/>
      <point x="115" y="320" type="curve" smooth="yes"/>
      <point x="144" y="320"/>
      <point x="175" y="327"/>
      <point x="224" y="353" type="curve"/>
    </contour>
    <contour>
      <point x="96" y="401" type="line" smooth="yes"/>
      <point x="96" y="436"/>
      <point x="127" y="460"/>
      <point x="190" y="460" type="curve" smooth="yes"/>
      <point x="211" y="460"/>
      <point x="221" y="459"/>
      <point x="225" y="459" type="curve"/>
      <point x="225" y="441"/>
      <point x="225" y="414"/>
      <point x="225" y="397" type="curve" smooth="yes"/>
      <point x="225" y="395"/>
      <point x="225" y="394"/>
      <point x="222" y="392" type="curve" smooth="yes"/>
      <point x="196" y="374"/>
      <point x="168" y="364"/>
      <point x="147" y="364" type="curve" smooth="yes"/>
      <point x="120" y="364"/>
      <point x="96" y="376"/>
      <point x="96" y="400" type="curve" smooth="yes"/>
    </contour>
  </outline>
</glyph>
<glyph name="guillemotleft" format="1">
  <advance width="411"/>
  <unicode hex="00AB"/>
  <outline>
    <contour>
      <point x="118" y="223" type="curve"/>
      <point x="149" y="270"/>
      <point x="182" y="316"/>
      <point x="215" y="362" type="curve"/>
      <point x="206" y="371"/>
      <point x="195" y="382"/>
      <point x="184" y="390" type="curve"/>
      <point x="138" y="339"/>
      <point x="92" y="289"/>
      <point x="43" y="239" type="curve"/>
      <point x="43" y="228"/>
      <point x="43" y="214"/>
      <point x="44" y="202" type="curve"/>
      <point x="92" y="152"/>
      <point x="138" y="103"/>
      <point x="185" y="52" type="curve"/>
      <point x="196" y="60"/>
      <point x="207" y="70"/>
      <point x="216" y="79" type="curve"/>
      <point x="182" y="126"/>
      <point x="148" y="175"/>
    </contour>
    <contour>
      <point x="274" y="223" type="curve"/>
      <point x="305" y="267"/>
      <point x="337" y="311"/>
      <point x="370" y="357" type="curve"/>
      <point x="361" y="366"/>
      <point x="350" y="376"/>
      <point x="340" y="384" type="curve"/>
      <point x="294" y="334"/>
      <point x="250" y="285"/>
      <point x="205" y="237" type="curve"/>
      <point x="204" y="227"/>
      <point x="204" y="215"/>
      <point x="205" y="204" type="curve"/>
      <point x="251" y="156"/>
      <point x="296" y="108"/>
      <point x="342" y="58" type="curve"/>
      <point x="352" y="66"/>
      <point x="363" y="76"/>
      <point x="371" y="85" type="curve"/>
      <point x="336" y="131"/>
      <point x="304" y="177"/>
    </contour>
  </outline>
</glyph>
<glyph name="logicalnot" format="1">
  <advance width="524"/>
  <unicode hex="00AC"/>
  <outline>
    <contour>
      <point x="403" y="33" type="line"/>
      <point x="419" y="33"/>
      <point x="440" y="34"/>
      <point x="457" y="36" type="curve"/>
      <point x="457" y="100"/>
      <point x="459" y="203"/>
      <point x="459" y="275" type="curve" smooth="yes"/>
      <point x="459" y="277"/>
      <point x="458" y="279"/>
      <point x="455" y="279" type="curve" smooth="yes"/>
      <point x="329" y="278"/>
      <point x="187" y="277"/>
      <point x="61" y="276" type="curve"/>
      <point x="60" y="259"/>
      <point x="59" y="240"/>
      <point x="59" y="222" type="curve"/>
      <point x="167" y="222"/>
      <point x="292" y="222"/>
      <point x="403" y="222" type="curve"/>
    </contour>
  </outline>
</glyph>
<glyph name="uni00AD" format="1">
  <advance width="315"/>
  <unicode hex="00AD"/>
  <outline>
    <contour>
      <point x="132" y="213" type="line"/>
      <point x="281" y="213" type="line"/>
      <point x="282" y="230"/>
      <point x="283" y="249"/>
      <point x="283" y="268" type="curve"/>
      <point x="234" y="267"/>
      <point x="187" y="267"/>
      <point x="135" y="266" type="curve" smooth="yes"/>
      <point x="102" y="266"/>
      <point x="68" y="266"/>
      <point x="33" y="265" type="curve"/>
      <point x="32" y="249"/>
      <point x="32" y="230"/>
      <point x="32" y="213" type="curve"/>
      <point x="131" y="213" type="line"/>
    </contour>
  </outline>
</glyph>
<glyph name="registered" format="1">
  <advance width="475"/>
  <unicode hex="00AE"/>
  <outline>
    <contour>
      <point x="238" y="660" type="line" smooth="yes"/>
      <point x="134" y="660"/>
      <point x="53" y="575"/>
      <point x="53" y="471" type="curve" smooth="yes"/>
      <point x="53" y="367"/>
      <point x="130" y="285"/>
      <point x="236" y="285" type="curve" smooth="yes"/>
      <point x="340" y="285"/>
      <point x="422" y="371"/>
      <point x="422" y="473" type="curve" smooth="yes"/>
      <point x="422" y="579"/>
      <point x="344" y="660"/>
      <point x="240" y="660" type="curve" smooth="yes"/>
    </contour>
    <contour>
      <point x="237" y="630" type="line" smooth="yes"/>
      <point x="325" y="630"/>
      <point x="387" y="561"/>
      <point x="387" y="473" type="curve" smooth="yes"/>
      <point x="387" y="386"/>
      <point x="324" y="315"/>
      <point x="237" y="315" type="curve" smooth="yes"/>
      <point x="149" y="315"/>
      <point x="88" y="385"/>
      <point x="88" y="471" type="curve" smooth="yes"/>
      <point x="88" y="559"/>
      <point x="150" y="630"/>
      <point x="236" y="630" type="curve" smooth="yes"/>
    </contour>
    <contour>
      <point x="172" y="400" type="line"/>
      <point x="151" y="400" type="line"/>
      <point x="151" y="390"/>
      <point x="151" y="382"/>
      <point x="151" y="374" type="curve"/>
      <point x="239" y="374" type="line"/>
      <point x="239" y="383"/>
      <point x="239" y="391"/>
      <point x="239" y="400" type="curve"/>
      <point x="215" y="400" type="line"/>
      <point x="215" y="452" type="line"/>
      <point x="219" y="452"/>
      <point x="222" y="452"/>
      <point x="228" y="452" type="curve" smooth="yes"/>
      <point x="236" y="452"/>
      <point x="245" y="452"/>
      <point x="252" y="442" type="curve"/>
      <point x="262" y="425"/>
      <point x="276" y="388"/>
      <point x="287" y="374" type="curve"/>
      <point x="342" y="374" type="line"/>
      <point x="342" y="383"/>
      <point x="342" y="391"/>
      <point x="342" y="400" type="curve"/>
      <point x="328" y="400" type="line" smooth="yes"/>
      <point x="321" y="400"/>
      <point x="319" y="401"/>
      <point x="313" y="413" type="curve" smooth="yes"/>
      <point x="298" y="443"/>
      <point x="291" y="457"/>
      <point x="276" y="464" type="curve"/>
      <point x="276" y="468" type="line"/>
      <point x="298" y="477"/>
      <point x="318" y="495"/>
      <point x="318" y="524" type="curve" smooth="yes"/>
      <point x="318" y="542"/>
      <point x="304" y="562"/>
      <point x="277" y="569" type="curve" smooth="yes"/>
      <point x="262" y="573"/>
      <point x="244" y="574"/>
      <point x="218" y="574" type="curve" smooth="yes"/>
      <point x="196" y="574"/>
      <point x="174" y="574"/>
      <point x="151" y="573" type="curve"/>
      <point x="150" y="565"/>
      <point x="150" y="557"/>
      <point x="150" y="547" type="curve"/>
      <point x="172" y="547" type="line"/>
    </contour>
    <contour>
      <point x="215" y="547" type="line"/>
      <point x="218" y="547"/>
      <point x="222" y="547"/>
      <point x="229" y="547" type="curve" smooth="yes"/>
      <point x="252" y="547"/>
      <point x="273" y="541"/>
      <point x="273" y="515" type="curve" smooth="yes"/>
      <point x="273" y="496"/>
      <point x="260" y="478"/>
      <point x="227" y="478" type="curve" smooth="yes"/>
      <point x="222" y="478"/>
      <point x="218" y="478"/>
      <point x="215" y="478" type="curve"/>
    </contour>
  </outline>
</glyph>
